<mxfile host="Electron" agent="Mozilla/5.0 (Windows NT 10.0; Win64; x64) AppleWebKit/537.36 (KHTML, like Gecko) draw.io/26.0.16 Chrome/132.0.6834.196 Electron/34.2.0 Safari/537.36" version="26.0.16">
  <diagram name="Page-1" id="YtV_MBaxOXHyL8krOH8G">
    <mxGraphModel dx="4496" dy="3765" grid="1" gridSize="10" guides="1" tooltips="1" connect="1" arrows="1" fold="1" page="1" pageScale="1" pageWidth="850" pageHeight="1100" math="0" shadow="0">
      <root>
        <mxCell id="0" />
        <mxCell id="1" parent="0" />
        <mxCell id="tQyVGpeCjlCovoECdZ1f-1" value="OrderFoodGui" style="swimlane;fontStyle=1;align=center;verticalAlign=top;childLayout=stackLayout;horizontal=1;startSize=26;horizontalStack=0;resizeParent=1;resizeParentMax=0;resizeLast=0;collapsible=1;marginBottom=0;whiteSpace=wrap;html=1;" vertex="1" parent="1">
          <mxGeometry x="-42" y="-116" width="160" height="390" as="geometry" />
        </mxCell>
        <mxCell id="tQyVGpeCjlCovoECdZ1f-2" value="- cardLayout: CardLayout&lt;div&gt;- contentPanel: JPanel&lt;/div&gt;&lt;div&gt;- chartPanel: JPanel&lt;/div&gt;&lt;div&gt;- selectedDishes: Map&lt;/div&gt;&lt;div&gt;- dishesPanel: JPanel&amp;nbsp;&lt;/div&gt;&lt;div&gt;- quantitySpinner: JSpinner&lt;/div&gt;&lt;div&gt;- CHART_FILE_PATH: String&lt;/div&gt;" style="text;strokeColor=none;fillColor=none;align=left;verticalAlign=top;spacingLeft=4;spacingRight=4;overflow=hidden;rotatable=0;points=[[0,0.5],[1,0.5]];portConstraint=eastwest;whiteSpace=wrap;html=1;" vertex="1" parent="tQyVGpeCjlCovoECdZ1f-1">
          <mxGeometry y="26" width="160" height="124" as="geometry" />
        </mxCell>
        <mxCell id="tQyVGpeCjlCovoECdZ1f-3" value="" style="line;strokeWidth=1;fillColor=none;align=left;verticalAlign=middle;spacingTop=-1;spacingLeft=3;spacingRight=3;rotatable=0;labelPosition=right;points=[];portConstraint=eastwest;strokeColor=inherit;" vertex="1" parent="tQyVGpeCjlCovoECdZ1f-1">
          <mxGeometry y="150" width="160" height="8" as="geometry" />
        </mxCell>
        <mxCell id="tQyVGpeCjlCovoECdZ1f-4" value="+ OrderFoodGui(cardLayout, contentPanel)&lt;div&gt;- initComponents(): void&lt;/div&gt;&lt;div&gt;- createStyledButton(text: String, isPrimary: boolean): JButton&amp;nbsp;&lt;/div&gt;&lt;div&gt;- saveToChart(): void&lt;/div&gt;&lt;div&gt;- createChartPanel(): void&lt;/div&gt;&lt;div&gt;- showChartPanel(): void&lt;/div&gt;&lt;div&gt;- findTextArea(container: Container): JTextArea&lt;/div&gt;&lt;div&gt;- clearChartFile(): void&lt;/div&gt;&lt;div&gt;- cancelOrder(): void&lt;/div&gt;&lt;div&gt;- resetForm(): void&amp;nbsp;&lt;/div&gt;" style="text;strokeColor=none;fillColor=none;align=left;verticalAlign=top;spacingLeft=4;spacingRight=4;overflow=hidden;rotatable=0;points=[[0,0.5],[1,0.5]];portConstraint=eastwest;whiteSpace=wrap;html=1;" vertex="1" parent="tQyVGpeCjlCovoECdZ1f-1">
          <mxGeometry y="158" width="160" height="232" as="geometry" />
        </mxCell>
        <mxCell id="tQyVGpeCjlCovoECdZ1f-5" value="Dish" style="swimlane;fontStyle=1;align=center;verticalAlign=top;childLayout=stackLayout;horizontal=1;startSize=26;horizontalStack=0;resizeParent=1;resizeParentMax=0;resizeLast=0;collapsible=1;marginBottom=0;whiteSpace=wrap;html=1;strokeColor=light-dark(#000000,#00FF00);" vertex="1" parent="1">
          <mxGeometry x="-390" y="-310" width="180" height="280" as="geometry" />
        </mxCell>
        <mxCell id="tQyVGpeCjlCovoECdZ1f-6" value="&lt;div&gt;- name: String&amp;nbsp; &amp;nbsp; &amp;nbsp; &amp;nbsp; &amp;nbsp; &amp;nbsp; &amp;nbsp; &amp;nbsp; &amp;nbsp; &amp;nbsp; &lt;span style=&quot;background-color: transparent; color: light-dark(rgb(0, 0, 0), rgb(255, 255, 255));&quot;&gt;&amp;nbsp;&lt;br&gt;-ingredients: Ingredient[]&lt;/span&gt;&lt;/div&gt;" style="text;strokeColor=none;fillColor=none;align=left;verticalAlign=top;spacingLeft=4;spacingRight=4;overflow=hidden;rotatable=0;points=[[0,0.5],[1,0.5]];portConstraint=eastwest;whiteSpace=wrap;html=1;" vertex="1" parent="tQyVGpeCjlCovoECdZ1f-5">
          <mxGeometry y="26" width="180" height="84" as="geometry" />
        </mxCell>
        <mxCell id="tQyVGpeCjlCovoECdZ1f-7" value="" style="line;strokeWidth=1;fillColor=none;align=left;verticalAlign=middle;spacingTop=-1;spacingLeft=3;spacingRight=3;rotatable=0;labelPosition=right;points=[];portConstraint=eastwest;strokeColor=inherit;" vertex="1" parent="tQyVGpeCjlCovoECdZ1f-5">
          <mxGeometry y="110" width="180" height="8" as="geometry" />
        </mxCell>
        <mxCell id="tQyVGpeCjlCovoECdZ1f-8" value="&lt;div&gt;+ Dish(name: String, ingredients: Ingredient[])&amp;nbsp;&amp;nbsp;&lt;/div&gt;&lt;div&gt;+ getName(): String&amp;nbsp; &amp;nbsp; &amp;nbsp; &amp;nbsp; &amp;nbsp; &amp;nbsp; &amp;nbsp;&lt;/div&gt;&lt;div&gt;+ getIngredients(): Ingredient[]&amp;nbsp;&amp;nbsp;&lt;/div&gt;&lt;div&gt;+canMakeDish(): boolean&amp;nbsp;&lt;br&gt;&lt;span style=&quot;background-color: transparent; color: light-dark(rgb(0, 0, 0), rgb(255, 255, 255));&quot;&gt;+makeDish(): boolean&amp;nbsp; &amp;nbsp; &amp;nbsp; &amp;nbsp;&amp;nbsp;&lt;/span&gt;&lt;/div&gt;&lt;div&gt;+getDishes(): Dish[]&amp;nbsp; &amp;nbsp; &amp;nbsp; &amp;nbsp; &amp;nbsp; &amp;nbsp;&amp;nbsp;&lt;br&gt;&lt;span style=&quot;background-color: transparent; color: light-dark(rgb(0, 0, 0), rgb(255, 255, 255));&quot;&gt;+toString(): String&lt;/span&gt;&lt;/div&gt;" style="text;strokeColor=none;fillColor=none;align=left;verticalAlign=top;spacingLeft=4;spacingRight=4;overflow=hidden;rotatable=0;points=[[0,0.5],[1,0.5]];portConstraint=eastwest;whiteSpace=wrap;html=1;" vertex="1" parent="tQyVGpeCjlCovoECdZ1f-5">
          <mxGeometry y="118" width="180" height="162" as="geometry" />
        </mxCell>
        <mxCell id="tQyVGpeCjlCovoECdZ1f-13" value="" style="endArrow=none;html=1;edgeStyle=orthogonalEdgeStyle;rounded=0;exitX=0;exitY=0.5;exitDx=0;exitDy=0;entryX=0.441;entryY=0;entryDx=0;entryDy=0;entryPerimeter=0;" edge="1" parent="1" target="tQyVGpeCjlCovoECdZ1f-5" source="tQyVGpeCjlCovoECdZ1f-20">
          <mxGeometry relative="1" as="geometry">
            <mxPoint x="-530" y="-135" as="sourcePoint" />
            <mxPoint x="-333" y="50" as="targetPoint" />
          </mxGeometry>
        </mxCell>
        <mxCell id="tQyVGpeCjlCovoECdZ1f-14" value="Manages" style="edgeLabel;html=1;align=center;verticalAlign=middle;resizable=0;points=[];" vertex="1" connectable="0" parent="tQyVGpeCjlCovoECdZ1f-13">
          <mxGeometry x="0.1533" y="1" relative="1" as="geometry">
            <mxPoint y="-1" as="offset" />
          </mxGeometry>
        </mxCell>
        <mxCell id="tQyVGpeCjlCovoECdZ1f-15" value="Use" style="endArrow=open;endSize=12;dashed=1;html=1;rounded=0;entryX=0.983;entryY=0.015;entryDx=0;entryDy=0;exitX=0.25;exitY=1;exitDx=0;exitDy=0;entryPerimeter=0;" edge="1" parent="1" source="tQyVGpeCjlCovoECdZ1f-29" target="tQyVGpeCjlCovoECdZ1f-1">
          <mxGeometry x="0.0208" y="11" width="160" relative="1" as="geometry">
            <mxPoint x="400" y="-957" as="sourcePoint" />
            <mxPoint x="190" y="-145.43" as="targetPoint" />
            <Array as="points">
              <mxPoint x="340" y="-480" />
              <mxPoint x="190" y="-480" />
              <mxPoint x="190" y="-110" />
            </Array>
            <mxPoint as="offset" />
          </mxGeometry>
        </mxCell>
        <mxCell id="tQyVGpeCjlCovoECdZ1f-16" value="Use" style="endArrow=open;endSize=12;dashed=1;html=1;rounded=0;exitX=0;exitY=1;exitDx=0;exitDy=0;entryX=0.5;entryY=0;entryDx=0;entryDy=0;" edge="1" parent="1" target="tQyVGpeCjlCovoECdZ1f-19" source="tQyVGpeCjlCovoECdZ1f-29">
          <mxGeometry x="0.0208" y="11" width="160" relative="1" as="geometry">
            <mxPoint x="40" y="-336" as="sourcePoint" />
            <mxPoint x="200" y="-310" as="targetPoint" />
            <Array as="points">
              <mxPoint x="300" y="-800" />
              <mxPoint x="70" y="-800" />
            </Array>
            <mxPoint as="offset" />
          </mxGeometry>
        </mxCell>
        <mxCell id="tQyVGpeCjlCovoECdZ1f-19" value="PrepareDishGui" style="swimlane;fontStyle=1;align=center;verticalAlign=middle;childLayout=stackLayout;horizontal=1;startSize=30;horizontalStack=0;resizeParent=1;resizeParentMax=0;resizeLast=0;collapsible=0;marginBottom=0;html=1;whiteSpace=wrap;" vertex="1" parent="1">
          <mxGeometry y="-300" width="140" height="110" as="geometry" />
        </mxCell>
        <mxCell id="tQyVGpeCjlCovoECdZ1f-20" value="+ launch(): void&lt;div&gt;(extends BasicButtonUI)&lt;/div&gt;&lt;div&gt;+ paint(g: Graphics, c: JComponent): void&lt;/div&gt;" style="text;html=1;strokeColor=none;fillColor=none;align=left;verticalAlign=middle;spacingLeft=4;spacingRight=4;overflow=hidden;rotatable=0;points=[[0,0.5],[1,0.5]];portConstraint=eastwest;whiteSpace=wrap;" vertex="1" parent="tQyVGpeCjlCovoECdZ1f-19">
          <mxGeometry y="30" width="140" height="80" as="geometry" />
        </mxCell>
        <mxCell id="tQyVGpeCjlCovoECdZ1f-21" value="Main" style="swimlane;fontStyle=1;align=center;verticalAlign=top;childLayout=stackLayout;horizontal=1;startSize=26;horizontalStack=0;resizeParent=1;resizeParentMax=0;resizeLast=0;collapsible=1;marginBottom=0;whiteSpace=wrap;html=1;" vertex="1" parent="1">
          <mxGeometry x="-380" y="-1095" width="330" height="720" as="geometry" />
        </mxCell>
        <mxCell id="tQyVGpeCjlCovoECdZ1f-22" value="&lt;pre&gt;- friendsModel: DefaultListModel&amp;lt;User&amp;gt; &lt;br/&gt;- friendsList: JList&amp;lt;User&amp;gt;   &lt;br/&gt;- backFromFriendsBtn: JButton&lt;br/&gt;- friendsCtrl: FriendsController &lt;br/&gt;- currentUser: User          &lt;br/&gt;- foodCtrl: FoodSearchController &lt;br/&gt;- cardLayout: CardLayout     &lt;br/&gt;- contentPanel: JPanel       &lt;br/&gt;- prepareDishPanel: PrepareDishPanel &lt;br/&gt;- ratingPanel: RatingPanel   &lt;br/&gt;- introPanel: IntroPanel     &lt;br/&gt;- mainAppPanel: MainAppPanel &lt;br/&gt;- orderIngredientsPanel: OrderIngredientsPanel &lt;br/&gt;- logFishPanel: LogFishPanel &lt;br/&gt;- weatherReportPanel: WeatherReportPanel &lt;br/&gt;- baitSearchPanel: BaitSearchPanel &lt;br/&gt;- friendsPanel: FriendsPanel &lt;br/&gt;- recipeSearchPanel: RecipeSearchPanel &lt;br/&gt;- editProfilePanel: EditProfilePanel &lt;br/&gt;- orderFoodPanel: OrderFoodGui &lt;/pre&gt;" style="text;strokeColor=none;fillColor=none;align=left;verticalAlign=top;spacingLeft=4;spacingRight=4;overflow=hidden;rotatable=0;points=[[0,0.5],[1,0.5]];portConstraint=eastwest;whiteSpace=wrap;html=1;" vertex="1" parent="tQyVGpeCjlCovoECdZ1f-21">
          <mxGeometry y="26" width="330" height="324" as="geometry" />
        </mxCell>
        <mxCell id="tQyVGpeCjlCovoECdZ1f-23" value="" style="line;strokeWidth=1;fillColor=none;align=left;verticalAlign=middle;spacingTop=-1;spacingLeft=3;spacingRight=3;rotatable=0;labelPosition=right;points=[];portConstraint=eastwest;strokeColor=inherit;" vertex="1" parent="tQyVGpeCjlCovoECdZ1f-21">
          <mxGeometry y="350" width="330" height="8" as="geometry" />
        </mxCell>
        <mxCell id="tQyVGpeCjlCovoECdZ1f-24" value="&lt;pre&gt;+ Main(): Constructor        &lt;br/&gt;+ refreshFriendsList(): void &lt;br/&gt;+ addPanel(JPanel, String): void &lt;br/&gt;+ showPanel(String): void    &lt;br/&gt;+ getCardLayout(): CardLayout&lt;br/&gt;+ getContentPanel(): JPanel  &lt;br/&gt;+ getFriendsController(): FriendsController &lt;br/&gt;+ getFoodController(): FoodSearchController &lt;br/&gt;+ getCurrentUser(): User     &lt;br/&gt;+ getRatingPanel(): String   &lt;br/&gt;+ setCurrentUser(User): void &lt;br/&gt;+ updateUserProfileDisplay(): void &lt;br/&gt;+ getPrepareDishPanel(): String &lt;br/&gt;+ getOrderFoodPanel(): String&lt;br/&gt;+ getIntroPanel(): String    &lt;br/&gt;+ getMainAppPanel(): String  &lt;br/&gt;+ getOrderIngredientsPanel(): String &lt;br/&gt;+ getLogFishPanel(): String  &lt;br/&gt;+ getWeatherReportPanel(): String &lt;br/&gt;+ getFriendsPanel(): String  &lt;br/&gt;+ getEditProfilePanel(): String &lt;br/&gt;+ getRecipeSearchPanel(): String&lt;/pre&gt;" style="text;strokeColor=none;fillColor=none;align=left;verticalAlign=top;spacingLeft=4;spacingRight=4;overflow=hidden;rotatable=0;points=[[0,0.5],[1,0.5]];portConstraint=eastwest;whiteSpace=wrap;html=1;" vertex="1" parent="tQyVGpeCjlCovoECdZ1f-21">
          <mxGeometry y="358" width="330" height="362" as="geometry" />
        </mxCell>
        <mxCell id="tQyVGpeCjlCovoECdZ1f-25" value="MainAppPanel" style="swimlane;fontStyle=1;align=center;verticalAlign=top;childLayout=stackLayout;horizontal=1;startSize=26;horizontalStack=0;resizeParent=1;resizeParentMax=0;resizeLast=0;collapsible=1;marginBottom=0;whiteSpace=wrap;html=1;" vertex="1" parent="1">
          <mxGeometry x="-940" y="-500" width="390" height="430" as="geometry" />
        </mxCell>
        <mxCell id="tQyVGpeCjlCovoECdZ1f-26" value="&lt;pre&gt;- cardLayout: CardLayout     &lt;br/&gt;- contentPanel: JPanel       &lt;br/&gt;- parentMain: Main           &lt;br/&gt;- INTRO_PANEL: String        &lt;br/&gt;- ORDER_INGREDIENTS_PANEL: String &lt;br/&gt;- LOG_FISH_PANEL: String     &lt;br/&gt;- WEATHER_REPORT_PANEL: String &lt;br/&gt;- BAIT_SEARCH_PANEL: String  &lt;br/&gt;- VIEW_FRIENDS_PANEL: String &lt;br/&gt;- EDIT_PROFILE_PANEL: String &lt;br/&gt;- RATING_PANEL: String       &lt;br/&gt;- ORDER_FOOD_PANEL: String   &lt;br/&gt;- RECIPE_SEARCH_PANEL: String &lt;br/&gt;- PREPARE_DISH_PANEL: String &lt;br/&gt;- jLabel3: JLabel            &lt;br/&gt;- jButton2–12: JButton       &lt;br/&gt;- jButtonViewFriends: JButton&lt;br/&gt;- usernameLabel: JLabel      &lt;br/&gt;- phoneLabel: JLabel         &lt;br/&gt;- roleLabel: JLabel&lt;/pre&gt;" style="text;strokeColor=none;fillColor=none;align=left;verticalAlign=top;spacingLeft=4;spacingRight=4;overflow=hidden;rotatable=0;points=[[0,0.5],[1,0.5]];portConstraint=eastwest;whiteSpace=wrap;html=1;" vertex="1" parent="tQyVGpeCjlCovoECdZ1f-25">
          <mxGeometry y="26" width="390" height="324" as="geometry" />
        </mxCell>
        <mxCell id="tQyVGpeCjlCovoECdZ1f-27" value="" style="line;strokeWidth=1;fillColor=none;align=left;verticalAlign=middle;spacingTop=-1;spacingLeft=3;spacingRight=3;rotatable=0;labelPosition=right;points=[];portConstraint=eastwest;strokeColor=inherit;" vertex="1" parent="tQyVGpeCjlCovoECdZ1f-25">
          <mxGeometry y="350" width="390" height="8" as="geometry" />
        </mxCell>
        <mxCell id="tQyVGpeCjlCovoECdZ1f-28" value="&lt;pre&gt;+ MainAppPanel(CardLayout, JPanel, Main): Constructor &lt;br/&gt;+ updateProfileDisplay(): void &lt;/pre&gt;" style="text;strokeColor=none;fillColor=none;align=left;verticalAlign=top;spacingLeft=4;spacingRight=4;overflow=hidden;rotatable=0;points=[[0,0.5],[1,0.5]];portConstraint=eastwest;whiteSpace=wrap;html=1;" vertex="1" parent="tQyVGpeCjlCovoECdZ1f-25">
          <mxGeometry y="358" width="390" height="72" as="geometry" />
        </mxCell>
        <mxCell id="tQyVGpeCjlCovoECdZ1f-29" value="Rest Customer" style="swimlane;fontStyle=1;align=center;verticalAlign=top;childLayout=stackLayout;horizontal=1;startSize=26;horizontalStack=0;resizeParent=1;resizeParentMax=0;resizeLast=0;collapsible=1;marginBottom=0;whiteSpace=wrap;html=1;" vertex="1" parent="1">
          <mxGeometry x="300" y="-990" width="160" height="34" as="geometry" />
        </mxCell>
        <mxCell id="tQyVGpeCjlCovoECdZ1f-30" value="" style="line;strokeWidth=1;fillColor=none;align=left;verticalAlign=middle;spacingTop=-1;spacingLeft=3;spacingRight=3;rotatable=0;labelPosition=right;points=[];portConstraint=eastwest;strokeColor=inherit;" vertex="1" parent="tQyVGpeCjlCovoECdZ1f-29">
          <mxGeometry y="26" width="160" height="8" as="geometry" />
        </mxCell>
        <mxCell id="tQyVGpeCjlCovoECdZ1f-32" value="" style="endArrow=none;html=1;edgeStyle=orthogonalEdgeStyle;rounded=0;exitX=0.001;exitY=0.29;exitDx=0;exitDy=0;entryX=0.997;entryY=0.783;entryDx=0;entryDy=0;entryPerimeter=0;exitPerimeter=0;" edge="1" parent="1" source="tQyVGpeCjlCovoECdZ1f-24" target="tQyVGpeCjlCovoECdZ1f-26">
          <mxGeometry relative="1" as="geometry">
            <mxPoint x="264.22" y="-556.5140000000002" as="sourcePoint" />
            <mxPoint x="-49.99999999999976" y="-583.9719999999999" as="targetPoint" />
          </mxGeometry>
        </mxCell>
        <mxCell id="tQyVGpeCjlCovoECdZ1f-33" value="Shows" style="edgeLabel;html=1;align=center;verticalAlign=middle;resizable=0;points=[];" vertex="1" connectable="0" parent="tQyVGpeCjlCovoECdZ1f-32">
          <mxGeometry x="0.025" y="-6" relative="1" as="geometry">
            <mxPoint as="offset" />
          </mxGeometry>
        </mxCell>
        <mxCell id="tQyVGpeCjlCovoECdZ1f-34" value="1" style="endArrow=open;html=1;endSize=12;startArrow=diamondThin;startSize=14;startFill=0;edgeStyle=orthogonalEdgeStyle;align=left;verticalAlign=bottom;rounded=0;entryX=0;entryY=0.75;entryDx=0;entryDy=0;fillColor=#828282;strokeColor=light-dark(#000000,#00FF00);exitX=0.449;exitY=1.017;exitDx=0;exitDy=0;exitPerimeter=0;" edge="1" parent="1" source="tQyVGpeCjlCovoECdZ1f-8" target="tQyVGpeCjlCovoECdZ1f-361">
          <mxGeometry x="-1" y="3" relative="1" as="geometry">
            <mxPoint x="-310" y="-20" as="sourcePoint" />
            <mxPoint x="20" y="180.05200000000013" as="targetPoint" />
            <Array as="points">
              <mxPoint x="-309" y="220" />
              <mxPoint x="-80" y="220" />
              <mxPoint x="-80" y="490" />
              <mxPoint x="1890" y="490" />
              <mxPoint x="1890" y="1198" />
            </Array>
          </mxGeometry>
        </mxCell>
        <mxCell id="tQyVGpeCjlCovoECdZ1f-41" value="&lt;b&gt;0..*&lt;/b&gt;" style="text;html=1;align=center;verticalAlign=middle;resizable=0;points=[];autosize=1;strokeColor=none;fillColor=none;" vertex="1" parent="1">
          <mxGeometry x="970" y="138" width="40" height="30" as="geometry" />
        </mxCell>
        <mxCell id="tQyVGpeCjlCovoECdZ1f-126" value="Weather Report Page" style="swimlane;fontStyle=1;align=center;verticalAlign=top;childLayout=stackLayout;horizontal=1;startSize=26;horizontalStack=0;resizeParent=1;resizeParentMax=0;resizeLast=0;collapsible=1;marginBottom=0;whiteSpace=wrap;html=1;" vertex="1" parent="1">
          <mxGeometry x="980" y="1270" width="280" height="250" as="geometry" />
        </mxCell>
        <mxCell id="tQyVGpeCjlCovoECdZ1f-127" value="&lt;pre&gt;- weatherDetails: WeatherDetails &lt;br/&gt;- cardLayout: CardLayout     &lt;br/&gt;- contentPanel: JPanel &lt;/pre&gt;" style="text;strokeColor=none;fillColor=none;align=left;verticalAlign=top;spacingLeft=4;spacingRight=4;overflow=hidden;rotatable=0;points=[[0,0.5],[1,0.5]];portConstraint=eastwest;whiteSpace=wrap;html=1;" vertex="1" parent="tQyVGpeCjlCovoECdZ1f-126">
          <mxGeometry y="26" width="280" height="74" as="geometry" />
        </mxCell>
        <mxCell id="tQyVGpeCjlCovoECdZ1f-128" value="" style="line;strokeWidth=1;fillColor=none;align=left;verticalAlign=middle;spacingTop=-1;spacingLeft=3;spacingRight=3;rotatable=0;labelPosition=right;points=[];portConstraint=eastwest;strokeColor=inherit;" vertex="1" parent="tQyVGpeCjlCovoECdZ1f-126">
          <mxGeometry y="100" width="280" height="8" as="geometry" />
        </mxCell>
        <mxCell id="tQyVGpeCjlCovoECdZ1f-129" value="&lt;pre&gt;+ WeatherReportPage()        &lt;br/&gt;+ fetchWeatherInfo(): void   &lt;br/&gt;+ cardLayoutShow(): void     &lt;br/&gt;+ getWeatherDetails(): WeatherDetails &lt;br/&gt;+ setWeatherDetails(WeatherDetails): void &lt;br/&gt;+ printWeatherInfo(): void   &lt;br/&gt;+ ensureWeatherData(): void&lt;/pre&gt;" style="text;strokeColor=none;fillColor=none;align=left;verticalAlign=top;spacingLeft=4;spacingRight=4;overflow=hidden;rotatable=0;points=[[0,0.5],[1,0.5]];portConstraint=eastwest;whiteSpace=wrap;html=1;" vertex="1" parent="tQyVGpeCjlCovoECdZ1f-126">
          <mxGeometry y="108" width="280" height="142" as="geometry" />
        </mxCell>
        <mxCell id="tQyVGpeCjlCovoECdZ1f-130" value="Weather Details" style="swimlane;fontStyle=1;align=center;verticalAlign=top;childLayout=stackLayout;horizontal=1;startSize=26;horizontalStack=0;resizeParent=1;resizeParentMax=0;resizeLast=0;collapsible=1;marginBottom=0;whiteSpace=wrap;html=1;" vertex="1" parent="1">
          <mxGeometry x="1410" y="1200" width="240" height="410" as="geometry" />
        </mxCell>
        <mxCell id="tQyVGpeCjlCovoECdZ1f-131" value="&lt;pre&gt;- city: String               &lt;br/&gt;- apiKey: String             &lt;br/&gt;- temperature: double        &lt;br/&gt;- weatherType: String        &lt;br/&gt;- date: String               &lt;br/&gt;- isGood: boolean            &lt;br/&gt;- dataFetched: boolean &lt;/pre&gt;" style="text;strokeColor=none;fillColor=none;align=left;verticalAlign=top;spacingLeft=4;spacingRight=4;overflow=hidden;rotatable=0;points=[[0,0.5],[1,0.5]];portConstraint=eastwest;whiteSpace=wrap;html=1;" vertex="1" parent="tQyVGpeCjlCovoECdZ1f-130">
          <mxGeometry y="26" width="240" height="134" as="geometry" />
        </mxCell>
        <mxCell id="tQyVGpeCjlCovoECdZ1f-132" value="" style="line;strokeWidth=1;fillColor=none;align=left;verticalAlign=middle;spacingTop=-1;spacingLeft=3;spacingRight=3;rotatable=0;labelPosition=right;points=[];portConstraint=eastwest;strokeColor=inherit;" vertex="1" parent="tQyVGpeCjlCovoECdZ1f-130">
          <mxGeometry y="160" width="240" height="8" as="geometry" />
        </mxCell>
        <mxCell id="tQyVGpeCjlCovoECdZ1f-133" value="&lt;pre&gt;+ WeatherDetails()           &lt;br/&gt;+ getWeatherDetails(): void  &lt;br/&gt;+ isGoodORBad(): boolean     &lt;br/&gt;+ setGoodORBad(boolean): void&lt;br/&gt;+ getTemperature(): double   &lt;br/&gt;+ getWeatherType(): String   &lt;br/&gt;+ getDate(): String          &lt;br/&gt;+ fetchDate(): void          &lt;br/&gt;+ isDataFetched(): boolean   &lt;br/&gt;+ setTemperature(double): void&lt;br/&gt;+ setWeatherType(String): void&lt;br/&gt;+ setDate(String): void      &lt;br/&gt;+ resetData(): void          &lt;br/&gt;+ printCurrentState(): void  &lt;/pre&gt;" style="text;strokeColor=none;fillColor=none;align=left;verticalAlign=top;spacingLeft=4;spacingRight=4;overflow=hidden;rotatable=0;points=[[0,0.5],[1,0.5]];portConstraint=eastwest;whiteSpace=wrap;html=1;" vertex="1" parent="tQyVGpeCjlCovoECdZ1f-130">
          <mxGeometry y="168" width="240" height="242" as="geometry" />
        </mxCell>
        <mxCell id="tQyVGpeCjlCovoECdZ1f-134" value="" style="endArrow=none;startArrow=none;endFill=0;startFill=0;endSize=8;html=1;verticalAlign=bottom;labelBackgroundColor=none;strokeWidth=3;rounded=0;exitX=0.996;exitY=1.065;exitDx=0;exitDy=0;exitPerimeter=0;entryX=0;entryY=0.5;entryDx=0;entryDy=0;" edge="1" parent="1" source="tQyVGpeCjlCovoECdZ1f-127" target="tQyVGpeCjlCovoECdZ1f-131">
          <mxGeometry width="160" relative="1" as="geometry">
            <mxPoint x="1360" y="1610" as="sourcePoint" />
            <mxPoint x="1520" y="1610" as="targetPoint" />
          </mxGeometry>
        </mxCell>
        <mxCell id="tQyVGpeCjlCovoECdZ1f-135" value="Good Weather Report Page" style="swimlane;fontStyle=1;align=center;verticalAlign=top;childLayout=stackLayout;horizontal=1;startSize=26;horizontalStack=0;resizeParent=1;resizeParentMax=0;resizeLast=0;collapsible=1;marginBottom=0;whiteSpace=wrap;html=1;" vertex="1" parent="1">
          <mxGeometry x="650" y="1730" width="300" height="520" as="geometry" />
        </mxCell>
        <mxCell id="tQyVGpeCjlCovoECdZ1f-136" value="&lt;pre&gt;- weatherDetails: WeatherDetails &lt;br&gt;- cardLayout: CardLayout     &lt;br&gt;- contentPanel: JPanel       &lt;br&gt;- backgroundColor: String    &lt;br&gt;- emojiIcon: String          &lt;br&gt;- fontStyle: String          &lt;br&gt;- titleLabel: JLabel         &lt;br&gt;- weatherIconLabel: JLabel   &lt;br&gt;- temperatureLabel: JLabel   &lt;br&gt;- dateLabel: JLabel          &lt;br&gt;- weatherTypeLabel: JLabel   &lt;br&gt;- fishingAdviceLabel: JLabel &lt;br&gt;- backButton: JButton        &lt;br&gt;- programTripButton: JButton &lt;/pre&gt;" style="text;strokeColor=none;fillColor=none;align=left;verticalAlign=top;spacingLeft=4;spacingRight=4;overflow=hidden;rotatable=0;points=[[0,0.5],[1,0.5]];portConstraint=eastwest;whiteSpace=wrap;html=1;" vertex="1" parent="tQyVGpeCjlCovoECdZ1f-135">
          <mxGeometry y="26" width="300" height="234" as="geometry" />
        </mxCell>
        <mxCell id="tQyVGpeCjlCovoECdZ1f-137" value="" style="line;strokeWidth=1;fillColor=none;align=left;verticalAlign=middle;spacingTop=-1;spacingLeft=3;spacingRight=3;rotatable=0;labelPosition=right;points=[];portConstraint=eastwest;strokeColor=inherit;" vertex="1" parent="tQyVGpeCjlCovoECdZ1f-135">
          <mxGeometry y="260" width="300" height="8" as="geometry" />
        </mxCell>
        <mxCell id="tQyVGpeCjlCovoECdZ1f-138" value="&lt;pre&gt;+ GoodWeatherReportPage()    &lt;br/&gt;+ programFishingTrip(): void &lt;br/&gt;+ fetchWeatherInfo(): void   &lt;br/&gt;+ cardLayoutShow(): void     &lt;br/&gt;+ presentInfoGOOD(): void    &lt;br/&gt;+ getWeatherDetails(): WeatherDetails &lt;br/&gt;+ setWeatherDetails(WeatherDetails): void &lt;br/&gt;+ printWeatherInfo(): void   &lt;br/&gt;+ ensureWeatherData(): void  &lt;br/&gt;+ getBackgroundColor(): String&lt;br/&gt;+ setBackgroundColor(String): void &lt;br/&gt;+ getEmojiIcon(): String     &lt;br/&gt;+ setEmojiIcon(String): void &lt;br/&gt;+ getFontStyle(): String     &lt;br/&gt;+ setFontStyle(String): void &lt;/pre&gt;" style="text;strokeColor=none;fillColor=none;align=left;verticalAlign=top;spacingLeft=4;spacingRight=4;overflow=hidden;rotatable=0;points=[[0,0.5],[1,0.5]];portConstraint=eastwest;whiteSpace=wrap;html=1;" vertex="1" parent="tQyVGpeCjlCovoECdZ1f-135">
          <mxGeometry y="268" width="300" height="252" as="geometry" />
        </mxCell>
        <mxCell id="tQyVGpeCjlCovoECdZ1f-139" value="Bad Weather Report Page" style="swimlane;fontStyle=1;align=center;verticalAlign=top;childLayout=stackLayout;horizontal=1;startSize=26;horizontalStack=0;resizeParent=1;resizeParentMax=0;resizeLast=0;collapsible=1;marginBottom=0;whiteSpace=wrap;html=1;" vertex="1" parent="1">
          <mxGeometry x="1190" y="1730" width="250" height="410" as="geometry" />
        </mxCell>
        <mxCell id="tQyVGpeCjlCovoECdZ1f-140" value="&lt;pre&gt;- backgroundColor: String    &lt;br/&gt;- emojiIcon: String          &lt;br/&gt;- fontStyle: String          &lt;br/&gt;- titleLabel: JLabel         &lt;br/&gt;- weatherIconLabel: JLabel   &lt;br/&gt;- temperatureLabel: JLabel   &lt;br/&gt;- dateLabel: JLabel          &lt;br/&gt;- weatherTypeLabel: JLabel   &lt;br/&gt;- fishingAdviceLabel: JLabel &lt;br/&gt;- backButton: JButton &lt;/pre&gt;" style="text;strokeColor=none;fillColor=none;align=left;verticalAlign=top;spacingLeft=4;spacingRight=4;overflow=hidden;rotatable=0;points=[[0,0.5],[1,0.5]];portConstraint=eastwest;whiteSpace=wrap;html=1;" vertex="1" parent="tQyVGpeCjlCovoECdZ1f-139">
          <mxGeometry y="26" width="250" height="194" as="geometry" />
        </mxCell>
        <mxCell id="tQyVGpeCjlCovoECdZ1f-141" value="" style="line;strokeWidth=1;fillColor=none;align=left;verticalAlign=middle;spacingTop=-1;spacingLeft=3;spacingRight=3;rotatable=0;labelPosition=right;points=[];portConstraint=eastwest;strokeColor=inherit;" vertex="1" parent="tQyVGpeCjlCovoECdZ1f-139">
          <mxGeometry y="220" width="250" height="8" as="geometry" />
        </mxCell>
        <mxCell id="tQyVGpeCjlCovoECdZ1f-142" value="&lt;pre&gt;+ BadWeatherReportPage()     &lt;br/&gt;+ cardLayoutShow(): void     &lt;br/&gt;+ presentInfoBAD(): void     &lt;br/&gt;+ getBackgroundColor(): String&lt;br/&gt;+ setBackgroundColor(String): void &lt;br/&gt;+ getEmojiIcon(): String     &lt;br/&gt;+ setEmojiIcon(String): void &lt;br/&gt;+ getFontStyle(): String     &lt;br/&gt;+ setFontStyle(String): void &lt;/pre&gt;" style="text;strokeColor=none;fillColor=none;align=left;verticalAlign=top;spacingLeft=4;spacingRight=4;overflow=hidden;rotatable=0;points=[[0,0.5],[1,0.5]];portConstraint=eastwest;whiteSpace=wrap;html=1;" vertex="1" parent="tQyVGpeCjlCovoECdZ1f-139">
          <mxGeometry y="228" width="250" height="182" as="geometry" />
        </mxCell>
        <mxCell id="tQyVGpeCjlCovoECdZ1f-143" value="" style="endArrow=block;endSize=10;endFill=0;shadow=0;strokeWidth=1;rounded=0;curved=0;edgeStyle=elbowEdgeStyle;elbow=vertical;exitX=0.5;exitY=0;exitDx=0;exitDy=0;" edge="1" parent="1" source="tQyVGpeCjlCovoECdZ1f-139">
          <mxGeometry width="160" relative="1" as="geometry">
            <mxPoint x="1182" y="1612" as="sourcePoint" />
            <mxPoint x="1106" y="1520" as="targetPoint" />
            <Array as="points">
              <mxPoint x="1090" y="1560" />
            </Array>
          </mxGeometry>
        </mxCell>
        <mxCell id="tQyVGpeCjlCovoECdZ1f-144" value="" style="endArrow=block;endSize=10;endFill=0;shadow=0;strokeWidth=1;rounded=0;curved=0;edgeStyle=elbowEdgeStyle;elbow=vertical;exitX=0.5;exitY=0;exitDx=0;exitDy=0;entryX=0.321;entryY=1;entryDx=0;entryDy=0;entryPerimeter=0;" edge="1" parent="1" source="tQyVGpeCjlCovoECdZ1f-135" target="tQyVGpeCjlCovoECdZ1f-129">
          <mxGeometry width="160" relative="1" as="geometry">
            <mxPoint x="992" y="1592" as="sourcePoint" />
            <mxPoint x="1040" y="1520" as="targetPoint" />
            <Array as="points">
              <mxPoint x="990" y="1560" />
            </Array>
          </mxGeometry>
        </mxCell>
        <mxCell id="tQyVGpeCjlCovoECdZ1f-149" value="Search Page" style="swimlane;fontStyle=1;align=center;verticalAlign=top;childLayout=stackLayout;horizontal=1;startSize=26;horizontalStack=0;resizeParent=1;resizeParentMax=0;resizeLast=0;collapsible=1;marginBottom=0;whiteSpace=wrap;html=1;" vertex="1" parent="1">
          <mxGeometry x="-70" y="1180" width="240" height="260" as="geometry" />
        </mxCell>
        <mxCell id="tQyVGpeCjlCovoECdZ1f-150" value="&lt;pre&gt;- searchQuery: String        &lt;br&gt;- baitResults: BaitResults   &lt;br&gt;- searchField: JTextField    &lt;br&gt;- searchButton: JButton &lt;/pre&gt;" style="text;strokeColor=none;fillColor=none;align=left;verticalAlign=top;spacingLeft=4;spacingRight=4;overflow=hidden;rotatable=0;points=[[0,0.5],[1,0.5]];portConstraint=eastwest;whiteSpace=wrap;html=1;" vertex="1" parent="tQyVGpeCjlCovoECdZ1f-149">
          <mxGeometry y="26" width="240" height="84" as="geometry" />
        </mxCell>
        <mxCell id="tQyVGpeCjlCovoECdZ1f-151" value="" style="line;strokeWidth=1;fillColor=none;align=left;verticalAlign=middle;spacingTop=-1;spacingLeft=3;spacingRight=3;rotatable=0;labelPosition=right;points=[];portConstraint=eastwest;strokeColor=inherit;" vertex="1" parent="tQyVGpeCjlCovoECdZ1f-149">
          <mxGeometry y="110" width="240" height="8" as="geometry" />
        </mxCell>
        <mxCell id="tQyVGpeCjlCovoECdZ1f-152" value="&lt;pre&gt;+ SearchPage()               &lt;br/&gt;+ enterSearchQuery(String): void &lt;br/&gt;+ submitSearch(): void       &lt;br/&gt;+ fetchBaitDetails(): void   &lt;br/&gt;+ showResults(List&amp;lt;Bait&amp;gt;): void &lt;br/&gt;+ getBaitResults(): BaitResults &lt;br/&gt;+ getSearchQuery(): String   &lt;/pre&gt;" style="text;strokeColor=none;fillColor=none;align=left;verticalAlign=top;spacingLeft=4;spacingRight=4;overflow=hidden;rotatable=0;points=[[0,0.5],[1,0.5]];portConstraint=eastwest;whiteSpace=wrap;html=1;" vertex="1" parent="tQyVGpeCjlCovoECdZ1f-149">
          <mxGeometry y="118" width="240" height="142" as="geometry" />
        </mxCell>
        <mxCell id="tQyVGpeCjlCovoECdZ1f-153" value="Bait Results" style="swimlane;fontStyle=1;align=center;verticalAlign=top;childLayout=stackLayout;horizontal=1;startSize=26;horizontalStack=0;resizeParent=1;resizeParentMax=0;resizeLast=0;collapsible=1;marginBottom=0;whiteSpace=wrap;html=1;" vertex="1" parent="1">
          <mxGeometry x="50" y="790" width="260" height="248" as="geometry" />
        </mxCell>
        <mxCell id="tQyVGpeCjlCovoECdZ1f-154" value="&lt;pre&gt;- dao: dao.BaitDao           &lt;br/&gt;- baitList: List&amp;lt;Bait&amp;gt;&lt;/pre&gt;" style="text;strokeColor=none;fillColor=none;align=left;verticalAlign=top;spacingLeft=4;spacingRight=4;overflow=hidden;rotatable=0;points=[[0,0.5],[1,0.5]];portConstraint=eastwest;whiteSpace=wrap;html=1;" vertex="1" parent="tQyVGpeCjlCovoECdZ1f-153">
          <mxGeometry y="26" width="260" height="64" as="geometry" />
        </mxCell>
        <mxCell id="tQyVGpeCjlCovoECdZ1f-155" value="" style="line;strokeWidth=1;fillColor=none;align=left;verticalAlign=middle;spacingTop=-1;spacingLeft=3;spacingRight=3;rotatable=0;labelPosition=right;points=[];portConstraint=eastwest;strokeColor=inherit;" vertex="1" parent="tQyVGpeCjlCovoECdZ1f-153">
          <mxGeometry y="90" width="260" height="8" as="geometry" />
        </mxCell>
        <mxCell id="tQyVGpeCjlCovoECdZ1f-156" value="&lt;pre&gt;+ BaitResults()              &lt;br/&gt;+ reload(): void             &lt;br/&gt;+ getResults(): List&amp;lt;Bait&amp;gt;   &lt;br/&gt;+ filterByCheapest(): List&amp;lt;Bait&amp;gt; &lt;br/&gt;+ filterByEffectiveness(): List&amp;lt;Bait&amp;gt; &lt;br/&gt;+ filterAlphabetically(): List&amp;lt;Bait&amp;gt; &lt;br/&gt;+ addBait(Bait): void        &lt;br/&gt;+ searchByName(String): List&amp;lt;Bait&amp;gt; &lt;br/&gt;&lt;/pre&gt;" style="text;strokeColor=none;fillColor=none;align=left;verticalAlign=top;spacingLeft=4;spacingRight=4;overflow=hidden;rotatable=0;points=[[0,0.5],[1,0.5]];portConstraint=eastwest;whiteSpace=wrap;html=1;" vertex="1" parent="tQyVGpeCjlCovoECdZ1f-153">
          <mxGeometry y="98" width="260" height="150" as="geometry" />
        </mxCell>
        <mxCell id="tQyVGpeCjlCovoECdZ1f-157" value="Sorting Page" style="swimlane;fontStyle=1;align=center;verticalAlign=top;childLayout=stackLayout;horizontal=1;startSize=26;horizontalStack=0;resizeParent=1;resizeParentMax=0;resizeLast=0;collapsible=1;marginBottom=0;whiteSpace=wrap;html=1;" vertex="1" parent="1">
          <mxGeometry x="380" y="850" width="270" height="300" as="geometry" />
        </mxCell>
        <mxCell id="tQyVGpeCjlCovoECdZ1f-158" value="&lt;pre&gt;- selectedFilter: String     &lt;br/&gt;- baitResults: BaitResults   &lt;br/&gt;- filterComboBox: JComboBox&amp;lt;String&amp;gt; &lt;br/&gt;- applyButton: JButton   &lt;/pre&gt;" style="text;strokeColor=none;fillColor=none;align=left;verticalAlign=top;spacingLeft=4;spacingRight=4;overflow=hidden;rotatable=0;points=[[0,0.5],[1,0.5]];portConstraint=eastwest;whiteSpace=wrap;html=1;" vertex="1" parent="tQyVGpeCjlCovoECdZ1f-157">
          <mxGeometry y="26" width="270" height="74" as="geometry" />
        </mxCell>
        <mxCell id="tQyVGpeCjlCovoECdZ1f-159" value="&lt;pre&gt;- selectedFilter: String     &lt;br/&gt;- baitResults: BaitResults   &lt;br/&gt;- filterComboBox: JComboBox&amp;lt;String&amp;gt; &lt;br/&gt;- applyButton: JButton   &lt;/pre&gt;" style="text;strokeColor=none;fillColor=none;align=left;verticalAlign=top;spacingLeft=4;spacingRight=4;overflow=hidden;rotatable=0;points=[[0,0.5],[1,0.5]];portConstraint=eastwest;whiteSpace=wrap;html=1;" vertex="1" parent="tQyVGpeCjlCovoECdZ1f-157">
          <mxGeometry y="100" width="270" height="84" as="geometry" />
        </mxCell>
        <mxCell id="tQyVGpeCjlCovoECdZ1f-160" value="" style="line;strokeWidth=1;fillColor=none;align=left;verticalAlign=middle;spacingTop=-1;spacingLeft=3;spacingRight=3;rotatable=0;labelPosition=right;points=[];portConstraint=eastwest;strokeColor=inherit;" vertex="1" parent="tQyVGpeCjlCovoECdZ1f-157">
          <mxGeometry y="184" width="270" height="8" as="geometry" />
        </mxCell>
        <mxCell id="tQyVGpeCjlCovoECdZ1f-161" value="&lt;pre&gt;+ SortingPage(BaitResults)   &lt;br/&gt;+ chooseFilter(String): void &lt;br/&gt;+ applyFilter(): void        &lt;br/&gt;+ showFilteredResults(List&amp;lt;Bait&amp;gt;): void &lt;br/&gt;+ getSelectedFilter(): String&lt;br/&gt;&lt;/pre&gt;" style="text;strokeColor=none;fillColor=none;align=left;verticalAlign=top;spacingLeft=4;spacingRight=4;overflow=hidden;rotatable=0;points=[[0,0.5],[1,0.5]];portConstraint=eastwest;whiteSpace=wrap;html=1;" vertex="1" parent="tQyVGpeCjlCovoECdZ1f-157">
          <mxGeometry y="192" width="270" height="108" as="geometry" />
        </mxCell>
        <mxCell id="tQyVGpeCjlCovoECdZ1f-162" value="Result Page" style="swimlane;fontStyle=1;align=center;verticalAlign=top;childLayout=stackLayout;horizontal=1;startSize=26;horizontalStack=0;resizeParent=1;resizeParentMax=0;resizeLast=0;collapsible=1;marginBottom=0;whiteSpace=wrap;html=1;" vertex="1" parent="1">
          <mxGeometry x="450" y="1300" width="160" height="110" as="geometry" />
        </mxCell>
        <mxCell id="tQyVGpeCjlCovoECdZ1f-163" value="-displayedResults : List" style="text;strokeColor=none;fillColor=none;align=left;verticalAlign=top;spacingLeft=4;spacingRight=4;overflow=hidden;rotatable=0;points=[[0,0.5],[1,0.5]];portConstraint=eastwest;whiteSpace=wrap;html=1;" vertex="1" parent="tQyVGpeCjlCovoECdZ1f-162">
          <mxGeometry y="26" width="160" height="26" as="geometry" />
        </mxCell>
        <mxCell id="tQyVGpeCjlCovoECdZ1f-164" value="" style="line;strokeWidth=1;fillColor=none;align=left;verticalAlign=middle;spacingTop=-1;spacingLeft=3;spacingRight=3;rotatable=0;labelPosition=right;points=[];portConstraint=eastwest;strokeColor=inherit;" vertex="1" parent="tQyVGpeCjlCovoECdZ1f-162">
          <mxGeometry y="52" width="160" height="8" as="geometry" />
        </mxCell>
        <mxCell id="tQyVGpeCjlCovoECdZ1f-165" value="&lt;p&gt;+showResults(results : List)&lt;/p&gt;" style="text;strokeColor=none;fillColor=none;align=left;verticalAlign=top;spacingLeft=4;spacingRight=4;overflow=hidden;rotatable=0;points=[[0,0.5],[1,0.5]];portConstraint=eastwest;whiteSpace=wrap;html=1;" vertex="1" parent="tQyVGpeCjlCovoECdZ1f-162">
          <mxGeometry y="60" width="160" height="50" as="geometry" />
        </mxCell>
        <mxCell id="tQyVGpeCjlCovoECdZ1f-166" value="" style="endArrow=none;startArrow=none;endFill=0;startFill=0;endSize=8;html=1;verticalAlign=bottom;labelBackgroundColor=none;strokeWidth=3;rounded=0;entryX=0.461;entryY=-0.009;entryDx=0;entryDy=0;exitX=0.531;exitY=1.016;exitDx=0;exitDy=0;exitPerimeter=0;entryPerimeter=0;" edge="1" parent="1" source="tQyVGpeCjlCovoECdZ1f-161" target="tQyVGpeCjlCovoECdZ1f-162">
          <mxGeometry width="160" relative="1" as="geometry">
            <mxPoint x="428.9200000000002" y="1169.9999999999998" as="sourcePoint" />
            <mxPoint x="351.08000000000004" y="1247.9499999999998" as="targetPoint" />
          </mxGeometry>
        </mxCell>
        <mxCell id="tQyVGpeCjlCovoECdZ1f-167" value="Uses" style="edgeLabel;html=1;align=center;verticalAlign=middle;resizable=0;points=[];" vertex="1" connectable="0" parent="tQyVGpeCjlCovoECdZ1f-166">
          <mxGeometry x="0.003" y="-3" relative="1" as="geometry">
            <mxPoint y="-1" as="offset" />
          </mxGeometry>
        </mxCell>
        <mxCell id="tQyVGpeCjlCovoECdZ1f-168" value="1" style="endArrow=open;html=1;endSize=12;startArrow=diamondThin;startSize=14;startFill=1;align=left;verticalAlign=bottom;rounded=0;entryX=1.01;entryY=0.047;entryDx=0;entryDy=0;entryPerimeter=0;exitX=0.186;exitY=1.014;exitDx=0;exitDy=0;exitPerimeter=0;" edge="1" parent="1" source="tQyVGpeCjlCovoECdZ1f-161" target="tQyVGpeCjlCovoECdZ1f-150">
          <mxGeometry x="-1" y="3" relative="1" as="geometry">
            <mxPoint x="280" y="1280" as="sourcePoint" />
            <mxPoint x="690" y="1110" as="targetPoint" />
            <Array as="points">
              <mxPoint x="430" y="1210" />
            </Array>
          </mxGeometry>
        </mxCell>
        <mxCell id="tQyVGpeCjlCovoECdZ1f-169" value="1" style="endArrow=open;html=1;endSize=12;startArrow=diamondThin;startSize=14;startFill=0;align=left;verticalAlign=bottom;rounded=0;exitX=0.999;exitY=0.292;exitDx=0;exitDy=0;exitPerimeter=0;entryX=0;entryY=0.5;entryDx=0;entryDy=0;" edge="1" parent="1" source="tQyVGpeCjlCovoECdZ1f-152" target="tQyVGpeCjlCovoECdZ1f-163">
          <mxGeometry x="-1" y="3" relative="1" as="geometry">
            <mxPoint x="190" y="1270" as="sourcePoint" />
            <mxPoint x="350" y="1270" as="targetPoint" />
          </mxGeometry>
        </mxCell>
        <mxCell id="tQyVGpeCjlCovoECdZ1f-170" value="" style="endArrow=none;startArrow=none;endFill=0;startFill=0;endSize=8;html=1;verticalAlign=bottom;labelBackgroundColor=none;strokeWidth=3;rounded=0;entryX=0.5;entryY=0;entryDx=0;entryDy=0;exitX=0.505;exitY=1.013;exitDx=0;exitDy=0;exitPerimeter=0;" edge="1" parent="1" source="tQyVGpeCjlCovoECdZ1f-156" target="tQyVGpeCjlCovoECdZ1f-149">
          <mxGeometry width="160" relative="1" as="geometry">
            <mxPoint x="151" y="1110" as="sourcePoint" />
            <mxPoint x="73" y="1188" as="targetPoint" />
          </mxGeometry>
        </mxCell>
        <mxCell id="tQyVGpeCjlCovoECdZ1f-171" value="Uses" style="edgeLabel;html=1;align=center;verticalAlign=middle;resizable=0;points=[];" vertex="1" connectable="0" parent="tQyVGpeCjlCovoECdZ1f-170">
          <mxGeometry x="0.003" y="-3" relative="1" as="geometry">
            <mxPoint y="-1" as="offset" />
          </mxGeometry>
        </mxCell>
        <mxCell id="tQyVGpeCjlCovoECdZ1f-172" value="" style="endArrow=open;shadow=0;strokeWidth=1;rounded=0;endFill=1;elbow=vertical;entryX=0.029;entryY=0.779;entryDx=0;entryDy=0;entryPerimeter=0;" edge="1" parent="1" source="tQyVGpeCjlCovoECdZ1f-150" target="tQyVGpeCjlCovoECdZ1f-22">
          <mxGeometry x="0.5" y="41" relative="1" as="geometry">
            <mxPoint x="-549.8899999999998" y="1474" as="sourcePoint" />
            <mxPoint x="-1430" y="-800" as="targetPoint" />
            <mxPoint x="-40" y="32" as="offset" />
            <Array as="points">
              <mxPoint x="-1040" y="1250" />
              <mxPoint x="-1040" y="-817" />
            </Array>
          </mxGeometry>
        </mxCell>
        <mxCell id="tQyVGpeCjlCovoECdZ1f-173" value="1" style="resizable=0;align=left;verticalAlign=bottom;labelBackgroundColor=none;fontSize=12;" connectable="0" vertex="1" parent="tQyVGpeCjlCovoECdZ1f-172">
          <mxGeometry x="-1" relative="1" as="geometry">
            <mxPoint y="4" as="offset" />
          </mxGeometry>
        </mxCell>
        <mxCell id="tQyVGpeCjlCovoECdZ1f-174" value="1" style="resizable=0;align=right;verticalAlign=bottom;labelBackgroundColor=none;fontSize=12;" connectable="0" vertex="1" parent="tQyVGpeCjlCovoECdZ1f-172">
          <mxGeometry x="1" relative="1" as="geometry">
            <mxPoint x="-39" y="27" as="offset" />
          </mxGeometry>
        </mxCell>
        <mxCell id="tQyVGpeCjlCovoECdZ1f-175" value="Inspects" style="text;html=1;resizable=0;points=[];;align=center;verticalAlign=middle;labelBackgroundColor=none;rounded=0;shadow=0;strokeWidth=1;fontSize=12;" vertex="1" connectable="0" parent="tQyVGpeCjlCovoECdZ1f-172">
          <mxGeometry x="0.5" y="49" relative="1" as="geometry">
            <mxPoint x="17" y="52" as="offset" />
          </mxGeometry>
        </mxCell>
        <mxCell id="tQyVGpeCjlCovoECdZ1f-176" value="Weather Report Panel" style="swimlane;fontStyle=1;align=center;verticalAlign=top;childLayout=stackLayout;horizontal=1;startSize=26;horizontalStack=0;resizeParent=1;resizeParentMax=0;resizeLast=0;collapsible=1;marginBottom=0;whiteSpace=wrap;html=1;" vertex="1" parent="1">
          <mxGeometry x="950" y="560" width="320" height="310" as="geometry" />
        </mxCell>
        <mxCell id="tQyVGpeCjlCovoECdZ1f-177" value="&lt;pre&gt;- cardLayout: CardLayout     &lt;br/&gt;- contentPanel: JPanel       &lt;br/&gt;- weatherDetails: WeatherDetails &lt;br/&gt;- goodWeatherPage: GoodWeatherReportPage &lt;br/&gt;- badWeatherPage: BadWeatherReportPage   &lt;br/&gt;- GOOD_WEATHER_PAGE: String  &lt;br/&gt;- BAD_WEATHER_PAGE: String  &lt;/pre&gt;" style="text;strokeColor=none;fillColor=none;align=left;verticalAlign=top;spacingLeft=4;spacingRight=4;overflow=hidden;rotatable=0;points=[[0,0.5],[1,0.5]];portConstraint=eastwest;whiteSpace=wrap;html=1;" vertex="1" parent="tQyVGpeCjlCovoECdZ1f-176">
          <mxGeometry y="26" width="320" height="134" as="geometry" />
        </mxCell>
        <mxCell id="tQyVGpeCjlCovoECdZ1f-179" value="&lt;pre&gt;+ WeatherReportPanel(CardLayout, JPanel) &lt;br/&gt;+ showWeatherReport(): void  &lt;br/&gt;+ showGoodWeatherPage(): void&lt;br/&gt;+ showBadWeatherPage(): void &lt;br/&gt;+ getWeatherDetails(): WeatherDetails &lt;br/&gt;+ setWeatherDetails(WeatherDetails): void &lt;br/&gt;+ getGoodWeatherPage(): GoodWeatherReportPage &lt;br/&gt;+ getBadWeatherPage(): BadWeatherReportPage &lt;/pre&gt;" style="text;strokeColor=none;fillColor=none;align=left;verticalAlign=top;spacingLeft=4;spacingRight=4;overflow=hidden;rotatable=0;points=[[0,0.5],[1,0.5]];portConstraint=eastwest;whiteSpace=wrap;html=1;" vertex="1" parent="tQyVGpeCjlCovoECdZ1f-176">
          <mxGeometry y="160" width="320" height="142" as="geometry" />
        </mxCell>
        <mxCell id="tQyVGpeCjlCovoECdZ1f-178" value="" style="line;strokeWidth=1;fillColor=none;align=left;verticalAlign=middle;spacingTop=-1;spacingLeft=3;spacingRight=3;rotatable=0;labelPosition=right;points=[];portConstraint=eastwest;strokeColor=inherit;" vertex="1" parent="tQyVGpeCjlCovoECdZ1f-176">
          <mxGeometry y="302" width="320" height="8" as="geometry" />
        </mxCell>
        <mxCell id="tQyVGpeCjlCovoECdZ1f-188" value="AppIntroPanel" style="swimlane;fontStyle=1;align=center;verticalAlign=top;childLayout=stackLayout;horizontal=1;startSize=26;horizontalStack=0;resizeParent=1;resizeParentMax=0;resizeLast=0;collapsible=1;marginBottom=0;whiteSpace=wrap;html=1;" vertex="1" parent="1">
          <mxGeometry x="-1120" y="-1460" width="360" height="260" as="geometry" />
        </mxCell>
        <mxCell id="tQyVGpeCjlCovoECdZ1f-189" value="&lt;pre&gt;- cardLayout: CardLayout     &lt;br/&gt;- contentPanel: JPanel       &lt;br/&gt;- parentMain: Main           &lt;br/&gt;- MAIN_APP_PANEL: String     &lt;br/&gt;- jButton1: JButton          &lt;br/&gt;- jLabel1: JLabel            &lt;br/&gt;- jLabel2: JLabel &lt;/pre&gt;" style="text;strokeColor=none;fillColor=none;align=left;verticalAlign=top;spacingLeft=4;spacingRight=4;overflow=hidden;rotatable=0;points=[[0,0.5],[1,0.5]];portConstraint=eastwest;whiteSpace=wrap;html=1;" vertex="1" parent="tQyVGpeCjlCovoECdZ1f-188">
          <mxGeometry y="26" width="360" height="134" as="geometry" />
        </mxCell>
        <mxCell id="tQyVGpeCjlCovoECdZ1f-190" value="" style="line;strokeWidth=1;fillColor=none;align=left;verticalAlign=middle;spacingTop=-1;spacingLeft=3;spacingRight=3;rotatable=0;labelPosition=right;points=[];portConstraint=eastwest;strokeColor=inherit;" vertex="1" parent="tQyVGpeCjlCovoECdZ1f-188">
          <mxGeometry y="160" width="360" height="8" as="geometry" />
        </mxCell>
        <mxCell id="tQyVGpeCjlCovoECdZ1f-191" value="&lt;pre&gt;+ IntroPanel(CardLayout, JPanel, Main): Constructor &lt;br/&gt;- initComponents(): void     &lt;br/&gt;- jButton1ActionPerformed(ActionEvent): void &lt;/pre&gt;" style="text;strokeColor=none;fillColor=none;align=left;verticalAlign=top;spacingLeft=4;spacingRight=4;overflow=hidden;rotatable=0;points=[[0,0.5],[1,0.5]];portConstraint=eastwest;whiteSpace=wrap;html=1;" vertex="1" parent="tQyVGpeCjlCovoECdZ1f-188">
          <mxGeometry y="168" width="360" height="92" as="geometry" />
        </mxCell>
        <mxCell id="tQyVGpeCjlCovoECdZ1f-193" value="1" style="endArrow=open;html=1;endSize=12;startArrow=diamondThin;startSize=14;startFill=0;align=left;verticalAlign=bottom;rounded=0;entryX=0.048;entryY=-0.006;entryDx=0;entryDy=0;entryPerimeter=0;exitX=0.998;exitY=0.551;exitDx=0;exitDy=0;exitPerimeter=0;" edge="1" parent="1" source="tQyVGpeCjlCovoECdZ1f-191" target="tQyVGpeCjlCovoECdZ1f-21">
          <mxGeometry x="-1" y="3" relative="1" as="geometry">
            <mxPoint x="-680" y="-1240" as="sourcePoint" />
            <mxPoint x="-720" y="-1570" as="targetPoint" />
            <Array as="points">
              <mxPoint x="-364" y="-1240" />
            </Array>
          </mxGeometry>
        </mxCell>
        <mxCell id="tQyVGpeCjlCovoECdZ1f-194" value="1" style="endArrow=open;html=1;endSize=12;startArrow=diamondThin;startSize=14;startFill=1;align=left;verticalAlign=bottom;rounded=0;exitX=0;exitY=0.065;exitDx=0;exitDy=0;exitPerimeter=0;entryX=0.644;entryY=1.013;entryDx=0;entryDy=0;entryPerimeter=0;" edge="1" parent="1" source="tQyVGpeCjlCovoECdZ1f-176" target="tQyVGpeCjlCovoECdZ1f-28">
          <mxGeometry x="-1" y="3" relative="1" as="geometry">
            <mxPoint x="863.6000000000004" y="762.9939999999997" as="sourcePoint" />
            <mxPoint x="-700" y="-410" as="targetPoint" />
            <Array as="points">
              <mxPoint x="-689" y="580" />
            </Array>
          </mxGeometry>
        </mxCell>
        <mxCell id="tQyVGpeCjlCovoECdZ1f-195" value="" style="endArrow=none;startArrow=none;endFill=0;startFill=0;endSize=8;html=1;verticalAlign=bottom;labelBackgroundColor=none;strokeWidth=3;rounded=0;exitX=0.638;exitY=1.029;exitDx=0;exitDy=0;exitPerimeter=0;" edge="1" parent="1" source="tQyVGpeCjlCovoECdZ1f-179">
          <mxGeometry width="160" relative="1" as="geometry">
            <mxPoint x="780" y="1240" as="sourcePoint" />
            <mxPoint x="1150" y="1270" as="targetPoint" />
          </mxGeometry>
        </mxCell>
        <mxCell id="tQyVGpeCjlCovoECdZ1f-196" value="Uses" style="edgeLabel;html=1;align=center;verticalAlign=middle;resizable=0;points=[];" vertex="1" connectable="0" parent="tQyVGpeCjlCovoECdZ1f-195">
          <mxGeometry x="0.003" y="-3" relative="1" as="geometry">
            <mxPoint y="-1" as="offset" />
          </mxGeometry>
        </mxCell>
        <mxCell id="tQyVGpeCjlCovoECdZ1f-197" value="Bait" style="swimlane;fontStyle=1;align=center;verticalAlign=top;childLayout=stackLayout;horizontal=1;startSize=26;horizontalStack=0;resizeParent=1;resizeParentMax=0;resizeLast=0;collapsible=1;marginBottom=0;whiteSpace=wrap;html=1;" vertex="1" parent="1">
          <mxGeometry x="-380" y="742" width="260" height="248" as="geometry" />
        </mxCell>
        <mxCell id="tQyVGpeCjlCovoECdZ1f-198" value="&lt;pre&gt;- name: String               &lt;br/&gt;- price: float               &lt;br/&gt;- effectiveness: int   &lt;/pre&gt;" style="text;strokeColor=none;fillColor=none;align=left;verticalAlign=top;spacingLeft=4;spacingRight=4;overflow=hidden;rotatable=0;points=[[0,0.5],[1,0.5]];portConstraint=eastwest;whiteSpace=wrap;html=1;" vertex="1" parent="tQyVGpeCjlCovoECdZ1f-197">
          <mxGeometry y="26" width="260" height="64" as="geometry" />
        </mxCell>
        <mxCell id="tQyVGpeCjlCovoECdZ1f-199" value="" style="line;strokeWidth=1;fillColor=none;align=left;verticalAlign=middle;spacingTop=-1;spacingLeft=3;spacingRight=3;rotatable=0;labelPosition=right;points=[];portConstraint=eastwest;strokeColor=inherit;" vertex="1" parent="tQyVGpeCjlCovoECdZ1f-197">
          <mxGeometry y="90" width="260" height="8" as="geometry" />
        </mxCell>
        <mxCell id="tQyVGpeCjlCovoECdZ1f-200" value="&lt;pre&gt;+ Bait(String, float, int)   &lt;br/&gt;+ getName(): String          &lt;br/&gt;+ getPrice(): float          &lt;br/&gt;+ getEffectiveness(): int    &lt;br/&gt;+ setName(String): void      &lt;br/&gt;+ setPrice(float): void      &lt;br/&gt;+ setEffectiveness(int): void&lt;br/&gt;+ toString(): String &lt;/pre&gt;" style="text;strokeColor=none;fillColor=none;align=left;verticalAlign=top;spacingLeft=4;spacingRight=4;overflow=hidden;rotatable=0;points=[[0,0.5],[1,0.5]];portConstraint=eastwest;whiteSpace=wrap;html=1;" vertex="1" parent="tQyVGpeCjlCovoECdZ1f-197">
          <mxGeometry y="98" width="260" height="150" as="geometry" />
        </mxCell>
        <mxCell id="tQyVGpeCjlCovoECdZ1f-201" value="1" style="endArrow=open;html=1;endSize=12;startArrow=diamondThin;startSize=14;startFill=0;align=left;verticalAlign=bottom;rounded=0;exitX=1;exitY=0.5;exitDx=0;exitDy=0;entryX=-0.007;entryY=0.858;entryDx=0;entryDy=0;entryPerimeter=0;" edge="1" parent="1" source="tQyVGpeCjlCovoECdZ1f-198" target="tQyVGpeCjlCovoECdZ1f-154">
          <mxGeometry x="-1" y="3" relative="1" as="geometry">
            <mxPoint x="-150" y="1040" as="sourcePoint" />
            <mxPoint x="10" y="990" as="targetPoint" />
            <Array as="points">
              <mxPoint x="-30" y="800" />
              <mxPoint x="-30" y="870" />
            </Array>
          </mxGeometry>
        </mxCell>
        <mxCell id="tQyVGpeCjlCovoECdZ1f-202" value="1" style="endArrow=open;html=1;endSize=12;startArrow=diamondThin;startSize=14;startFill=1;align=left;verticalAlign=bottom;rounded=0;entryX=1;entryY=0.5;entryDx=0;entryDy=0;exitX=-0.007;exitY=0.8;exitDx=0;exitDy=0;exitPerimeter=0;" edge="1" parent="1" source="tQyVGpeCjlCovoECdZ1f-198" target="tQyVGpeCjlCovoECdZ1f-203">
          <mxGeometry x="-1" y="3" relative="1" as="geometry">
            <mxPoint x="-360" y="700" as="sourcePoint" />
            <mxPoint x="-240" y="1080" as="targetPoint" />
          </mxGeometry>
        </mxCell>
        <mxCell id="tQyVGpeCjlCovoECdZ1f-203" value="Bait Database" style="swimlane;fontStyle=1;align=center;verticalAlign=top;childLayout=stackLayout;horizontal=1;startSize=26;horizontalStack=0;resizeParent=1;resizeParentMax=0;resizeLast=0;collapsible=1;marginBottom=0;whiteSpace=wrap;html=1;" vertex="1" parent="1">
          <mxGeometry x="-776" y="712" width="260" height="40" as="geometry" />
        </mxCell>
        <mxCell id="tQyVGpeCjlCovoECdZ1f-204" value="&lt;pre&gt;&lt;br&gt;&lt;/pre&gt;" style="text;strokeColor=none;fillColor=none;align=left;verticalAlign=top;spacingLeft=4;spacingRight=4;overflow=hidden;rotatable=0;points=[[0,0.5],[1,0.5]];portConstraint=eastwest;whiteSpace=wrap;html=1;" vertex="1" parent="tQyVGpeCjlCovoECdZ1f-203">
          <mxGeometry y="26" width="260" height="6" as="geometry" />
        </mxCell>
        <mxCell id="tQyVGpeCjlCovoECdZ1f-205" value="" style="line;strokeWidth=1;fillColor=none;align=left;verticalAlign=middle;spacingTop=-1;spacingLeft=3;spacingRight=3;rotatable=0;labelPosition=right;points=[];portConstraint=eastwest;strokeColor=inherit;" vertex="1" parent="tQyVGpeCjlCovoECdZ1f-203">
          <mxGeometry y="32" width="260" height="8" as="geometry" />
        </mxCell>
        <mxCell id="tQyVGpeCjlCovoECdZ1f-206" value="&lt;p style=&quot;margin:0px;margin-top:4px;text-align:center;&quot;&gt;&lt;code data-end=&quot;655&quot; data-start=&quot;641&quot;&gt;&lt;b&gt;FriendsPanel&lt;/b&gt;&lt;/code&gt;&lt;/p&gt;&lt;hr size=&quot;1&quot; style=&quot;border-style:solid;&quot;&gt;&lt;p style=&quot;margin:0px;margin-left:4px;&quot;&gt;+ ownerId: int&lt;/p&gt;&lt;hr size=&quot;1&quot; style=&quot;border-style:solid;&quot;&gt;&lt;p style=&quot;margin:0px;margin-left:4px;&quot;&gt;&lt;code data-end=&quot;428&quot; data-start=&quot;399&quot;&gt;+ FriendsPanel(ownerId:int)&lt;/code&gt;&lt;br&gt;&lt;code data-end=&quot;451&quot; data-start=&quot;432&quot;&gt;+ refresh(): void&lt;/code&gt;&lt;/p&gt;" style="verticalAlign=top;align=left;overflow=fill;html=1;whiteSpace=wrap;fillColor=#dae8fc;strokeColor=#6c8ebf;" vertex="1" parent="1">
          <mxGeometry x="800" y="-1175" width="260" height="110" as="geometry" />
        </mxCell>
        <mxCell id="tQyVGpeCjlCovoECdZ1f-207" value="&lt;p style=&quot;margin:0px;margin-top:4px;text-align:center;&quot;&gt;&lt;b&gt;FriendsController&lt;/b&gt;&lt;/p&gt;&lt;hr size=&quot;1&quot; style=&quot;border-style:solid;&quot;&gt;&lt;p style=&quot;margin:0px;margin-left:4px;&quot;&gt;dao: UserDao&lt;/p&gt;&lt;div&gt;&lt;br&gt;&lt;/div&gt;&lt;hr size=&quot;1&quot; style=&quot;border-style:solid;&quot;&gt;&lt;p style=&quot;margin:0px;margin-left:4px;&quot;&gt;&lt;span style=&quot;background-color: transparent; color: light-dark(rgb(0, 0, 0), rgb(255, 255, 255));&quot;&gt;+ getAll(ownerId: int): List&amp;lt;User&amp;gt;&lt;/span&gt;&lt;/p&gt;&lt;p style=&quot;margin:0px;margin-left:4px;&quot;&gt;+ add(token: String, ownerId: int): AddFriendResult&lt;/p&gt;&lt;p style=&quot;margin:0px;margin-left:4px;&quot;&gt;+ suggest(prefix: String): List&amp;lt;User&amp;gt;&lt;/p&gt;" style="verticalAlign=top;align=left;overflow=fill;html=1;whiteSpace=wrap;fillColor=default;strokeColor=#82b366;" vertex="1" parent="1">
          <mxGeometry x="1190" y="-1205" width="330" height="170" as="geometry" />
        </mxCell>
        <mxCell id="tQyVGpeCjlCovoECdZ1f-208" value="&lt;p style=&quot;margin:0px;margin-top:4px;text-align:center;&quot;&gt;&lt;b&gt;User&lt;/b&gt;&lt;/p&gt;&lt;hr size=&quot;1&quot; style=&quot;border-style:solid;&quot;&gt;&lt;p style=&quot;margin:0px;margin-left:4px;&quot;&gt;&lt;span style=&quot;background-color: transparent;&quot;&gt;+ userId&amp;nbsp; &amp;nbsp; &amp;nbsp;: int&lt;/span&gt;&lt;/p&gt;&lt;p style=&quot;margin:0px;margin-left:4px;&quot;&gt;+ phone&amp;nbsp; &amp;nbsp; &amp;nbsp; : String&lt;/p&gt;&lt;p style=&quot;margin:0px;margin-left:4px;&quot;&gt;+ username&amp;nbsp; &amp;nbsp;: String&lt;/p&gt;&lt;p style=&quot;margin:0px;margin-left:4px;&quot;&gt;+ gender: char&lt;/p&gt;&lt;p style=&quot;margin:0px;margin-left:4px;&quot;&gt;+&amp;nbsp;profileImagePath:String&lt;/p&gt;&lt;p style=&quot;margin:0px;margin-left:4px;&quot;&gt;+&amp;nbsp;role:String&lt;/p&gt;&lt;hr size=&quot;1&quot; style=&quot;border-style:solid;&quot;&gt;&lt;p style=&quot;margin:0px;margin-left:4px;&quot;&gt;+ getUserId(): int&lt;/p&gt;&lt;p style=&quot;margin:0px;margin-left:4px;&quot;&gt;+ getUsername(): String&lt;/p&gt;&lt;p style=&quot;margin:0px;margin-left:4px;&quot;&gt;+ getPhone(): String&lt;/p&gt;&lt;p style=&quot;margin:0px;margin-left:4px;&quot;&gt;+ getGender(): char&lt;/p&gt;&lt;p style=&quot;margin:0px;margin-left:4px;&quot;&gt;+ getAvatar(): ImageIcon&lt;/p&gt;" style="verticalAlign=top;align=left;overflow=fill;html=1;whiteSpace=wrap;fillColor=default;strokeColor=#d79b00;" vertex="1" parent="1">
          <mxGeometry x="1770" y="-1230" width="230" height="220" as="geometry" />
        </mxCell>
        <mxCell id="tQyVGpeCjlCovoECdZ1f-209" value="&lt;p style=&quot;margin:0px;margin-top:4px;text-align:center;&quot;&gt;&lt;b&gt;Friend&lt;/b&gt;&lt;/p&gt;&lt;hr size=&quot;1&quot; style=&quot;border-style:solid;&quot;&gt;&lt;p style=&quot;margin:0px;margin-left:4px;&quot;&gt;+ friendId : int&lt;/p&gt;&lt;hr size=&quot;1&quot; style=&quot;border-style:solid;&quot;&gt;&lt;p style=&quot;margin:0px;margin-left:4px;&quot;&gt;+ getFriendId(): int&lt;/p&gt;" style="verticalAlign=top;align=left;overflow=fill;html=1;whiteSpace=wrap;fillColor=default;strokeColor=#d79b00;" vertex="1" parent="1">
          <mxGeometry x="1790" y="-847" width="160" height="90" as="geometry" />
        </mxCell>
        <mxCell id="tQyVGpeCjlCovoECdZ1f-210" value="Use" style="endArrow=open;endSize=12;dashed=1;html=1;rounded=0;strokeWidth=2;" edge="1" parent="1" source="tQyVGpeCjlCovoECdZ1f-206" target="tQyVGpeCjlCovoECdZ1f-207">
          <mxGeometry width="160" relative="1" as="geometry">
            <mxPoint x="1060" y="-1025" as="sourcePoint" />
            <mxPoint x="1220" y="-1025" as="targetPoint" />
            <mxPoint as="offset" />
          </mxGeometry>
        </mxCell>
        <mxCell id="tQyVGpeCjlCovoECdZ1f-213" value="&lt;p style=&quot;margin:0px;margin-top:4px;text-align:center;&quot;&gt;&lt;b&gt;FoodSearchController&lt;/b&gt;&lt;/p&gt;&lt;hr size=&quot;1&quot; style=&quot;border-style:solid;&quot;&gt;&lt;p style=&quot;margin:0px;margin-left:4px;&quot;&gt;dishDao: DishDao&lt;/p&gt;&lt;p style=&quot;margin:0px;margin-left:4px;&quot;&gt;recipeDao: RecipeDao&lt;/p&gt;&lt;hr size=&quot;1&quot; style=&quot;border-style:solid;&quot;&gt;&lt;p style=&quot;margin:0px;margin-left:4px;&quot;&gt;+ search(keyword: String, sortOpt: SortStrategy&amp;lt;Dish&amp;gt;): List&amp;lt;Recipe&amp;gt;&lt;/p&gt;" style="verticalAlign=top;align=left;overflow=fill;html=1;whiteSpace=wrap;fillColor=#d5e8d4;strokeColor=#82b366;" vertex="1" parent="1">
          <mxGeometry x="1480" y="-255" width="330" height="140" as="geometry" />
        </mxCell>
        <mxCell id="tQyVGpeCjlCovoECdZ1f-214" value="&lt;p style=&quot;margin:0px;margin-top:4px;text-align:center;&quot;&gt;&lt;b&gt;Dish&lt;/b&gt;&lt;/p&gt;&lt;hr size=&quot;1&quot; style=&quot;border-style:solid;&quot;&gt;&lt;p style=&quot;margin:0px;margin-left:4px;&quot;&gt;&lt;span style=&quot;background-color: transparent; color: light-dark(rgb(0, 0, 0), rgb(255, 255, 255));&quot;&gt;+ dishId&amp;nbsp; &amp;nbsp; &amp;nbsp;: int&lt;/span&gt;&lt;/p&gt;&lt;p style=&quot;margin:0px;margin-left:4px;&quot;&gt;+ name&amp;nbsp; &amp;nbsp; &amp;nbsp; &amp;nbsp;: String&lt;/p&gt;&lt;p style=&quot;margin:0px;margin-left:4px;&quot;&gt;+ category&amp;nbsp; &amp;nbsp;: String&lt;/p&gt;&lt;p style=&quot;margin:0px;margin-left:4px;&quot;&gt;+ price : double&lt;/p&gt;&lt;p style=&quot;margin:0px;margin-left:4px;&quot;&gt;+ rating : float&lt;/p&gt;&lt;hr size=&quot;1&quot; style=&quot;border-style:solid;&quot;&gt;&lt;p style=&quot;margin:0px;margin-left:4px;&quot;&gt;+ getDishId(): int&lt;/p&gt;&lt;p style=&quot;margin:0px;margin-left:4px;&quot;&gt;+ getName(): String&lt;/p&gt;&lt;p style=&quot;margin:0px;margin-left:4px;&quot;&gt;+ getCategory(): String&lt;/p&gt;&lt;p style=&quot;margin:0px;margin-left:4px;&quot;&gt;+ getPrice(): float&lt;/p&gt;&lt;p style=&quot;margin:0px;margin-left:4px;&quot;&gt;+ getRating(): float&lt;/p&gt;" style="verticalAlign=top;align=left;overflow=fill;html=1;whiteSpace=wrap;fillColor=#ffe6cc;strokeColor=#d79b00;" vertex="1" parent="1">
          <mxGeometry x="930" y="95" width="150" height="200" as="geometry" />
        </mxCell>
        <mxCell id="tQyVGpeCjlCovoECdZ1f-215" value="&lt;p style=&quot;margin:0px;margin-top:4px;text-align:center;&quot;&gt;&lt;b&gt;Recipe&lt;/b&gt;&lt;/p&gt;&lt;hr size=&quot;1&quot; style=&quot;border-style:solid;&quot;&gt;&lt;p style=&quot;margin:0px;margin-left:4px;&quot;&gt;&lt;span style=&quot;background-color: transparent; color: light-dark(rgb(0, 0, 0), rgb(255, 255, 255));&quot;&gt;+ recipeId : int&lt;/span&gt;&lt;/p&gt;&lt;p style=&quot;margin:0px;margin-left:4px;&quot;&gt;+ text&amp;nbsp; &amp;nbsp; &amp;nbsp;: String&lt;/p&gt;&lt;p style=&quot;margin:0px;margin-left:4px;&quot;&gt;+ dishId: int&lt;/p&gt;&lt;p style=&quot;margin:0px;margin-left:4px;&quot;&gt;+ dish: Dish&lt;/p&gt;&lt;hr size=&quot;1&quot; style=&quot;border-style:solid;&quot;&gt;&lt;p style=&quot;margin:0px;margin-left:4px;&quot;&gt;+ getText(): String&lt;/p&gt;&lt;p style=&quot;margin:0px;margin-left:4px;&quot;&gt;+ getDish(): Dish&lt;/p&gt;&lt;p style=&quot;margin:0px;margin-left:4px;&quot;&gt;+ getRating(): float&lt;/p&gt;" style="verticalAlign=top;align=left;overflow=fill;html=1;whiteSpace=wrap;fillColor=#ffe6cc;strokeColor=#d79b00;" vertex="1" parent="1">
          <mxGeometry x="1240" y="95" width="150" height="170" as="geometry" />
        </mxCell>
        <mxCell id="tQyVGpeCjlCovoECdZ1f-216" value="&lt;p style=&quot;margin:0px;margin-top:4px;text-align:center;&quot;&gt;&lt;b&gt;SortStrategy&lt;/b&gt;&lt;/p&gt;&lt;hr size=&quot;1&quot; style=&quot;border-style:solid;&quot;&gt;&lt;p style=&quot;margin:0px;margin-left:4px;&quot;&gt;&lt;br&gt;&lt;/p&gt;&lt;hr size=&quot;1&quot; style=&quot;border-style:solid;&quot;&gt;&lt;p style=&quot;margin:0px;margin-left:4px;&quot;&gt;+ sort(items: List&amp;lt;Dish&amp;gt;): List&amp;lt;Dish&amp;gt;&lt;/p&gt;" style="verticalAlign=top;align=left;overflow=fill;html=1;whiteSpace=wrap;fillColor=#ffe6cc;strokeColor=#d79b00;" vertex="1" parent="1">
          <mxGeometry x="1560" y="95" width="210" height="109.98" as="geometry" />
        </mxCell>
        <mxCell id="tQyVGpeCjlCovoECdZ1f-217" value="Use" style="endArrow=open;endSize=12;dashed=1;html=1;rounded=0;strokeWidth=2;exitX=1;exitY=0.5;exitDx=0;exitDy=0;" edge="1" parent="1" source="tQyVGpeCjlCovoECdZ1f-251" target="tQyVGpeCjlCovoECdZ1f-213">
          <mxGeometry width="160" relative="1" as="geometry">
            <mxPoint x="1210" y="-185" as="sourcePoint" />
            <mxPoint x="1550" y="-65" as="targetPoint" />
          </mxGeometry>
        </mxCell>
        <mxCell id="tQyVGpeCjlCovoECdZ1f-218" value="" style="endArrow=classic;html=1;rounded=0;entryX=0.985;entryY=0.029;entryDx=0;entryDy=0;entryPerimeter=0;exitX=0;exitY=0.964;exitDx=0;exitDy=0;exitPerimeter=0;" edge="1" parent="1" source="tQyVGpeCjlCovoECdZ1f-255" target="tQyVGpeCjlCovoECdZ1f-252">
          <mxGeometry width="50" height="50" relative="1" as="geometry">
            <mxPoint x="1470" y="-120" as="sourcePoint" />
            <mxPoint x="1490" y="-95" as="targetPoint" />
            <Array as="points">
              <mxPoint x="1160" y="-120" />
              <mxPoint x="1160" y="100" />
            </Array>
          </mxGeometry>
        </mxCell>
        <mxCell id="tQyVGpeCjlCovoECdZ1f-219" value="1" style="edgeLabel;html=1;align=center;verticalAlign=middle;resizable=0;points=[];" vertex="1" connectable="0" parent="tQyVGpeCjlCovoECdZ1f-218">
          <mxGeometry x="-0.9435" y="2" relative="1" as="geometry">
            <mxPoint y="-18" as="offset" />
          </mxGeometry>
        </mxCell>
        <mxCell id="tQyVGpeCjlCovoECdZ1f-220" value="0..*" style="edgeLabel;html=1;align=center;verticalAlign=middle;resizable=0;points=[];" vertex="1" connectable="0" parent="tQyVGpeCjlCovoECdZ1f-218">
          <mxGeometry x="0.9228" y="-3" relative="1" as="geometry">
            <mxPoint x="-11" y="-12" as="offset" />
          </mxGeometry>
        </mxCell>
        <mxCell id="tQyVGpeCjlCovoECdZ1f-221" value="" style="endArrow=classic;html=1;rounded=0;" edge="1" parent="1" target="tQyVGpeCjlCovoECdZ1f-215">
          <mxGeometry width="50" height="50" relative="1" as="geometry">
            <mxPoint x="1520" y="-114" as="sourcePoint" />
            <mxPoint x="993" y="108" as="targetPoint" />
            <Array as="points">
              <mxPoint x="1520" y="180" />
            </Array>
          </mxGeometry>
        </mxCell>
        <mxCell id="tQyVGpeCjlCovoECdZ1f-222" value="c" style="edgeLabel;html=1;align=center;verticalAlign=middle;resizable=0;points=[];" vertex="1" connectable="0" parent="tQyVGpeCjlCovoECdZ1f-221">
          <mxGeometry x="-0.0944" y="-2" relative="1" as="geometry">
            <mxPoint y="1" as="offset" />
          </mxGeometry>
        </mxCell>
        <mxCell id="tQyVGpeCjlCovoECdZ1f-223" value="0..*" style="edgeLabel;html=1;align=center;verticalAlign=middle;resizable=0;points=[];" vertex="1" connectable="0" parent="1">
          <mxGeometry x="1059.9957772896507" y="180.00355817308036" as="geometry">
            <mxPoint x="365" y="-10" as="offset" />
          </mxGeometry>
        </mxCell>
        <mxCell id="tQyVGpeCjlCovoECdZ1f-224" value="&lt;p style=&quot;margin:0px;margin-top:4px;text-align:center;&quot;&gt;&lt;b&gt;AddFriendDialog&lt;/b&gt;&lt;/p&gt;&lt;hr size=&quot;1&quot; style=&quot;border-style:solid;&quot;&gt;&lt;p style=&quot;margin:0px;margin-left:4px;&quot;&gt;&lt;br&gt;&lt;/p&gt;&lt;hr size=&quot;1&quot; style=&quot;border-style:solid;&quot;&gt;&lt;p style=&quot;margin:0px;margin-left:4px;&quot;&gt;+ AddFriendDialog(parent: Frame, ctrl: FriendsController, ownerId: int)&lt;/p&gt;&lt;p style=&quot;margin:0px;margin-left:4px;&quot;&gt;&lt;br&gt;&lt;/p&gt;&lt;p style=&quot;margin:0px;margin-left:4px;&quot;&gt;+ setVisible(true): void&lt;/p&gt;" style="verticalAlign=top;align=left;overflow=fill;html=1;whiteSpace=wrap;fillColor=#dae8fc;strokeColor=#6c8ebf;" vertex="1" parent="1">
          <mxGeometry x="830" y="-895" width="260" height="170" as="geometry" />
        </mxCell>
        <mxCell id="tQyVGpeCjlCovoECdZ1f-225" value="Use" style="endArrow=open;endSize=12;dashed=1;html=1;rounded=0;exitX=0.963;exitY=0.024;exitDx=0;exitDy=0;exitPerimeter=0;strokeWidth=2;entryX=0.029;entryY=0.978;entryDx=0;entryDy=0;entryPerimeter=0;" edge="1" parent="1" source="tQyVGpeCjlCovoECdZ1f-224" target="tQyVGpeCjlCovoECdZ1f-207">
          <mxGeometry width="160" relative="1" as="geometry">
            <mxPoint x="1010" y="-1122" as="sourcePoint" />
            <mxPoint x="1200" y="-1116" as="targetPoint" />
            <Array as="points">
              <mxPoint x="1080" y="-1040" />
            </Array>
          </mxGeometry>
        </mxCell>
        <mxCell id="tQyVGpeCjlCovoECdZ1f-226" value="&lt;p style=&quot;margin:0px;margin-top:4px;text-align:center;&quot;&gt;&lt;code data-end=&quot;1934&quot; data-start=&quot;1917&quot;&gt;&lt;b&gt;AddFriendResult&lt;/b&gt;&lt;/code&gt;&lt;/p&gt;&lt;hr size=&quot;1&quot; style=&quot;border-style:solid;&quot;&gt;&lt;p style=&quot;margin:0px;margin-left:4px;&quot;&gt;&lt;code data-end=&quot;1780&quot; data-start=&quot;1773&quot;&gt;ADDED&lt;/code&gt; / &lt;code data-end=&quot;1792&quot; data-start=&quot;1783&quot;&gt;ALREADY&lt;/code&gt; / &lt;code data-end=&quot;1806&quot; data-start=&quot;1795&quot;&gt;NOT_FOUND&lt;/code&gt;&lt;/p&gt;&lt;hr size=&quot;1&quot; style=&quot;border-style:solid;&quot;&gt;&lt;p style=&quot;margin:0px;margin-left:4px;&quot;&gt;&lt;br&gt;&lt;/p&gt;" style="verticalAlign=top;align=left;overflow=fill;html=1;whiteSpace=wrap;fillColor=#ffe6cc;strokeColor=#d79b00;" vertex="1" parent="1">
          <mxGeometry x="1590" y="-870" width="160" height="120" as="geometry" />
        </mxCell>
        <mxCell id="tQyVGpeCjlCovoECdZ1f-227" value="" style="endArrow=none;html=1;edgeStyle=orthogonalEdgeStyle;rounded=0;entryX=0;entryY=0.5;entryDx=0;entryDy=0;exitX=1.02;exitY=0.582;exitDx=0;exitDy=0;exitPerimeter=0;strokeWidth=2;" edge="1" parent="1" source="tQyVGpeCjlCovoECdZ1f-214" target="tQyVGpeCjlCovoECdZ1f-215">
          <mxGeometry relative="1" as="geometry">
            <mxPoint x="1060" y="305" as="sourcePoint" />
            <mxPoint x="1240" y="305" as="targetPoint" />
          </mxGeometry>
        </mxCell>
        <mxCell id="tQyVGpeCjlCovoECdZ1f-228" value="1" style="edgeLabel;resizable=0;html=1;align=left;verticalAlign=bottom;" connectable="0" vertex="1" parent="tQyVGpeCjlCovoECdZ1f-227">
          <mxGeometry x="-1" relative="1" as="geometry" />
        </mxCell>
        <mxCell id="tQyVGpeCjlCovoECdZ1f-229" value="1" style="edgeLabel;resizable=0;html=1;align=right;verticalAlign=bottom;" connectable="0" vertex="1" parent="tQyVGpeCjlCovoECdZ1f-227">
          <mxGeometry x="1" relative="1" as="geometry">
            <mxPoint x="-10" as="offset" />
          </mxGeometry>
        </mxCell>
        <mxCell id="tQyVGpeCjlCovoECdZ1f-234" value="&lt;p style=&quot;margin:0px;margin-top:4px;text-align:center;&quot;&gt;UserDao&lt;/p&gt;&lt;hr size=&quot;1&quot; style=&quot;border-style:solid;&quot;&gt;&lt;p style=&quot;margin:0px;margin-left:4px;&quot;&gt;&lt;br&gt;&lt;/p&gt;&lt;hr size=&quot;1&quot; style=&quot;border-style:solid;&quot;&gt;&lt;p style=&quot;margin:0px;margin-left:4px;&quot;&gt;+ findByPhoneOrUsername(token: String): Optional&amp;lt;User&amp;gt;&lt;/p&gt;&lt;p style=&quot;margin:0px;margin-left:4px;&quot;&gt;+ searchPrefix(prefix: String, limit: int): List&amp;lt;User&amp;gt;&lt;/p&gt;&lt;p style=&quot;margin:0px;margin-left:4px;&quot;&gt;+ findFriendsOf(owner:int): List&amp;lt;User&amp;gt;&lt;/p&gt;&lt;p style=&quot;margin:0px;margin-left:4px;&quot;&gt;+ addFriend(ownerId: int, friendId: int): boolean&lt;/p&gt;&lt;p style=&quot;margin:0px;margin-left:4px;&quot;&gt;+ alreadyFriends(ownerId: int, friendId: int): boolean&lt;/p&gt;&lt;p style=&quot;margin:0px;margin-left:4px;&quot;&gt;&lt;br&gt;&lt;/p&gt;&lt;p style=&quot;margin:0px;margin-left:4px;&quot;&gt;&lt;br&gt;&lt;/p&gt;&lt;p style=&quot;margin:0px;margin-left:4px;&quot;&gt;&lt;br&gt;&lt;/p&gt;" style="verticalAlign=top;align=left;overflow=fill;html=1;whiteSpace=wrap;fillColor=#ffe6cc;strokeColor=#d79b00;" vertex="1" parent="1">
          <mxGeometry x="1190" y="-895" width="330" height="170" as="geometry" />
        </mxCell>
        <mxCell id="tQyVGpeCjlCovoECdZ1f-239" value="&lt;b&gt;0..*&lt;/b&gt;" style="text;html=1;align=center;verticalAlign=middle;resizable=0;points=[];autosize=1;strokeColor=none;fillColor=none;" vertex="1" parent="1">
          <mxGeometry x="1850" y="-1010" width="40" height="30" as="geometry" />
        </mxCell>
        <mxCell id="tQyVGpeCjlCovoECdZ1f-240" value="&lt;b&gt;1&lt;/b&gt;" style="text;html=1;align=center;verticalAlign=middle;resizable=0;points=[];autosize=1;strokeColor=none;fillColor=none;" vertex="1" parent="1">
          <mxGeometry x="1860" y="-877" width="30" height="30" as="geometry" />
        </mxCell>
        <mxCell id="tQyVGpeCjlCovoECdZ1f-243" value="Use" style="endArrow=open;endSize=12;dashed=1;html=1;rounded=0;strokeWidth=2;exitX=0.576;exitY=1.014;exitDx=0;exitDy=0;exitPerimeter=0;entryX=0.538;entryY=0.018;entryDx=0;entryDy=0;entryPerimeter=0;" edge="1" parent="1" source="tQyVGpeCjlCovoECdZ1f-213" target="tQyVGpeCjlCovoECdZ1f-216">
          <mxGeometry width="160" relative="1" as="geometry">
            <mxPoint x="1660" y="-25" as="sourcePoint" />
            <mxPoint x="1930" y="-25" as="targetPoint" />
          </mxGeometry>
        </mxCell>
        <mxCell id="tQyVGpeCjlCovoECdZ1f-248" value="&lt;p style=&quot;margin:0px;margin-top:4px;text-align:center;&quot;&gt;&lt;code data-end=&quot;655&quot; data-start=&quot;641&quot;&gt;&lt;b&gt;FriendsPanel&lt;/b&gt;&lt;/code&gt;&lt;/p&gt;&lt;hr size=&quot;1&quot; style=&quot;border-style:solid;&quot;&gt;&lt;p style=&quot;margin:0px;margin-left:4px;&quot;&gt;+ ownerId: int&lt;/p&gt;&lt;hr size=&quot;1&quot; style=&quot;border-style:solid;&quot;&gt;&lt;p style=&quot;margin:0px;margin-left:4px;&quot;&gt;&lt;code data-end=&quot;428&quot; data-start=&quot;399&quot;&gt;+ FriendsPanel(ownerId:int)&lt;/code&gt;&lt;br&gt;&lt;code data-end=&quot;451&quot; data-start=&quot;432&quot;&gt;+ refresh(): void&lt;/code&gt;&lt;/p&gt;" style="verticalAlign=top;align=left;overflow=fill;html=1;whiteSpace=wrap;fillColor=default;strokeColor=#6c8ebf;" vertex="1" parent="1">
          <mxGeometry x="800" y="-1175" width="260" height="110" as="geometry" />
        </mxCell>
        <mxCell id="tQyVGpeCjlCovoECdZ1f-249" value="&lt;p style=&quot;margin:0px;margin-top:4px;text-align:center;&quot;&gt;&lt;b&gt;AddFriendDialog&lt;/b&gt;&lt;/p&gt;&lt;hr size=&quot;1&quot; style=&quot;border-style:solid;&quot;&gt;&lt;p style=&quot;margin:0px;margin-left:4px;&quot;&gt;&lt;br&gt;&lt;/p&gt;&lt;hr size=&quot;1&quot; style=&quot;border-style:solid;&quot;&gt;&lt;p style=&quot;margin:0px;margin-left:4px;&quot;&gt;+ AddFriendDialog(parent: Frame, ctrl: FriendsController, ownerId: int)&lt;/p&gt;&lt;p style=&quot;margin:0px;margin-left:4px;&quot;&gt;&lt;br&gt;&lt;/p&gt;&lt;p style=&quot;margin:0px;margin-left:4px;&quot;&gt;+ setVisible(true): void&lt;/p&gt;" style="verticalAlign=top;align=left;overflow=fill;html=1;whiteSpace=wrap;fillColor=default;strokeColor=#6c8ebf;" vertex="1" parent="1">
          <mxGeometry x="830" y="-895" width="260" height="170" as="geometry" />
        </mxCell>
        <mxCell id="tQyVGpeCjlCovoECdZ1f-250" value="&lt;p style=&quot;margin:0px;margin-top:4px;text-align:center;&quot;&gt;&lt;code data-end=&quot;655&quot; data-start=&quot;641&quot;&gt;&lt;b&gt;FriendsPanel&lt;/b&gt;&lt;/code&gt;&lt;/p&gt;&lt;hr size=&quot;1&quot; style=&quot;border-style:solid;&quot;&gt;&lt;p style=&quot;margin:0px;margin-left:4px;&quot;&gt;+ ownerId: int&lt;/p&gt;&lt;hr size=&quot;1&quot; style=&quot;border-style:solid;&quot;&gt;&lt;p style=&quot;margin:0px;margin-left:4px;&quot;&gt;&lt;code data-end=&quot;428&quot; data-start=&quot;399&quot;&gt;+ FriendsPanel(ownerId:int)&lt;/code&gt;&lt;br&gt;&lt;code data-end=&quot;451&quot; data-start=&quot;432&quot;&gt;+ refresh(): void&lt;/code&gt;&lt;/p&gt;" style="verticalAlign=top;align=left;overflow=fill;html=1;whiteSpace=wrap;fillColor=default;strokeColor=#6c8ebf;" vertex="1" parent="1">
          <mxGeometry x="820" y="-680" width="260" height="110" as="geometry" />
        </mxCell>
        <mxCell id="tQyVGpeCjlCovoECdZ1f-251" value="&lt;p style=&quot;margin:0px;margin-top:4px;text-align:center;&quot;&gt;&lt;b&gt;RecipeSearchPanel&lt;/b&gt;&lt;/p&gt;&lt;hr size=&quot;1&quot; style=&quot;border-style:solid;&quot;&gt;&lt;p style=&quot;margin:0px;margin-left:4px;&quot;&gt;&lt;br&gt;&lt;/p&gt;&lt;hr size=&quot;1&quot; style=&quot;border-style:solid;&quot;&gt;&lt;p style=&quot;margin:0px;margin-left:4px;&quot;&gt;&lt;span style=&quot;background-color: transparent;&quot;&gt;&lt;font face=&quot;monospace&quot;&gt;+ RecipeSearchPanel(cards:CardLayout,&amp;nbsp;&lt;/font&gt;&lt;/span&gt;&lt;/p&gt;&lt;p style=&quot;margin:0px;margin-left:4px;&quot;&gt;&lt;span style=&quot;background-color: transparent;&quot;&gt;&lt;font face=&quot;monospace&quot;&gt;content:JPanel, shell:Main)&lt;/font&gt;&lt;/span&gt;&lt;/p&gt;&lt;p style=&quot;margin:0px;margin-left:4px;&quot;&gt;&lt;span style=&quot;background-color: transparent;&quot;&gt;&lt;font face=&quot;monospace&quot;&gt;&lt;br&gt;&lt;/font&gt;&lt;/span&gt;&lt;/p&gt;&lt;p style=&quot;margin:0px;margin-left:4px;&quot;&gt;&lt;span style=&quot;background-color: transparent;&quot;&gt;&lt;font face=&quot;monospace&quot;&gt;+&amp;nbsp;&lt;/font&gt;&lt;/span&gt;&lt;span style=&quot;background-color: transparent;&quot;&gt;&lt;font face=&quot;monospace&quot;&gt;doSearch()&amp;nbsp; &amp;nbsp;&lt;/font&gt;&lt;/span&gt;&lt;/p&gt;" style="verticalAlign=top;align=left;overflow=fill;html=1;whiteSpace=wrap;fillColor=default;strokeColor=#6c8ebf;" vertex="1" parent="1">
          <mxGeometry x="820" y="-270" width="270" height="170" as="geometry" />
        </mxCell>
        <mxCell id="tQyVGpeCjlCovoECdZ1f-252" value="&lt;p style=&quot;margin:0px;margin-top:4px;text-align:center;&quot;&gt;&lt;b&gt;Dish&lt;/b&gt;&lt;/p&gt;&lt;hr size=&quot;1&quot; style=&quot;border-style:solid;&quot;&gt;&lt;p style=&quot;margin:0px;margin-left:4px;&quot;&gt;&lt;span style=&quot;background-color: transparent; color: light-dark(rgb(0, 0, 0), rgb(255, 255, 255));&quot;&gt;+ dishId&amp;nbsp; &amp;nbsp; &amp;nbsp;: int&lt;/span&gt;&lt;/p&gt;&lt;p style=&quot;margin:0px;margin-left:4px;&quot;&gt;+ name&amp;nbsp; &amp;nbsp; &amp;nbsp; &amp;nbsp;: String&lt;/p&gt;&lt;p style=&quot;margin:0px;margin-left:4px;&quot;&gt;+ category&amp;nbsp; &amp;nbsp;: String&lt;/p&gt;&lt;p style=&quot;margin:0px;margin-left:4px;&quot;&gt;+ price : double&lt;/p&gt;&lt;p style=&quot;margin:0px;margin-left:4px;&quot;&gt;+ rating : float&lt;/p&gt;&lt;hr size=&quot;1&quot; style=&quot;border-style:solid;&quot;&gt;&lt;p style=&quot;margin:0px;margin-left:4px;&quot;&gt;+ getDishId(): int&lt;/p&gt;&lt;p style=&quot;margin:0px;margin-left:4px;&quot;&gt;+ getName(): String&lt;/p&gt;&lt;p style=&quot;margin:0px;margin-left:4px;&quot;&gt;+ getCategory(): String&lt;/p&gt;&lt;p style=&quot;margin:0px;margin-left:4px;&quot;&gt;+ getPrice(): float&lt;/p&gt;&lt;p style=&quot;margin:0px;margin-left:4px;&quot;&gt;+ getRating(): float&lt;/p&gt;" style="verticalAlign=top;align=left;overflow=fill;html=1;whiteSpace=wrap;fillColor=default;strokeColor=#d79b00;" vertex="1" parent="1">
          <mxGeometry x="930" y="95" width="150" height="200" as="geometry" />
        </mxCell>
        <mxCell id="tQyVGpeCjlCovoECdZ1f-253" value="&lt;p style=&quot;margin:0px;margin-top:4px;text-align:center;&quot;&gt;&lt;b&gt;Recipe&lt;/b&gt;&lt;/p&gt;&lt;hr size=&quot;1&quot; style=&quot;border-style:solid;&quot;&gt;&lt;p style=&quot;margin:0px;margin-left:4px;&quot;&gt;&lt;span style=&quot;background-color: transparent; color: light-dark(rgb(0, 0, 0), rgb(255, 255, 255));&quot;&gt;+ recipeId : int&lt;/span&gt;&lt;/p&gt;&lt;p style=&quot;margin:0px;margin-left:4px;&quot;&gt;+ text&amp;nbsp; &amp;nbsp; &amp;nbsp;: String&lt;/p&gt;&lt;p style=&quot;margin:0px;margin-left:4px;&quot;&gt;+ dishId: int&lt;/p&gt;&lt;p style=&quot;margin:0px;margin-left:4px;&quot;&gt;+ dish: Dish&lt;/p&gt;&lt;hr size=&quot;1&quot; style=&quot;border-style:solid;&quot;&gt;&lt;p style=&quot;margin:0px;margin-left:4px;&quot;&gt;+ getText(): String&lt;/p&gt;&lt;p style=&quot;margin:0px;margin-left:4px;&quot;&gt;+ getDish(): Dish&lt;/p&gt;&lt;p style=&quot;margin:0px;margin-left:4px;&quot;&gt;+ getRating(): float&lt;/p&gt;" style="verticalAlign=top;align=left;overflow=fill;html=1;whiteSpace=wrap;fillColor=default;strokeColor=#d79b00;" vertex="1" parent="1">
          <mxGeometry x="1240" y="95" width="150" height="170" as="geometry" />
        </mxCell>
        <mxCell id="tQyVGpeCjlCovoECdZ1f-254" value="&lt;p style=&quot;margin:0px;margin-top:4px;text-align:center;&quot;&gt;&lt;b&gt;SortStrategy&lt;/b&gt;&lt;/p&gt;&lt;hr size=&quot;1&quot; style=&quot;border-style:solid;&quot;&gt;&lt;p style=&quot;margin:0px;margin-left:4px;&quot;&gt;&lt;br&gt;&lt;/p&gt;&lt;hr size=&quot;1&quot; style=&quot;border-style:solid;&quot;&gt;&lt;p style=&quot;margin:0px;margin-left:4px;&quot;&gt;+ sort(items: List&amp;lt;Dish&amp;gt;): List&amp;lt;Dish&amp;gt;&lt;/p&gt;" style="verticalAlign=top;align=left;overflow=fill;html=1;whiteSpace=wrap;fillColor=default;strokeColor=#d79b00;" vertex="1" parent="1">
          <mxGeometry x="1560" y="95" width="210" height="109.98" as="geometry" />
        </mxCell>
        <mxCell id="tQyVGpeCjlCovoECdZ1f-255" value="&lt;p style=&quot;margin:0px;margin-top:4px;text-align:center;&quot;&gt;&lt;b&gt;FoodSearchController&lt;/b&gt;&lt;/p&gt;&lt;hr size=&quot;1&quot; style=&quot;border-style:solid;&quot;&gt;&lt;p style=&quot;margin:0px;margin-left:4px;&quot;&gt;dishDao: DishDao&lt;/p&gt;&lt;p style=&quot;margin:0px;margin-left:4px;&quot;&gt;recipeDao: RecipeDao&lt;/p&gt;&lt;hr size=&quot;1&quot; style=&quot;border-style:solid;&quot;&gt;&lt;p style=&quot;margin:0px;margin-left:4px;&quot;&gt;+ search(keyword: String, sortOpt: SortStrategy&amp;lt;Dish&amp;gt;): List&amp;lt;Recipe&amp;gt;&lt;/p&gt;" style="verticalAlign=top;align=left;overflow=fill;html=1;whiteSpace=wrap;fillColor=default;strokeColor=#82b366;" vertex="1" parent="1">
          <mxGeometry x="1480" y="-255" width="330" height="140" as="geometry" />
        </mxCell>
        <mxCell id="tQyVGpeCjlCovoECdZ1f-256" value="&lt;p style=&quot;margin:0px;margin-top:4px;text-align:center;&quot;&gt;&lt;b&gt;RecipeDao&amp;nbsp;&lt;/b&gt;&lt;/p&gt;&lt;hr size=&quot;1&quot; style=&quot;border-style:solid;&quot;&gt;&lt;p style=&quot;margin:0px;margin-left:4px;&quot;&gt;&lt;br&gt;&lt;/p&gt;&lt;hr size=&quot;1&quot; style=&quot;border-style:solid;&quot;&gt;&lt;p style=&quot;margin:0px;margin-left:4px;&quot;&gt;+ findByDishId(dishId: int): List&amp;lt;Recipe&amp;gt;&lt;/p&gt;&lt;p style=&quot;margin:0px;margin-left:4px;&quot;&gt;+ findByKeyword(keyword: String): List&amp;lt;Recipe&amp;gt;&amp;nbsp;&lt;/p&gt;" style="verticalAlign=top;align=left;overflow=fill;html=1;whiteSpace=wrap;fillColor=default;strokeColor=#82b366;" vertex="1" parent="1">
          <mxGeometry x="1500" y="-460" width="290" height="130" as="geometry" />
        </mxCell>
        <mxCell id="tQyVGpeCjlCovoECdZ1f-257" value="&lt;p style=&quot;margin:0px;margin-top:4px;text-align:center;&quot;&gt;&lt;b&gt;DishDao&amp;nbsp;&lt;/b&gt;&lt;/p&gt;&lt;hr size=&quot;1&quot; style=&quot;border-style:solid;&quot;&gt;&lt;p style=&quot;margin:0px;margin-left:4px;&quot;&gt;&lt;span style=&quot;background-color: transparent; color: light-dark(rgb(0, 0, 0), rgb(255, 255, 255));&quot;&gt;&lt;br&gt;&lt;/span&gt;&lt;/p&gt;&lt;hr size=&quot;1&quot; style=&quot;border-style:solid;&quot;&gt;&lt;p style=&quot;margin:0px;margin-left:4px;&quot;&gt;+ findByKeyword(keyword: String): List&amp;lt;Dish&amp;gt;&lt;/p&gt;" style="verticalAlign=top;align=left;overflow=fill;html=1;whiteSpace=wrap;fillColor=default;strokeColor=#82b366;" vertex="1" parent="1">
          <mxGeometry x="1020" y="-520" width="290" height="100" as="geometry" />
        </mxCell>
        <mxCell id="tQyVGpeCjlCovoECdZ1f-258" value="&lt;p style=&quot;margin:0px;margin-top:4px;text-align:center;&quot;&gt;UserDao&lt;/p&gt;&lt;hr size=&quot;1&quot; style=&quot;border-style:solid;&quot;&gt;&lt;p style=&quot;margin:0px;margin-left:4px;&quot;&gt;&lt;br&gt;&lt;/p&gt;&lt;hr size=&quot;1&quot; style=&quot;border-style:solid;&quot;&gt;&lt;p style=&quot;margin:0px;margin-left:4px;&quot;&gt;+ findByPhoneOrUsername(token: String): Optional&amp;lt;User&amp;gt;&lt;/p&gt;&lt;p style=&quot;margin:0px;margin-left:4px;&quot;&gt;+ searchPrefix(prefix: String, limit: int): List&amp;lt;User&amp;gt;&lt;/p&gt;&lt;p style=&quot;margin:0px;margin-left:4px;&quot;&gt;+ findFriendsOf(owner:int): List&amp;lt;User&amp;gt;&lt;/p&gt;&lt;p style=&quot;margin:0px;margin-left:4px;&quot;&gt;+ addFriend(ownerId: int, friendId: int): boolean&lt;/p&gt;&lt;p style=&quot;margin:0px;margin-left:4px;&quot;&gt;+ alreadyFriends(ownerId: int, friendId: int): boolean&lt;/p&gt;&lt;p style=&quot;margin:0px;margin-left:4px;&quot;&gt;&lt;br&gt;&lt;/p&gt;&lt;p style=&quot;margin:0px;margin-left:4px;&quot;&gt;&lt;br&gt;&lt;/p&gt;&lt;p style=&quot;margin:0px;margin-left:4px;&quot;&gt;&lt;br&gt;&lt;/p&gt;" style="verticalAlign=top;align=left;overflow=fill;html=1;whiteSpace=wrap;fillColor=default;strokeColor=#d79b00;" vertex="1" parent="1">
          <mxGeometry x="1190" y="-895" width="330" height="170" as="geometry" />
        </mxCell>
        <mxCell id="tQyVGpeCjlCovoECdZ1f-259" value="&lt;p style=&quot;margin:0px;margin-top:4px;text-align:center;&quot;&gt;&lt;code data-end=&quot;1934&quot; data-start=&quot;1917&quot;&gt;&lt;b&gt;AddFriendResult&lt;/b&gt;&lt;/code&gt;&lt;/p&gt;&lt;hr size=&quot;1&quot; style=&quot;border-style:solid;&quot;&gt;&lt;p style=&quot;margin:0px;margin-left:4px;&quot;&gt;&lt;code data-end=&quot;1780&quot; data-start=&quot;1773&quot;&gt;ADDED&lt;/code&gt; / &lt;code data-end=&quot;1792&quot; data-start=&quot;1783&quot;&gt;ALREADY&lt;/code&gt; / &lt;code data-end=&quot;1806&quot; data-start=&quot;1795&quot;&gt;NOT_FOUND&lt;/code&gt;&lt;/p&gt;&lt;hr size=&quot;1&quot; style=&quot;border-style:solid;&quot;&gt;&lt;p style=&quot;margin:0px;margin-left:4px;&quot;&gt;&lt;br&gt;&lt;/p&gt;" style="verticalAlign=top;align=left;overflow=fill;html=1;whiteSpace=wrap;fillColor=default;strokeColor=#d79b00;" vertex="1" parent="1">
          <mxGeometry x="1590" y="-870" width="160" height="120" as="geometry" />
        </mxCell>
        <mxCell id="tQyVGpeCjlCovoECdZ1f-260" value="" style="endArrow=none;html=1;edgeStyle=orthogonalEdgeStyle;rounded=0;exitX=0.485;exitY=1.008;exitDx=0;exitDy=0;exitPerimeter=0;entryX=0.557;entryY=0.004;entryDx=0;entryDy=0;entryPerimeter=0;" edge="1" parent="1" target="tQyVGpeCjlCovoECdZ1f-348">
          <mxGeometry relative="1" as="geometry">
            <mxPoint x="2797.7000000000003" y="500.0039999999999" as="sourcePoint" />
            <mxPoint x="2802.3" y="604.98" as="targetPoint" />
            <Array as="points">
              <mxPoint x="2798" y="525" />
              <mxPoint x="2798" y="525" />
              <mxPoint x="2798" y="565" />
              <mxPoint x="2810" y="565" />
              <mxPoint x="2810" y="609" />
              <mxPoint x="2810" y="609" />
            </Array>
          </mxGeometry>
        </mxCell>
        <mxCell id="tQyVGpeCjlCovoECdZ1f-261" value="" style="endArrow=none;html=1;edgeStyle=orthogonalEdgeStyle;rounded=0;entryX=0;entryY=0.438;entryDx=0;entryDy=0;entryPerimeter=0;" edge="1" parent="1" target="tQyVGpeCjlCovoECdZ1f-341">
          <mxGeometry relative="1" as="geometry">
            <mxPoint x="2845" y="950" as="sourcePoint" />
            <mxPoint x="3110" y="955" as="targetPoint" />
            <Array as="points">
              <mxPoint x="3135" y="950" />
            </Array>
          </mxGeometry>
        </mxCell>
        <mxCell id="tQyVGpeCjlCovoECdZ1f-262" value="" style="endArrow=none;html=1;edgeStyle=orthogonalEdgeStyle;rounded=0;exitX=1;exitY=0.617;exitDx=0;exitDy=0;exitPerimeter=0;entryX=0;entryY=0.222;entryDx=0;entryDy=0;entryPerimeter=0;" edge="1" parent="1" source="tQyVGpeCjlCovoECdZ1f-337" target="tQyVGpeCjlCovoECdZ1f-361">
          <mxGeometry relative="1" as="geometry">
            <mxPoint x="2890" y="994.71" as="sourcePoint" />
            <mxPoint x="3130" y="1150.0588235294117" as="targetPoint" />
            <Array as="points">
              <mxPoint x="2870" y="995" />
              <mxPoint x="2920" y="995" />
              <mxPoint x="2920" y="1150" />
            </Array>
          </mxGeometry>
        </mxCell>
        <mxCell id="tQyVGpeCjlCovoECdZ1f-263" value="manages" style="text;html=1;align=center;verticalAlign=middle;resizable=0;points=[];autosize=1;strokeColor=none;fillColor=none;" vertex="1" parent="1">
          <mxGeometry x="2790" y="540" width="70" height="30" as="geometry" />
        </mxCell>
        <mxCell id="tQyVGpeCjlCovoECdZ1f-264" value="1" style="text;html=1;align=center;verticalAlign=middle;resizable=0;points=[];autosize=1;strokeColor=none;fillColor=none;" vertex="1" parent="1">
          <mxGeometry x="2775" y="500" width="30" height="30" as="geometry" />
        </mxCell>
        <mxCell id="tQyVGpeCjlCovoECdZ1f-265" value="handles" style="text;html=1;align=center;verticalAlign=middle;resizable=0;points=[];autosize=1;strokeColor=none;fillColor=none;" vertex="1" parent="1">
          <mxGeometry x="2735" y="790" width="70" height="30" as="geometry" />
        </mxCell>
        <mxCell id="tQyVGpeCjlCovoECdZ1f-266" value="1..n" style="text;html=1;align=center;verticalAlign=middle;resizable=0;points=[];autosize=1;strokeColor=none;fillColor=none;" vertex="1" parent="1">
          <mxGeometry x="2740" y="850" width="40" height="30" as="geometry" />
        </mxCell>
        <mxCell id="tQyVGpeCjlCovoECdZ1f-267" value="Supplied by" style="text;html=1;align=center;verticalAlign=middle;resizable=0;points=[];autosize=1;strokeColor=none;fillColor=none;" vertex="1" parent="1">
          <mxGeometry x="2939" y="920" width="90" height="30" as="geometry" />
        </mxCell>
        <mxCell id="tQyVGpeCjlCovoECdZ1f-268" value="1" style="text;html=1;align=center;verticalAlign=middle;resizable=0;points=[];autosize=1;strokeColor=none;fillColor=none;" vertex="1" parent="1">
          <mxGeometry x="2850" y="920" width="30" height="30" as="geometry" />
        </mxCell>
        <mxCell id="tQyVGpeCjlCovoECdZ1f-269" value="1" style="text;html=1;align=center;verticalAlign=middle;resizable=0;points=[];autosize=1;strokeColor=none;fillColor=none;" vertex="1" parent="1">
          <mxGeometry x="3100" y="920" width="30" height="30" as="geometry" />
        </mxCell>
        <mxCell id="tQyVGpeCjlCovoECdZ1f-270" value="Contains" style="text;html=1;align=center;verticalAlign=middle;resizable=0;points=[];autosize=1;strokeColor=none;fillColor=none;" vertex="1" parent="1">
          <mxGeometry x="2930" y="1090" width="70" height="30" as="geometry" />
        </mxCell>
        <mxCell id="tQyVGpeCjlCovoECdZ1f-271" value="1" style="text;html=1;align=center;verticalAlign=middle;resizable=0;points=[];autosize=1;strokeColor=none;fillColor=none;" vertex="1" parent="1">
          <mxGeometry x="2845" y="1010" width="30" height="30" as="geometry" />
        </mxCell>
        <mxCell id="tQyVGpeCjlCovoECdZ1f-272" value="1..n" style="text;html=1;align=center;verticalAlign=middle;resizable=0;points=[];autosize=1;strokeColor=none;fillColor=none;" vertex="1" parent="1">
          <mxGeometry x="3083.75" y="1110" width="40" height="30" as="geometry" />
        </mxCell>
        <mxCell id="tQyVGpeCjlCovoECdZ1f-273" value="" style="endArrow=none;html=1;edgeStyle=orthogonalEdgeStyle;rounded=0;exitX=0.986;exitY=1.135;exitDx=0;exitDy=0;exitPerimeter=0;entryX=0.993;entryY=0.284;entryDx=0;entryDy=0;entryPerimeter=0;" edge="1" parent="1" source="tQyVGpeCjlCovoECdZ1f-276" target="tQyVGpeCjlCovoECdZ1f-360">
          <mxGeometry relative="1" as="geometry">
            <mxPoint x="3270.2000000000003" y="892.24" as="sourcePoint" />
            <mxPoint x="2910" y="250" as="targetPoint" />
            <Array as="points">
              <mxPoint x="3270" y="300" />
              <mxPoint x="2910" y="300" />
            </Array>
          </mxGeometry>
        </mxCell>
        <mxCell id="tQyVGpeCjlCovoECdZ1f-274" value="" style="endArrow=none;html=1;edgeStyle=orthogonalEdgeStyle;rounded=0;entryX=0.991;entryY=0.394;entryDx=0;entryDy=0;entryPerimeter=0;exitX=0.998;exitY=0.122;exitDx=0;exitDy=0;exitPerimeter=0;strokeColor=light-dark(#006666,#006666);" edge="1" parent="1" source="tQyVGpeCjlCovoECdZ1f-361" target="tQyVGpeCjlCovoECdZ1f-360">
          <mxGeometry relative="1" as="geometry">
            <mxPoint x="3270" y="1140.0588235294117" as="sourcePoint" />
            <mxPoint x="2925.96" y="269.52" as="targetPoint" />
            <Array as="points">
              <mxPoint x="3334" y="1141" />
              <mxPoint x="3334" y="330" />
            </Array>
          </mxGeometry>
        </mxCell>
        <mxCell id="tQyVGpeCjlCovoECdZ1f-275" value="1" style="text;html=1;align=center;verticalAlign=middle;resizable=0;points=[];autosize=1;strokeColor=none;fillColor=none;" vertex="1" parent="1">
          <mxGeometry x="2909" y="270" width="30" height="30" as="geometry" />
        </mxCell>
        <mxCell id="tQyVGpeCjlCovoECdZ1f-276" value="1" style="text;html=1;align=center;verticalAlign=middle;resizable=0;points=[];autosize=1;strokeColor=none;fillColor=none;" vertex="1" parent="1">
          <mxGeometry x="3240" y="790" width="30" height="30" as="geometry" />
        </mxCell>
        <mxCell id="tQyVGpeCjlCovoECdZ1f-277" value="1" style="text;html=1;align=center;verticalAlign=middle;resizable=0;points=[];autosize=1;strokeColor=none;fillColor=none;" vertex="1" parent="1">
          <mxGeometry x="2909" y="330" width="30" height="30" as="geometry" />
        </mxCell>
        <mxCell id="tQyVGpeCjlCovoECdZ1f-278" value="1..n" style="text;html=1;align=center;verticalAlign=middle;resizable=0;points=[];autosize=1;strokeColor=none;fillColor=none;" vertex="1" parent="1">
          <mxGeometry x="3330" y="1120" width="40" height="30" as="geometry" />
        </mxCell>
        <mxCell id="tQyVGpeCjlCovoECdZ1f-279" value="Use" style="endArrow=open;endSize=12;dashed=1;html=1;rounded=0;entryX=0.005;entryY=0.157;entryDx=0;entryDy=0;entryPerimeter=0;exitX=1;exitY=0.5;exitDx=0;exitDy=0;" edge="1" parent="1" source="tQyVGpeCjlCovoECdZ1f-350" target="tQyVGpeCjlCovoECdZ1f-360">
          <mxGeometry width="160" relative="1" as="geometry">
            <mxPoint x="2240" y="259.996" as="sourcePoint" />
            <mxPoint x="2683.8" y="259.8000000000002" as="targetPoint" />
          </mxGeometry>
        </mxCell>
        <mxCell id="tQyVGpeCjlCovoECdZ1f-280" value="1" style="text;html=1;align=center;verticalAlign=middle;resizable=0;points=[];autosize=1;strokeColor=none;fillColor=none;" vertex="1" parent="1">
          <mxGeometry x="2140" y="290" width="30" height="30" as="geometry" />
        </mxCell>
        <mxCell id="tQyVGpeCjlCovoECdZ1f-281" value="1..n" style="text;html=1;align=center;verticalAlign=middle;resizable=0;points=[];autosize=1;strokeColor=none;fillColor=none;" vertex="1" parent="1">
          <mxGeometry x="2520" y="990" width="40" height="30" as="geometry" />
        </mxCell>
        <mxCell id="tQyVGpeCjlCovoECdZ1f-282" value="&lt;p style=&quot;margin:0px;margin-top:4px;text-align:center;&quot;&gt;&lt;b&gt;&lt;font style=&quot;font-size: 11px;&quot; face=&quot;Verdana&quot;&gt;LogFishScreen&lt;/font&gt;&lt;/b&gt;&lt;/p&gt;&lt;hr size=&quot;1&quot; style=&quot;border-style:solid;&quot;&gt;&lt;div style=&quot;text-align: center; text-wrap-mode: nowrap;&quot;&gt;&lt;b style=&quot;text-align: left; text-wrap-mode: wrap; background-color: transparent; color: light-dark(rgb(0, 0, 0), rgb(255, 255, 255));&quot;&gt;&lt;font face=&quot;Verdana&quot;&gt;+ FisherManID: int&lt;/font&gt;&lt;/b&gt;&lt;/div&gt;&lt;hr size=&quot;1&quot; style=&quot;border-style:solid;&quot;&gt;&lt;pre style=&quot;text-align: center;&quot;&gt;&lt;b&gt;&lt;font style=&quot;font-size: 11px;&quot;&gt;&lt;font face=&quot;Verdana&quot;&gt;+initializeLogging() &lt;/font&gt;&lt;font style=&quot;font-family: Verdana; background-color: transparent; color: light-dark(rgb(0, 0, 0), rgb(255, 255, 255)); white-space: normal;&quot;&gt;:&lt;/font&gt;&lt;span style=&quot;font-family: Verdana; background-color: transparent; color: light-dark(rgb(0, 0, 0), rgb(255, 255, 255)); white-space: normal;&quot;&gt;void&lt;/span&gt;&lt;font face=&quot;Verdana&quot;&gt;&lt;br&gt;+ fetchFishTypes() &lt;/font&gt;&lt;font style=&quot;font-family: Verdana; background-color: transparent; color: light-dark(rgb(0, 0, 0), rgb(255, 255, 255)); white-space: normal;&quot;&gt;:&lt;/font&gt;&lt;span style=&quot;background-color: transparent; color: light-dark(rgb(0, 0, 0), rgb(255, 255, 255)); white-space: normal;&quot;&gt;&lt;font face=&quot;Verdana&quot;&gt;void&lt;/font&gt;&lt;font face=&quot;Verdana&quot;&gt;&lt;br&gt;&lt;/font&gt;&lt;/span&gt;&lt;/font&gt;&lt;/b&gt;&lt;span style=&quot;white-space: normal;&quot;&gt;&lt;font face=&quot;Verdana&quot;&gt;&lt;b&gt;+GetCurrDate():void&lt;/b&gt;&lt;/font&gt;&lt;/span&gt;&lt;b&gt;&lt;font style=&quot;font-size: 11px;&quot; face=&quot;Verdana&quot;&gt;&lt;br&gt;+  onTypeSelected(FishType type) &lt;font style=&quot;background-color: transparent; color: light-dark(rgb(0, 0, 0), rgb(255, 255, 255)); white-space: normal;&quot;&gt;:&lt;/font&gt;&lt;span style=&quot;background-color: transparent; color: light-dark(rgb(0, 0, 0), rgb(255, 255, 255)); white-space: normal;&quot;&gt;void&lt;/span&gt;&lt;br&gt;+ onDateEntered(LocalDate date) &lt;font style=&quot;background-color: transparent; color: light-dark(rgb(0, 0, 0), rgb(255, 255, 255)); white-space: normal;&quot;&gt;:&lt;/font&gt;&lt;span style=&quot;background-color: transparent; color: light-dark(rgb(0, 0, 0), rgb(255, 255, 255)); white-space: normal;&quot;&gt;void&lt;/span&gt;&lt;br&gt;+ onNameSelected(String name) &lt;font style=&quot;background-color: transparent; color: light-dark(rgb(0, 0, 0), rgb(255, 255, 255)); white-space: normal;&quot;&gt;:&lt;/font&gt;&lt;span style=&quot;background-color: transparent; color: light-dark(rgb(0, 0, 0), rgb(255, 255, 255)); white-space: normal;&quot;&gt;void&lt;/span&gt;&lt;br&gt;+  onQuantityEntered(int quantity) &lt;font style=&quot;background-color: transparent; color: light-dark(rgb(0, 0, 0), rgb(255, 255, 255)); white-space: normal;&quot;&gt;:&lt;/font&gt;&lt;span style=&quot;background-color: transparent; color: light-dark(rgb(0, 0, 0), rgb(255, 255, 255)); white-space: normal;&quot;&gt;void&lt;/span&gt;&lt;br&gt;+ onWeightEntered(double weight)&lt;font style=&quot;background-color: transparent; color: light-dark(rgb(0, 0, 0), rgb(255, 255, 255)); white-space: normal;&quot;&gt;:&lt;/font&gt;&lt;span style=&quot;background-color: transparent; color: light-dark(rgb(0, 0, 0), rgb(255, 255, 255)); white-space: normal;&quot;&gt;void&lt;/span&gt; &lt;br&gt;+&lt;font style=&quot;background-color: transparent; color: light-dark(rgb(0, 0, 0), rgb(255, 255, 255)); white-space: normal;&quot;&gt; validateAndFinish()&lt;/font&gt;&lt;font style=&quot;background-color: transparent; color: light-dark(rgb(0, 0, 0), rgb(255, 255, 255)); white-space: normal;&quot;&gt;:&lt;/font&gt;&lt;span style=&quot;background-color: transparent; color: light-dark(rgb(0, 0, 0), rgb(255, 255, 255));&quot;&gt;&lt;span style=&quot;white-space: normal;&quot;&gt;void&lt;br&gt;&lt;/span&gt;&lt;/span&gt;+&lt;font style=&quot;background-color: transparent; color: light-dark(rgb(0, 0, 0), rgb(255, 255, 255)); white-space: normal;&quot;&gt; cancelLogging()&lt;/font&gt;&lt;font style=&quot;background-color: transparent; color: light-dark(rgb(0, 0, 0), rgb(255, 255, 255)); white-space: normal;&quot;&gt;:&lt;/font&gt;&lt;span style=&quot;background-color: transparent; color: light-dark(rgb(0, 0, 0), rgb(255, 255, 255));&quot;&gt;&lt;span style=&quot;white-space: normal;&quot;&gt;void&lt;br&gt;&lt;/span&gt;&lt;/span&gt;+&lt;font style=&quot;background-color: transparent; color: light-dark(rgb(0, 0, 0), rgb(255, 255, 255)); white-space: normal;&quot;&gt; showError(String message):&lt;/font&gt;&lt;span style=&quot;background-color: transparent; color: light-dark(rgb(0, 0, 0), rgb(255, 255, 255)); white-space: normal;&quot;&gt;void&amp;nbsp;&amp;nbsp;&lt;/span&gt;&lt;/font&gt;&lt;/b&gt;&lt;/pre&gt;" style="verticalAlign=top;align=left;overflow=fill;html=1;whiteSpace=wrap;strokeColor=light-dark(#000000,#006666);fillColor=light-dark(#006666,#000000);" vertex="1" parent="1">
          <mxGeometry x="2585" y="1460" width="315" height="280" as="geometry" />
        </mxCell>
        <mxCell id="tQyVGpeCjlCovoECdZ1f-283" value="&lt;p style=&quot;margin:0px;margin-top:4px;text-align:center;&quot;&gt;&lt;b&gt;&lt;font face=&quot;Verdana&quot;&gt;FishLog&lt;/font&gt;&lt;/b&gt;&lt;/p&gt;&lt;hr size=&quot;1&quot; style=&quot;border-style:solid;&quot;&gt;&lt;pre style=&quot;margin:0px;margin-left:4px;&quot;&gt;&lt;b&gt;&lt;font face=&quot;Verdana&quot;&gt;- &lt;/font&gt;&lt;/b&gt;&lt;span style=&quot;white-space: normal;&quot;&gt;&lt;b style=&quot;&quot;&gt;&lt;font face=&quot;Verdana&quot;&gt;FisherManID: int&lt;/font&gt;&lt;/b&gt;&lt;/span&gt;&lt;b&gt;&lt;font face=&quot;Verdana&quot;&gt;&lt;br&gt;&lt;span style=&quot;font-size: 11px; text-align: center; background-color: transparent; color: light-dark(rgb(0, 0, 0), rgb(255, 255, 255));&quot; class=&quot;token keyword&quot;&gt;-&lt;/span&gt;&lt;span style=&quot;text-align: center; background-color: transparent; color: light-dark(rgb(0, 0, 0), rgb(255, 255, 255));&quot;&gt;&lt;span style=&quot;font-size: 11px;&quot;&gt; catchDate: Date&lt;br&gt;&lt;/span&gt;&lt;/span&gt;&lt;span style=&quot;text-align: center; background-color: transparent; color: light-dark(rgb(0, 0, 0), rgb(255, 255, 255));&quot;&gt;-&lt;/span&gt;&lt;span style=&quot;text-align: center; background-color: transparent; color: light-dark(rgb(0, 0, 0), rgb(255, 255, 255)); font-size: 11px;&quot;&gt; fishName:String&lt;br&gt;&lt;/span&gt;&lt;/font&gt;&lt;/b&gt;&lt;b style=&quot;font-family: Helvetica; text-align: center; white-space-collapse: collapse;&quot;&gt;&lt;font face=&quot;Verdana&quot;&gt;-typeName:&amp;nbsp;&lt;span style=&quot;background-color: transparent; color: light-dark(rgb(0, 0, 0), rgb(255, 255, 255));&quot;&gt;String&lt;/span&gt;&lt;span style=&quot;background-color: transparent; color: light-dark(rgb(0, 0, 0), rgb(255, 255, 255));&quot;&gt;&amp;nbsp;&lt;/span&gt;&lt;/font&gt;&lt;/b&gt;&lt;b&gt;&lt;font face=&quot;Verdana&quot;&gt;&lt;span style=&quot;text-align: center; background-color: transparent; color: light-dark(rgb(0, 0, 0), rgb(255, 255, 255));&quot;&gt;&lt;span style=&quot;font-size: 11px;&quot;&gt;&amp;nbsp;&lt;br&gt;&lt;/span&gt;&lt;/span&gt;&lt;span style=&quot;text-align: center; background-color: transparent; color: light-dark(rgb(0, 0, 0), rgb(255, 255, 255));&quot;&gt;-&lt;/span&gt;&lt;span style=&quot;text-align: center; background-color: transparent; color: light-dark(rgb(0, 0, 0), rgb(255, 255, 255)); font-size: 11px;&quot;&gt;&amp;nbsp;quantity:int&lt;/span&gt;&lt;font style=&quot;text-align: center; background-color: transparent; color: light-dark(rgb(0, 0, 0), rgb(255, 255, 255)); font-size: 11px;&quot;&gt;&amp;nbsp;&lt;br&gt;&lt;/font&gt;&lt;span style=&quot;text-align: center; background-color: transparent; color: light-dark(rgb(0, 0, 0), rgb(255, 255, 255)); font-size: 11px;&quot;&gt;- isValid&lt;/span&gt;&lt;font style=&quot;text-align: center; background-color: transparent; color: light-dark(rgb(0, 0, 0), rgb(255, 255, 255)); font-size: 11px;&quot;&gt;:&lt;/font&gt;&lt;span style=&quot;text-align: center; background-color: transparent; color: light-dark(rgb(0, 0, 0), rgb(255, 255, 255));&quot;&gt;&lt;span style=&quot;font-size: 11px;&quot;&gt;boolean&lt;br&gt;&lt;/span&gt;&lt;/span&gt;&lt;span style=&quot;text-align: center; background-color: transparent; color: light-dark(rgb(0, 0, 0), rgb(255, 255, 255));&quot;&gt;- weight:double&lt;/span&gt;&lt;/font&gt;&lt;/b&gt;&lt;/pre&gt;&lt;hr size=&quot;1&quot; style=&quot;border-style:solid;&quot;&gt;&lt;p style=&quot;margin:0px;margin-left:4px;&quot;&gt;&lt;b style=&quot;&quot;&gt;&lt;font face=&quot;Verdana&quot;&gt;+ validateWeight(): boolean&lt;br&gt;+ calculateTotalWeight(): void&lt;br&gt;+ gerateLogSummary():String&lt;/font&gt;&lt;/b&gt;&lt;/p&gt;" style="verticalAlign=top;align=left;overflow=fill;html=1;whiteSpace=wrap;strokeColor=light-dark(#000000,#006666);fillColor=light-dark(#006666,#000000);" vertex="1" parent="1">
          <mxGeometry x="3490" y="1270" width="215" height="240" as="geometry" />
        </mxCell>
        <mxCell id="tQyVGpeCjlCovoECdZ1f-284" value="&lt;p style=&quot;margin:0px;margin-top:4px;text-align:center;&quot;&gt;&lt;b&gt;&lt;font face=&quot;Verdana&quot;&gt;ErrorHandler&lt;/font&gt;&lt;/b&gt;&lt;/p&gt;&lt;hr size=&quot;1&quot; style=&quot;border-style:solid;&quot;&gt;&lt;p style=&quot;margin:0px;margin-left:4px;&quot;&gt;&lt;b&gt;&lt;font face=&quot;Verdana&quot;&gt;+ Message: String&lt;/font&gt;&lt;/b&gt;&lt;/p&gt;&lt;hr size=&quot;1&quot; style=&quot;border-style:solid;&quot;&gt;&lt;p style=&quot;margin:0px;margin-left:4px;&quot;&gt;&lt;b&gt;&lt;font face=&quot;Verdana&quot;&gt;+ LogError(Exeption e): void&lt;/font&gt;&lt;/b&gt;&lt;/p&gt;" style="verticalAlign=top;align=left;overflow=fill;html=1;whiteSpace=wrap;strokeColor=light-dark(#000000,#006666);fillColor=light-dark(#006666,#000000);" vertex="1" parent="1">
          <mxGeometry x="2685" y="1900" width="160" height="90" as="geometry" />
        </mxCell>
        <mxCell id="tQyVGpeCjlCovoECdZ1f-285" value="&lt;p style=&quot;margin:0px;margin-top:4px;text-align:center;&quot;&gt;&lt;b&gt;&lt;font face=&quot;Verdana&quot;&gt;Fisherman&lt;/font&gt;&lt;/b&gt;&lt;/p&gt;&lt;hr size=&quot;1&quot; style=&quot;border-style:solid;&quot;&gt;&lt;p style=&quot;margin:0px;margin-left:4px;&quot;&gt;&lt;b&gt;&lt;font face=&quot;Verdana&quot;&gt;+ FisherManID: int&lt;/font&gt;&lt;/b&gt;&lt;/p&gt;" style="verticalAlign=top;align=left;overflow=fill;html=1;whiteSpace=wrap;strokeColor=light-dark(#000000,#006666);fillColor=light-dark(#006666,#000000);" vertex="1" parent="1">
          <mxGeometry x="2157" y="1470" width="160" height="60" as="geometry" />
        </mxCell>
        <mxCell id="tQyVGpeCjlCovoECdZ1f-286" value="&lt;p style=&quot;margin:0px;margin-top:4px;text-align:center;&quot;&gt;&lt;b&gt;&lt;font face=&quot;Verdana&quot;&gt;DateController&lt;/font&gt;&lt;/b&gt;&lt;/p&gt;&lt;hr size=&quot;1&quot; style=&quot;border-style:solid;&quot;&gt;&lt;p style=&quot;margin:0px;margin-left:4px;&quot;&gt;&lt;b&gt;&lt;font face=&quot;Verdana&quot;&gt;+ catchDate:Date&lt;/font&gt;&lt;/b&gt;&lt;/p&gt;&lt;hr size=&quot;1&quot; style=&quot;border-style:solid;&quot;&gt;&lt;p style=&quot;margin:0px;margin-left:4px;&quot;&gt;&lt;b&gt;&lt;font face=&quot;Verdana&quot;&gt;+ parseDate(String input): Date&lt;br&gt;&lt;/font&gt;&lt;/b&gt;&lt;br&gt;&lt;/p&gt;" style="verticalAlign=top;align=left;overflow=fill;html=1;whiteSpace=wrap;strokeColor=light-dark(#000000,#006666);fillColor=light-dark(#006666,#000000);" vertex="1" parent="1">
          <mxGeometry x="2757.5" y="2190" width="322.5" height="110" as="geometry" />
        </mxCell>
        <mxCell id="tQyVGpeCjlCovoECdZ1f-287" value="&lt;p style=&quot;margin:0px;margin-top:4px;text-align:center;&quot;&gt;&lt;b&gt;&lt;font face=&quot;Verdana&quot;&gt;QuantityController&lt;/font&gt;&lt;/b&gt;&lt;/p&gt;&lt;hr size=&quot;1&quot; style=&quot;border-style:solid;&quot;&gt;&lt;p style=&quot;margin:0px;margin-left:4px;&quot;&gt;&lt;b&gt;&lt;font face=&quot;Verdana&quot;&gt;+ quantity:int&lt;/font&gt;&lt;/b&gt;&lt;/p&gt;&lt;hr size=&quot;1&quot; style=&quot;border-style:solid;&quot;&gt;&lt;p style=&quot;margin:0px;margin-left:4px;&quot;&gt;&lt;b&gt;&lt;font face=&quot;Verdana&quot;&gt;+ validateQuantity(int quantity): boolean&lt;br&gt;&lt;br&gt;&lt;/font&gt;&lt;/b&gt;&lt;br&gt;&lt;/p&gt;" style="verticalAlign=top;align=left;overflow=fill;html=1;whiteSpace=wrap;strokeColor=light-dark(#000000,#006666);fillColor=light-dark(#006666,#000000);" vertex="1" parent="1">
          <mxGeometry x="3170" y="2005" width="322.5" height="100" as="geometry" />
        </mxCell>
        <mxCell id="tQyVGpeCjlCovoECdZ1f-288" value="Use" style="endArrow=open;endSize=12;dashed=1;html=1;rounded=0;exitX=1;exitY=0.159;exitDx=0;exitDy=0;exitPerimeter=0;entryX=-0.002;entryY=0.062;entryDx=0;entryDy=0;entryPerimeter=0;" edge="1" parent="1" source="tQyVGpeCjlCovoECdZ1f-285" target="tQyVGpeCjlCovoECdZ1f-282">
          <mxGeometry x="-0.0794" y="9" width="160" relative="1" as="geometry">
            <mxPoint x="2159.5" y="1480" as="sourcePoint" />
            <mxPoint x="2580" y="1480" as="targetPoint" />
            <mxPoint as="offset" />
          </mxGeometry>
        </mxCell>
        <mxCell id="tQyVGpeCjlCovoECdZ1f-289" value="&lt;p style=&quot;margin:0px;margin-top:4px;text-align:center;&quot;&gt;&lt;b&gt;&lt;font face=&quot;Verdana&quot;&gt;FinishLogScreen&lt;/font&gt;&lt;/b&gt;&lt;/p&gt;&lt;hr size=&quot;1&quot; style=&quot;border-style:solid;&quot;&gt;&lt;pre style=&quot;margin:0px;margin-left:4px;&quot;&gt;&lt;b&gt;&lt;font face=&quot;Verdana&quot;&gt;- List &amp;lt;FishLog&amp;gt;&lt;br&gt;&lt;/font&gt;&lt;/b&gt;&lt;/pre&gt;&lt;hr size=&quot;1&quot; style=&quot;border-style:solid;&quot;&gt;&lt;p style=&quot;margin:0px;margin-left:4px;&quot;&gt;&lt;b style=&quot;&quot;&gt;&lt;font face=&quot;Verdana&quot;&gt;+ displayLog(): String&lt;/font&gt;&lt;/b&gt;&lt;/p&gt;" style="verticalAlign=top;align=left;overflow=fill;html=1;whiteSpace=wrap;strokeColor=light-dark(#000000,#006666);fillColor=light-dark(#006666,#000000);" vertex="1" parent="1">
          <mxGeometry x="2200" y="2030" width="260" height="140" as="geometry" />
        </mxCell>
        <mxCell id="tQyVGpeCjlCovoECdZ1f-290" value="" style="endArrow=none;html=1;edgeStyle=orthogonalEdgeStyle;rounded=0;entryX=0;entryY=0;entryDx=0;entryDy=0;exitX=1.002;exitY=0.127;exitDx=0;exitDy=0;exitPerimeter=0;" edge="1" parent="1" source="tQyVGpeCjlCovoECdZ1f-282" target="tQyVGpeCjlCovoECdZ1f-283">
          <mxGeometry relative="1" as="geometry">
            <mxPoint x="2820" y="1390" as="sourcePoint" />
            <mxPoint x="3105" y="1486" as="targetPoint" />
            <Array as="points">
              <mxPoint x="2901" y="1498" />
              <mxPoint x="3020" y="1498" />
              <mxPoint x="3020" y="1350" />
            </Array>
          </mxGeometry>
        </mxCell>
        <mxCell id="tQyVGpeCjlCovoECdZ1f-291" value="Creates" style="text;html=1;align=center;verticalAlign=middle;resizable=0;points=[];autosize=1;strokeColor=none;fillColor=none;" vertex="1" parent="1">
          <mxGeometry x="2960" y="1400" width="70" height="30" as="geometry" />
        </mxCell>
        <mxCell id="tQyVGpeCjlCovoECdZ1f-292" value="1" style="text;html=1;align=center;verticalAlign=middle;resizable=0;points=[];autosize=1;strokeColor=none;fillColor=none;" vertex="1" parent="1">
          <mxGeometry x="3123.75" y="1320" width="30" height="30" as="geometry" />
        </mxCell>
        <mxCell id="tQyVGpeCjlCovoECdZ1f-293" value="1" style="text;html=1;align=center;verticalAlign=middle;resizable=0;points=[];autosize=1;strokeColor=none;fillColor=none;" vertex="1" parent="1">
          <mxGeometry x="2919" y="1470" width="30" height="30" as="geometry" />
        </mxCell>
        <mxCell id="tQyVGpeCjlCovoECdZ1f-294" value="" style="endArrow=none;html=1;edgeStyle=orthogonalEdgeStyle;rounded=0;exitX=0.868;exitY=1.01;exitDx=0;exitDy=0;exitPerimeter=0;" edge="1" parent="1" source="tQyVGpeCjlCovoECdZ1f-282" target="tQyVGpeCjlCovoECdZ1f-284">
          <mxGeometry relative="1" as="geometry">
            <mxPoint x="2884.8999999999996" y="2070" as="sourcePoint" />
            <mxPoint x="2486.05" y="1971.7400000000002" as="targetPoint" />
            <Array as="points">
              <mxPoint x="2858" y="1970" />
            </Array>
          </mxGeometry>
        </mxCell>
        <mxCell id="tQyVGpeCjlCovoECdZ1f-295" value="Has" style="text;html=1;align=center;verticalAlign=middle;resizable=0;points=[];autosize=1;strokeColor=none;fillColor=none;" vertex="1" parent="1">
          <mxGeometry x="2860" y="1890" width="40" height="30" as="geometry" />
        </mxCell>
        <mxCell id="tQyVGpeCjlCovoECdZ1f-296" value="" style="endArrow=none;html=1;edgeStyle=orthogonalEdgeStyle;rounded=0;exitX=0;exitY=0;exitDx=0;exitDy=0;" edge="1" parent="1" source="tQyVGpeCjlCovoECdZ1f-287" target="tQyVGpeCjlCovoECdZ1f-282">
          <mxGeometry relative="1" as="geometry">
            <mxPoint x="3099.9775" y="1880" as="sourcePoint" />
            <mxPoint x="2902.98" y="1650" as="targetPoint" />
            <Array as="points">
              <mxPoint x="3100" y="2005" />
              <mxPoint x="3100" y="1710" />
            </Array>
          </mxGeometry>
        </mxCell>
        <mxCell id="tQyVGpeCjlCovoECdZ1f-297" value="Validates" style="text;html=1;align=center;verticalAlign=middle;resizable=0;points=[];autosize=1;strokeColor=none;fillColor=none;" vertex="1" parent="1">
          <mxGeometry x="3030" y="1890" width="70" height="30" as="geometry" />
        </mxCell>
        <mxCell id="tQyVGpeCjlCovoECdZ1f-298" value="1" style="text;html=1;align=center;verticalAlign=middle;resizable=0;points=[];autosize=1;strokeColor=none;fillColor=none;" vertex="1" parent="1">
          <mxGeometry x="2900" y="1710" width="30" height="30" as="geometry" />
        </mxCell>
        <mxCell id="tQyVGpeCjlCovoECdZ1f-299" value="1" style="text;html=1;align=center;verticalAlign=middle;resizable=0;points=[];autosize=1;strokeColor=none;fillColor=none;" vertex="1" parent="1">
          <mxGeometry x="3110" y="1970" width="30" height="30" as="geometry" />
        </mxCell>
        <mxCell id="tQyVGpeCjlCovoECdZ1f-300" value="" style="endArrow=none;html=1;edgeStyle=orthogonalEdgeStyle;rounded=0;exitX=0.002;exitY=0.163;exitDx=0;exitDy=0;exitPerimeter=0;entryX=0.002;entryY=0.595;entryDx=0;entryDy=0;entryPerimeter=0;" edge="1" parent="1" source="tQyVGpeCjlCovoECdZ1f-286" target="tQyVGpeCjlCovoECdZ1f-282">
          <mxGeometry relative="1" as="geometry">
            <mxPoint x="2556.4975000000004" y="2019" as="sourcePoint" />
            <mxPoint x="2446.285" y="1609.6799999999998" as="targetPoint" />
            <Array as="points">
              <mxPoint x="2556" y="2208" />
              <mxPoint x="2556" y="1627" />
            </Array>
          </mxGeometry>
        </mxCell>
        <mxCell id="tQyVGpeCjlCovoECdZ1f-301" value="Validates" style="text;html=1;align=center;verticalAlign=middle;resizable=0;points=[];autosize=1;strokeColor=none;fillColor=none;" vertex="1" parent="1">
          <mxGeometry x="2570" y="1870" width="70" height="30" as="geometry" />
        </mxCell>
        <mxCell id="tQyVGpeCjlCovoECdZ1f-302" value="1" style="text;html=1;align=center;verticalAlign=middle;resizable=0;points=[];autosize=1;strokeColor=none;fillColor=none;" vertex="1" parent="1">
          <mxGeometry x="2520" y="1620" width="30" height="30" as="geometry" />
        </mxCell>
        <mxCell id="tQyVGpeCjlCovoECdZ1f-303" value="1" style="text;html=1;align=center;verticalAlign=middle;resizable=0;points=[];autosize=1;strokeColor=none;fillColor=none;" vertex="1" parent="1">
          <mxGeometry x="2700" y="2160" width="30" height="30" as="geometry" />
        </mxCell>
        <mxCell id="tQyVGpeCjlCovoECdZ1f-304" value="" style="endArrow=none;html=1;edgeStyle=orthogonalEdgeStyle;rounded=0;entryX=1;entryY=0.5;entryDx=0;entryDy=0;exitX=0.006;exitY=0.416;exitDx=0;exitDy=0;exitPerimeter=0;" edge="1" parent="1" source="tQyVGpeCjlCovoECdZ1f-330" target="tQyVGpeCjlCovoECdZ1f-282">
          <mxGeometry relative="1" as="geometry">
            <mxPoint x="3570.2799999999997" y="1695.2000000000003" as="sourcePoint" />
            <mxPoint x="3397.005" y="1568.4499999999998" as="targetPoint" />
            <Array as="points">
              <mxPoint x="3397" y="1689" />
              <mxPoint x="3397" y="1600" />
            </Array>
          </mxGeometry>
        </mxCell>
        <mxCell id="tQyVGpeCjlCovoECdZ1f-305" value="References" style="text;html=1;align=center;verticalAlign=middle;resizable=0;points=[];autosize=1;strokeColor=none;fillColor=none;" vertex="1" parent="1">
          <mxGeometry x="3397" y="1650" width="80" height="30" as="geometry" />
        </mxCell>
        <mxCell id="tQyVGpeCjlCovoECdZ1f-306" value="1" style="text;html=1;align=center;verticalAlign=middle;resizable=0;points=[];autosize=1;strokeColor=none;fillColor=none;" vertex="1" parent="1">
          <mxGeometry x="2900" y="1570" width="30" height="30" as="geometry" />
        </mxCell>
        <mxCell id="tQyVGpeCjlCovoECdZ1f-307" value="n" style="text;html=1;align=center;verticalAlign=middle;resizable=0;points=[];autosize=1;strokeColor=none;fillColor=none;" vertex="1" parent="1">
          <mxGeometry x="3538.9" y="1660" width="30" height="30" as="geometry" />
        </mxCell>
        <mxCell id="tQyVGpeCjlCovoECdZ1f-308" value="1" style="text;html=1;align=center;verticalAlign=middle;resizable=0;points=[];autosize=1;strokeColor=none;fillColor=none;" vertex="1" parent="1">
          <mxGeometry x="3720" y="1400" width="30" height="30" as="geometry" />
        </mxCell>
        <mxCell id="tQyVGpeCjlCovoECdZ1f-309" value="" style="endArrow=none;html=1;edgeStyle=orthogonalEdgeStyle;rounded=0;entryX=1.023;entryY=0.708;entryDx=0;entryDy=0;entryPerimeter=0;" edge="1" parent="1" target="tQyVGpeCjlCovoECdZ1f-283">
          <mxGeometry relative="1" as="geometry">
            <mxPoint x="3815.83" y="1764" as="sourcePoint" />
            <mxPoint x="3730" y="1440" as="targetPoint" />
            <Array as="points">
              <mxPoint x="3920" y="1764" />
              <mxPoint x="3920" y="1440" />
            </Array>
          </mxGeometry>
        </mxCell>
        <mxCell id="tQyVGpeCjlCovoECdZ1f-310" value="1" style="text;html=1;align=center;verticalAlign=middle;resizable=0;points=[];autosize=1;strokeColor=none;fillColor=none;" vertex="1" parent="1">
          <mxGeometry x="3400" y="1360" width="30" height="30" as="geometry" />
        </mxCell>
        <mxCell id="tQyVGpeCjlCovoECdZ1f-311" value="1" style="text;html=1;align=center;verticalAlign=middle;resizable=0;points=[];autosize=1;strokeColor=none;fillColor=none;" vertex="1" parent="1">
          <mxGeometry x="3538.9" y="1750" width="30" height="30" as="geometry" />
        </mxCell>
        <mxCell id="tQyVGpeCjlCovoECdZ1f-312" value="&lt;b&gt;&lt;font face=&quot;Verdana&quot;&gt;Finalises&lt;/font&gt;&lt;/b&gt;" style="text;html=1;align=center;verticalAlign=middle;resizable=0;points=[];autosize=1;strokeColor=none;fillColor=none;" vertex="1" parent="1">
          <mxGeometry x="3920" y="1630" width="80" height="30" as="geometry" />
        </mxCell>
        <mxCell id="tQyVGpeCjlCovoECdZ1f-313" value="" style="endArrow=none;html=1;edgeStyle=orthogonalEdgeStyle;rounded=0;exitX=0;exitY=0.348;exitDx=0;exitDy=0;exitPerimeter=0;" edge="1" parent="1" source="tQyVGpeCjlCovoECdZ1f-283">
          <mxGeometry relative="1" as="geometry">
            <mxPoint x="3459" y="1360.04" as="sourcePoint" />
            <mxPoint x="3365" y="1600" as="targetPoint" />
            <Array as="points">
              <mxPoint x="3400" y="1360" />
              <mxPoint x="3400" y="1522" />
              <mxPoint x="3365" y="1522" />
            </Array>
          </mxGeometry>
        </mxCell>
        <mxCell id="tQyVGpeCjlCovoECdZ1f-314" value="" style="endArrow=none;html=1;edgeStyle=orthogonalEdgeStyle;rounded=0;exitX=1;exitY=0.694;exitDx=0;exitDy=0;exitPerimeter=0;entryX=0;entryY=0.75;entryDx=0;entryDy=0;" edge="1" parent="1" source="tQyVGpeCjlCovoECdZ1f-282" target="tQyVGpeCjlCovoECdZ1f-330">
          <mxGeometry relative="1" as="geometry">
            <mxPoint x="3153.75" y="1660" as="sourcePoint" />
            <mxPoint x="3313.75" y="1899.88" as="targetPoint" />
            <Array as="points">
              <mxPoint x="3234" y="1654" />
              <mxPoint x="3234" y="1750" />
              <mxPoint x="3569" y="1750" />
            </Array>
          </mxGeometry>
        </mxCell>
        <mxCell id="tQyVGpeCjlCovoECdZ1f-315" value="1" style="text;html=1;align=center;verticalAlign=middle;resizable=0;points=[];autosize=1;strokeColor=none;fillColor=none;" vertex="1" parent="1">
          <mxGeometry x="2909" y="1620" width="30" height="30" as="geometry" />
        </mxCell>
        <mxCell id="tQyVGpeCjlCovoECdZ1f-316" value="Checks" style="text;html=1;align=center;verticalAlign=middle;resizable=0;points=[];autosize=1;strokeColor=none;fillColor=none;" vertex="1" parent="1">
          <mxGeometry x="3250" y="1760" width="60" height="30" as="geometry" />
        </mxCell>
        <mxCell id="tQyVGpeCjlCovoECdZ1f-317" value="" style="endArrow=none;html=1;edgeStyle=orthogonalEdgeStyle;rounded=0;entryX=0.404;entryY=1.048;entryDx=0;entryDy=0;entryPerimeter=0;" edge="1" parent="1" target="tQyVGpeCjlCovoECdZ1f-284">
          <mxGeometry relative="1" as="geometry">
            <mxPoint x="3920" y="1760" as="sourcePoint" />
            <mxPoint x="3510.98" y="2238.9700000000003" as="targetPoint" />
            <Array as="points">
              <mxPoint x="3060" y="2140" />
              <mxPoint x="3060" y="2110" />
              <mxPoint x="2750" y="2110" />
            </Array>
          </mxGeometry>
        </mxCell>
        <mxCell id="tQyVGpeCjlCovoECdZ1f-318" value="OverWeight" style="text;html=1;align=center;verticalAlign=middle;resizable=0;points=[];autosize=1;strokeColor=none;fillColor=none;" vertex="1" parent="1">
          <mxGeometry x="3818.9" y="1890" width="90" height="30" as="geometry" />
        </mxCell>
        <mxCell id="tQyVGpeCjlCovoECdZ1f-319" value="&lt;b&gt;&lt;font face=&quot;Verdana&quot;&gt;Finalises&lt;/font&gt;&lt;/b&gt;" style="text;html=1;align=center;verticalAlign=middle;resizable=0;points=[];autosize=1;strokeColor=none;fillColor=none;" vertex="1" parent="1">
          <mxGeometry x="3550" y="2000" width="80" height="30" as="geometry" />
        </mxCell>
        <mxCell id="tQyVGpeCjlCovoECdZ1f-320" value="1" style="text;html=1;align=center;verticalAlign=middle;resizable=0;points=[];autosize=1;strokeColor=none;fillColor=none;" vertex="1" parent="1">
          <mxGeometry x="3390" y="2030" width="30" height="30" as="geometry" />
        </mxCell>
        <mxCell id="tQyVGpeCjlCovoECdZ1f-321" value="1" style="text;html=1;align=center;verticalAlign=middle;resizable=0;points=[];autosize=1;strokeColor=none;fillColor=none;" vertex="1" parent="1">
          <mxGeometry x="3710" y="1310" width="30" height="30" as="geometry" />
        </mxCell>
        <mxCell id="tQyVGpeCjlCovoECdZ1f-322" value="" style="endArrow=none;html=1;edgeStyle=orthogonalEdgeStyle;rounded=0;" edge="1" parent="1">
          <mxGeometry relative="1" as="geometry">
            <mxPoint x="2420" y="2030" as="sourcePoint" />
            <mxPoint x="2586" y="1600" as="targetPoint" />
            <Array as="points">
              <mxPoint x="2420" y="1600" />
              <mxPoint x="2586" y="1600" />
            </Array>
          </mxGeometry>
        </mxCell>
        <mxCell id="tQyVGpeCjlCovoECdZ1f-323" value="&lt;b&gt;Confirm Finish&lt;/b&gt;" style="text;html=1;align=center;verticalAlign=middle;resizable=0;points=[];autosize=1;strokeColor=none;fillColor=none;" vertex="1" parent="1">
          <mxGeometry x="2305" y="1824" width="110" height="30" as="geometry" />
        </mxCell>
        <mxCell id="tQyVGpeCjlCovoECdZ1f-324" value="1" style="text;html=1;align=center;verticalAlign=middle;resizable=0;points=[];autosize=1;strokeColor=none;fillColor=none;" vertex="1" parent="1">
          <mxGeometry x="3110" y="2240" width="30" height="30" as="geometry" />
        </mxCell>
        <mxCell id="tQyVGpeCjlCovoECdZ1f-325" value="&lt;b&gt;&lt;font face=&quot;Verdana&quot;&gt;Finalises&lt;/font&gt;&lt;/b&gt;" style="text;html=1;align=center;verticalAlign=middle;resizable=0;points=[];autosize=1;strokeColor=none;fillColor=none;" vertex="1" parent="1">
          <mxGeometry x="3557.5" y="2240" width="80" height="30" as="geometry" />
        </mxCell>
        <mxCell id="tQyVGpeCjlCovoECdZ1f-326" value="n" style="text;html=1;align=center;verticalAlign=middle;resizable=0;points=[];autosize=1;strokeColor=none;fillColor=none;" vertex="1" parent="1">
          <mxGeometry x="3447" y="1240" width="30" height="30" as="geometry" />
        </mxCell>
        <mxCell id="tQyVGpeCjlCovoECdZ1f-327" value="1" style="text;html=1;align=center;verticalAlign=middle;resizable=0;points=[];autosize=1;strokeColor=none;fillColor=none;" vertex="1" parent="1">
          <mxGeometry x="2250" y="1430" width="30" height="30" as="geometry" />
        </mxCell>
        <mxCell id="tQyVGpeCjlCovoECdZ1f-328" value="1" style="text;html=1;align=center;verticalAlign=middle;resizable=0;points=[];autosize=1;strokeColor=none;fillColor=none;" vertex="1" parent="1">
          <mxGeometry x="2805" y="760" width="30" height="30" as="geometry" />
        </mxCell>
        <mxCell id="tQyVGpeCjlCovoECdZ1f-329" value="Enters" style="endArrow=open;endSize=12;dashed=1;html=1;rounded=0;exitX=0.5;exitY=0;exitDx=0;exitDy=0;" edge="1" parent="1" source="tQyVGpeCjlCovoECdZ1f-285">
          <mxGeometry x="0.0089" y="-11" width="160" relative="1" as="geometry">
            <mxPoint x="2251.5" y="1390" as="sourcePoint" />
            <mxPoint x="3490" y="1268" as="targetPoint" />
            <mxPoint as="offset" />
            <Array as="points">
              <mxPoint x="2237" y="1270" />
            </Array>
          </mxGeometry>
        </mxCell>
        <mxCell id="tQyVGpeCjlCovoECdZ1f-330" value="&lt;p style=&quot;margin:0px;margin-top:4px;text-align:center;&quot;&gt;&lt;b&gt;&lt;font face=&quot;Verdana&quot;&gt;FishTypeContr&lt;/font&gt;&lt;/b&gt;&lt;/p&gt;&lt;hr style=&quot;border-style: solid;&quot; size=&quot;1&quot;&gt;&lt;div style=&quot;text-wrap-mode: nowrap; text-align: center;&quot;&gt;&lt;b&gt;&lt;font face=&quot;Verdana&quot;&gt;-&amp;nbsp;&lt;span style=&quot;background-color: transparent; color: light-dark(rgb(0, 0, 0), rgb(255, 255, 255));&quot;&gt;typeId: int&lt;/span&gt;&lt;span style=&quot;background-color: transparent; color: light-dark(rgb(0, 0, 0), rgb(255, 255, 255));&quot;&gt;&amp;nbsp;&lt;/span&gt;&lt;/font&gt;&lt;/b&gt;&lt;/div&gt;&lt;div style=&quot;text-wrap-mode: nowrap; text-align: center;&quot;&gt;&lt;b&gt;&lt;font face=&quot;Verdana&quot;&gt;-typeName:&amp;nbsp;&lt;span style=&quot;background-color: transparent; color: light-dark(rgb(0, 0, 0), rgb(255, 255, 255));&quot;&gt;String&lt;/span&gt;&lt;span style=&quot;background-color: transparent; color: light-dark(rgb(0, 0, 0), rgb(255, 255, 255));&quot;&gt;&amp;nbsp;&lt;/span&gt;&lt;/font&gt;&lt;/b&gt;&lt;/div&gt;&lt;div style=&quot;text-wrap-mode: nowrap; text-align: center;&quot;&gt;&lt;b&gt;&lt;font face=&quot;Verdana&quot;&gt;-List availableTypes&lt;/font&gt;&lt;/b&gt;&lt;b style=&quot;background-color: transparent; color: light-dark(rgb(0, 0, 0), rgb(255, 255, 255));&quot;&gt;&lt;font face=&quot;Verdana&quot;&gt;:String&lt;/font&gt;&lt;/b&gt;&lt;/div&gt;&lt;div style=&quot;text-wrap-mode: nowrap; text-align: center;&quot;&gt;&lt;b&gt;&lt;font face=&quot;Verdana&quot;&gt;- maxAllowedWeight:&lt;span style=&quot;background-color: transparent; color: light-dark(rgb(0, 0, 0), rgb(255, 255, 255));&quot;&gt;double&lt;/span&gt;&lt;span style=&quot;background-color: transparent; color: light-dark(rgb(0, 0, 0), rgb(255, 255, 255));&quot;&gt;&amp;nbsp;&lt;/span&gt;&lt;/font&gt;&lt;/b&gt;&lt;/div&gt;&lt;hr size=&quot;1&quot; style=&quot;border-style:solid;&quot;&gt;&lt;p style=&quot;margin: 0px 0px 0px 4px;&quot;&gt;&lt;b&gt;&lt;font face=&quot;Verdana&quot;&gt;+ validateWeight( double weight, String FishType): boolean&lt;br&gt;+getWeightRegulations( String FishType)&lt;/font&gt;&lt;/b&gt;&lt;/p&gt;" style="verticalAlign=top;align=left;overflow=fill;html=1;whiteSpace=wrap;strokeColor=light-dark(#000000,#006666);fillColor=light-dark(#006666,#000000);" vertex="1" parent="1">
          <mxGeometry x="3568.9" y="1610" width="250" height="190" as="geometry" />
        </mxCell>
        <mxCell id="tQyVGpeCjlCovoECdZ1f-331" value="" style="endArrow=none;html=1;edgeStyle=orthogonalEdgeStyle;rounded=0;exitX=1;exitY=0.5;exitDx=0;exitDy=0;entryX=0.981;entryY=0.283;entryDx=0;entryDy=0;entryPerimeter=0;strokeColor=light-dark(#000000,#006666);" edge="1" parent="1" source="tQyVGpeCjlCovoECdZ1f-287" target="tQyVGpeCjlCovoECdZ1f-283">
          <mxGeometry relative="1" as="geometry">
            <mxPoint x="3510" y="1846" as="sourcePoint" />
            <mxPoint x="3785" y="1430" as="targetPoint" />
            <Array as="points">
              <mxPoint x="4020" y="2055" />
              <mxPoint x="4020" y="1340" />
              <mxPoint x="3701" y="1340" />
            </Array>
          </mxGeometry>
        </mxCell>
        <mxCell id="tQyVGpeCjlCovoECdZ1f-332" value="1" style="text;html=1;align=center;verticalAlign=middle;resizable=0;points=[];autosize=1;strokeColor=none;fillColor=none;" vertex="1" parent="1">
          <mxGeometry x="3830" y="1770" width="30" height="30" as="geometry" />
        </mxCell>
        <mxCell id="tQyVGpeCjlCovoECdZ1f-333" value="" style="endArrow=none;html=1;edgeStyle=orthogonalEdgeStyle;rounded=0;entryX=0.995;entryY=0.128;entryDx=0;entryDy=0;entryPerimeter=0;" edge="1" parent="1" target="tQyVGpeCjlCovoECdZ1f-283">
          <mxGeometry relative="1" as="geometry">
            <mxPoint x="3080" y="2275" as="sourcePoint" />
            <mxPoint x="3700" y="1310" as="targetPoint" />
            <Array as="points">
              <mxPoint x="4090" y="2276" />
              <mxPoint x="4090" y="1302" />
            </Array>
          </mxGeometry>
        </mxCell>
        <mxCell id="tQyVGpeCjlCovoECdZ1f-334" value="1" style="text;html=1;align=center;verticalAlign=middle;resizable=0;points=[];autosize=1;strokeColor=none;fillColor=none;" vertex="1" parent="1">
          <mxGeometry x="3710" y="1270" width="30" height="30" as="geometry" />
        </mxCell>
        <mxCell id="tQyVGpeCjlCovoECdZ1f-335" value="1" style="text;html=1;align=center;verticalAlign=middle;resizable=0;points=[];autosize=1;strokeColor=none;fillColor=none;" vertex="1" parent="1">
          <mxGeometry x="2757.5" y="2000" width="30" height="30" as="geometry" />
        </mxCell>
        <mxCell id="tQyVGpeCjlCovoECdZ1f-336" value="&lt;span style=&quot;font-size: 12px; background-color: rgb(27, 29, 30);&quot;&gt;places&lt;/span&gt;" style="endArrow=open;endSize=12;dashed=1;html=1;rounded=0;exitX=0.406;exitY=1;exitDx=0;exitDy=0;exitPerimeter=0;entryX=-0.01;entryY=0.616;entryDx=0;entryDy=0;entryPerimeter=0;" edge="1" parent="1" source="tQyVGpeCjlCovoECdZ1f-350" target="tQyVGpeCjlCovoECdZ1f-337">
          <mxGeometry width="160" relative="1" as="geometry">
            <mxPoint x="2135" y="290" as="sourcePoint" />
            <mxPoint x="2570" y="1020" as="targetPoint" />
            <Array as="points">
              <mxPoint x="2130" y="1020" />
            </Array>
          </mxGeometry>
        </mxCell>
        <mxCell id="tQyVGpeCjlCovoECdZ1f-337" value="&lt;p style=&quot;margin:0px;margin-top:4px;text-align:center;&quot;&gt;&lt;b&gt;&lt;font face=&quot;Verdana&quot;&gt;Order&lt;/font&gt;&lt;/b&gt;&lt;/p&gt;&lt;hr size=&quot;1&quot; style=&quot;border-style:solid;&quot;&gt;&lt;p style=&quot;margin:0px;margin-left:4px;&quot;&gt;&lt;b&gt;&lt;font face=&quot;Verdana&quot;&gt;+ Chefid: int&lt;br&gt;+orderid: int&lt;br&gt;+ producer :producerId(Producer)&amp;nbsp;&lt;br&gt;+ Ingredients:&lt;br&gt;Map&amp;lt;Ingredients,quantity&amp;gt;&lt;br&gt;+ orderDate : Date&lt;br&gt;+ status:&lt;br&gt;&amp;nbsp;String(&quot;Confirmed&quot;,&quot;Canceld&quot;,&quot;Pending&quot;)&amp;nbsp;&lt;/font&gt;&lt;/b&gt;&lt;/p&gt;&lt;hr size=&quot;1&quot; style=&quot;border-style:solid;&quot;&gt;&lt;p style=&quot;margin:0px;margin-left:4px;&quot;&gt;&lt;b&gt;&lt;font face=&quot;Verdana&quot;&gt;+addIngredient(Ingredient, int)&lt;br&gt;&lt;/font&gt;&lt;/b&gt;&lt;b&gt;&lt;font face=&quot;Verdana&quot;&gt;+UpdateOrder()&lt;/font&gt;&lt;/b&gt;&lt;/p&gt;" style="verticalAlign=top;align=left;overflow=fill;html=1;whiteSpace=wrap;strokeColor=light-dark(#000000,#006666);fillColor=light-dark(#006666,#000000);" vertex="1" parent="1">
          <mxGeometry x="2580" y="890" width="290" height="210" as="geometry" />
        </mxCell>
        <mxCell id="tQyVGpeCjlCovoECdZ1f-338" value="" style="endArrow=none;html=1;edgeStyle=orthogonalEdgeStyle;rounded=0;exitX=0.556;exitY=1.002;exitDx=0;exitDy=0;exitPerimeter=0;" edge="1" parent="1" source="tQyVGpeCjlCovoECdZ1f-348">
          <mxGeometry relative="1" as="geometry">
            <mxPoint x="2810" y="770" as="sourcePoint" />
            <mxPoint x="2777" y="887" as="targetPoint" />
            <Array as="points">
              <mxPoint x="2810" y="820" />
              <mxPoint x="2777" y="820" />
            </Array>
          </mxGeometry>
        </mxCell>
        <mxCell id="tQyVGpeCjlCovoECdZ1f-339" value="Displayed" style="text;html=1;align=center;verticalAlign=middle;resizable=0;points=[];autosize=1;strokeColor=none;fillColor=none;" vertex="1" parent="1">
          <mxGeometry x="3180" y="560" width="80" height="30" as="geometry" />
        </mxCell>
        <mxCell id="tQyVGpeCjlCovoECdZ1f-340" value="Displayed" style="text;html=1;align=center;verticalAlign=middle;resizable=0;points=[];autosize=1;strokeColor=none;fillColor=none;" vertex="1" parent="1">
          <mxGeometry x="3340" y="740" width="80" height="30" as="geometry" />
        </mxCell>
        <mxCell id="tQyVGpeCjlCovoECdZ1f-341" value="&lt;p style=&quot;margin:0px;margin-top:4px;text-align:center;&quot;&gt;&lt;b&gt;&lt;font face=&quot;Verdana&quot;&gt;Producer&lt;/font&gt;&lt;/b&gt;&lt;/p&gt;&lt;hr size=&quot;1&quot; style=&quot;border-style:solid;&quot;&gt;&lt;p style=&quot;margin:0px;margin-left:4px;&quot;&gt;&lt;b&gt;&lt;font face=&quot;Verdana&quot;&gt;+producerId :int&lt;br&gt;+ Fullname: String&lt;br&gt;+ contactInfo :int&lt;br&gt;+availableIngredients:&lt;br&gt;List&amp;lt;Ingredients&amp;gt;&lt;/font&gt;&lt;/b&gt;&lt;/p&gt;&lt;hr size=&quot;1&quot; style=&quot;border-style:solid;&quot;&gt;&lt;p style=&quot;margin:0px;margin-left:4px;&quot;&gt;&lt;b&gt;&lt;font face=&quot;Verdana&quot;&gt;+getAvailableIngredients()&amp;nbsp;&lt;/font&gt;&lt;/b&gt;&lt;/p&gt;" style="verticalAlign=top;align=left;overflow=fill;html=1;whiteSpace=wrap;strokeColor=light-dark(#000000,#006666);fillColor=light-dark(#006666,#000000);" vertex="1" parent="1">
          <mxGeometry x="3150" y="820" width="160" height="140" as="geometry" />
        </mxCell>
        <mxCell id="tQyVGpeCjlCovoECdZ1f-342" value="1" style="text;html=1;align=center;verticalAlign=middle;resizable=0;points=[];autosize=1;strokeColor=none;fillColor=none;" vertex="1" parent="1">
          <mxGeometry x="2880" y="910" width="30" height="30" as="geometry" />
        </mxCell>
        <mxCell id="tQyVGpeCjlCovoECdZ1f-343" value="1" style="text;html=1;align=center;verticalAlign=middle;resizable=0;points=[];autosize=1;strokeColor=none;fillColor=none;" vertex="1" parent="1">
          <mxGeometry x="2900" y="970" width="30" height="30" as="geometry" />
        </mxCell>
        <mxCell id="tQyVGpeCjlCovoECdZ1f-344" value="" style="endArrow=none;html=1;edgeStyle=orthogonalEdgeStyle;rounded=0;exitX=0.44;exitY=-0.019;exitDx=0;exitDy=0;entryX=0.609;entryY=0.997;entryDx=0;entryDy=0;entryPerimeter=0;exitPerimeter=0;" edge="1" parent="1" source="tQyVGpeCjlCovoECdZ1f-361" target="tQyVGpeCjlCovoECdZ1f-341">
          <mxGeometry relative="1" as="geometry">
            <mxPoint x="3200" y="1130" as="sourcePoint" />
            <mxPoint x="3250" y="1030" as="targetPoint" />
          </mxGeometry>
        </mxCell>
        <mxCell id="tQyVGpeCjlCovoECdZ1f-345" value="Has a" style="text;html=1;align=center;verticalAlign=middle;resizable=0;points=[];autosize=1;strokeColor=none;fillColor=none;" vertex="1" parent="1">
          <mxGeometry x="3180" y="1020" width="50" height="30" as="geometry" />
        </mxCell>
        <mxCell id="tQyVGpeCjlCovoECdZ1f-346" value="1" style="text;html=1;align=center;verticalAlign=middle;resizable=0;points=[];autosize=1;strokeColor=none;fillColor=none;" vertex="1" parent="1">
          <mxGeometry x="3163.75" y="1100" width="30" height="30" as="geometry" />
        </mxCell>
        <mxCell id="tQyVGpeCjlCovoECdZ1f-347" value="1..n" style="text;html=1;align=center;verticalAlign=middle;resizable=0;points=[];autosize=1;strokeColor=none;fillColor=none;" vertex="1" parent="1">
          <mxGeometry x="3250" y="960" width="40" height="30" as="geometry" />
        </mxCell>
        <mxCell id="tQyVGpeCjlCovoECdZ1f-348" value="&lt;p style=&quot;margin:0px;margin-top:4px;text-align:center;&quot;&gt;&lt;b&gt;&lt;font face=&quot;Verdana&quot;&gt;OrderManager&lt;/font&gt;&lt;/b&gt;&lt;/p&gt;&lt;hr size=&quot;1&quot; style=&quot;border-style:solid;&quot;&gt;&lt;p style=&quot;margin:0px;margin-left:4px;&quot;&gt;&lt;b&gt;&lt;font face=&quot;Verdana&quot;&gt;+ orderId:int&lt;br&gt;&lt;/font&gt;&lt;/b&gt;&lt;span style=&quot;font-family: Verdana; font-weight: 700;&quot;&gt;+ isConfirmed :&lt;/span&gt;&lt;br style=&quot;font-family: Verdana; font-weight: 700;&quot;&gt;&lt;span style=&quot;font-family: Verdana; font-weight: 700;&quot;&gt;boolean Conf&lt;/span&gt;&lt;/p&gt;&lt;hr size=&quot;1&quot; style=&quot;border-style:solid;&quot;&gt;&lt;p style=&quot;margin:0px;margin-left:4px;&quot;&gt;&lt;b&gt;&lt;font face=&quot;Verdana&quot;&gt;+GetOrderDetails()&amp;nbsp;&lt;/font&gt;&lt;/b&gt;&lt;/p&gt;&lt;p style=&quot;margin:0px;margin-left:4px;&quot;&gt;&lt;b&gt;&lt;font face=&quot;Verdana&quot;&gt;+OrderConfirmed()&lt;/font&gt;&lt;/b&gt;&lt;/p&gt;&lt;p style=&quot;margin:0px;margin-left:4px;&quot;&gt;&lt;b&gt;&lt;font face=&quot;Verdana&quot;&gt;+cancelOrder() boolean&lt;br&gt;+UpdateOrder()&lt;/font&gt;&lt;/b&gt;&lt;/p&gt;&lt;div&gt;&lt;br&gt;&lt;/div&gt;" style="verticalAlign=top;align=left;overflow=fill;html=1;whiteSpace=wrap;strokeColor=light-dark(#000000,#006666);fillColor=light-dark(#006666,#000000);" vertex="1" parent="1">
          <mxGeometry x="2710" y="612" width="180" height="148" as="geometry" />
        </mxCell>
        <mxCell id="tQyVGpeCjlCovoECdZ1f-349" value="1" style="text;html=1;align=center;verticalAlign=middle;resizable=0;points=[];autosize=1;strokeColor=none;fillColor=none;" vertex="1" parent="1">
          <mxGeometry x="2820" y="580" width="30" height="30" as="geometry" />
        </mxCell>
        <mxCell id="tQyVGpeCjlCovoECdZ1f-350" value="&lt;p style=&quot;margin:0px;margin-top:4px;text-align:center;&quot;&gt;&lt;b&gt;&lt;font face=&quot;Verdana&quot;&gt;Chef&lt;/font&gt;&lt;/b&gt;&lt;/p&gt;&lt;hr size=&quot;1&quot; style=&quot;border-style:solid;&quot;&gt;&lt;p style=&quot;margin:0px;margin-left:4px;&quot;&gt;&lt;b&gt;&lt;font face=&quot;Verdana&quot;&gt;Chefid:&amp;nbsp; int&lt;/font&gt;&lt;/b&gt;&lt;/p&gt;&lt;p style=&quot;margin:0px;margin-left:4px;&quot;&gt;&lt;br&gt;&lt;/p&gt;" style="verticalAlign=top;align=left;overflow=fill;html=1;whiteSpace=wrap;fillColor=light-dark(#006666,#000000);strokeColor=light-dark(#000000,#006666);" vertex="1" parent="1">
          <mxGeometry x="2070" y="230" width="160" height="60" as="geometry" />
        </mxCell>
        <mxCell id="tQyVGpeCjlCovoECdZ1f-351" value="&lt;p style=&quot;margin:0px;margin-top:4px;text-align:center;&quot;&gt;&lt;b&gt;&lt;font face=&quot;Verdana&quot;&gt;ConfirmationScreen&lt;/font&gt;&lt;/b&gt;&lt;/p&gt;&lt;hr size=&quot;1&quot; style=&quot;border-style:solid;&quot;&gt;&lt;p style=&quot;margin:0px;margin-left:4px;&quot;&gt;&lt;b&gt;&lt;font face=&quot;Verdana&quot;&gt;+ CurrentOrder: int id&lt;br&gt;+ isConfirmed :&lt;br&gt;boolean Conf&lt;/font&gt;&lt;/b&gt;&lt;/p&gt;&lt;hr size=&quot;1&quot; style=&quot;border-style:solid;&quot;&gt;&lt;p style=&quot;margin:0px;margin-left:4px;&quot;&gt;&lt;b&gt;&lt;font face=&quot;Verdana&quot;&gt;+displayOrderDetails()&lt;/font&gt;&lt;/b&gt;&lt;/p&gt;&lt;p style=&quot;margin:0px;margin-left:4px;&quot;&gt;&lt;b&gt;&lt;font face=&quot;Verdana&quot;&gt;+OrderConfirmed()&lt;/font&gt;&lt;/b&gt;&lt;/p&gt;&lt;div&gt;&lt;br&gt;&lt;/div&gt;" style="verticalAlign=top;align=left;overflow=fill;html=1;whiteSpace=wrap;strokeColor=light-dark(#000000,#006666);fillColor=light-dark(#006666,#000000);" vertex="1" parent="1">
          <mxGeometry x="2250" y="350" width="175" height="130" as="geometry" />
        </mxCell>
        <mxCell id="tQyVGpeCjlCovoECdZ1f-352" value="" style="endArrow=none;html=1;edgeStyle=orthogonalEdgeStyle;rounded=0;entryX=0.457;entryY=1.025;entryDx=0;entryDy=0;entryPerimeter=0;" edge="1" parent="1" target="tQyVGpeCjlCovoECdZ1f-351">
          <mxGeometry relative="1" as="geometry">
            <mxPoint x="2710" y="682" as="sourcePoint" />
            <mxPoint x="2670" y="530" as="targetPoint" />
            <Array as="points">
              <mxPoint x="2330" y="682" />
            </Array>
          </mxGeometry>
        </mxCell>
        <mxCell id="tQyVGpeCjlCovoECdZ1f-353" value="Confirms" style="text;html=1;align=center;verticalAlign=middle;resizable=0;points=[];autosize=1;strokeColor=none;fillColor=none;" vertex="1" parent="1">
          <mxGeometry x="2325" y="612" width="70" height="30" as="geometry" />
        </mxCell>
        <mxCell id="tQyVGpeCjlCovoECdZ1f-354" value="1" style="text;html=1;align=center;verticalAlign=middle;resizable=0;points=[];autosize=1;strokeColor=none;fillColor=none;" vertex="1" parent="1">
          <mxGeometry x="2340" y="480" width="30" height="30" as="geometry" />
        </mxCell>
        <mxCell id="tQyVGpeCjlCovoECdZ1f-355" value="1" style="text;html=1;align=center;verticalAlign=middle;resizable=0;points=[];autosize=1;strokeColor=none;fillColor=none;" vertex="1" parent="1">
          <mxGeometry x="2670" y="682" width="30" height="30" as="geometry" />
        </mxCell>
        <mxCell id="tQyVGpeCjlCovoECdZ1f-356" value="" style="endArrow=none;html=1;edgeStyle=orthogonalEdgeStyle;rounded=0;entryX=-0.005;entryY=0.911;entryDx=0;entryDy=0;entryPerimeter=0;" edge="1" parent="1" target="tQyVGpeCjlCovoECdZ1f-360">
          <mxGeometry relative="1" as="geometry">
            <mxPoint x="2710" y="620" as="sourcePoint" />
            <mxPoint x="2682.12" y="474.0479999999998" as="targetPoint" />
            <Array as="points">
              <mxPoint x="2469" y="620" />
              <mxPoint x="2469" y="474" />
              <mxPoint x="2679" y="474" />
            </Array>
          </mxGeometry>
        </mxCell>
        <mxCell id="tQyVGpeCjlCovoECdZ1f-357" value="&lt;span style=&quot;color: rgb(255, 255, 255); font-family: Helvetica; font-size: 12px; font-style: normal; font-variant-ligatures: normal; font-variant-caps: normal; font-weight: 400; letter-spacing: normal; orphans: 2; text-align: center; text-indent: 0px; text-transform: none; widows: 2; word-spacing: 0px; -webkit-text-stroke-width: 0px; white-space: nowrap; background-color: rgb(27, 29, 30); text-decoration-thickness: initial; text-decoration-style: initial; text-decoration-color: initial; display: inline !important; float: none;&quot;&gt;Cancel&lt;/span&gt;" style="text;whiteSpace=wrap;html=1;" vertex="1" parent="1">
          <mxGeometry x="2480" y="480" width="60" height="30" as="geometry" />
        </mxCell>
        <mxCell id="tQyVGpeCjlCovoECdZ1f-358" value="1" style="text;html=1;align=center;verticalAlign=middle;resizable=0;points=[];autosize=1;strokeColor=none;fillColor=none;" vertex="1" parent="1">
          <mxGeometry x="2670" y="625" width="30" height="30" as="geometry" />
        </mxCell>
        <mxCell id="tQyVGpeCjlCovoECdZ1f-359" value="1" style="text;html=1;align=center;verticalAlign=middle;resizable=0;points=[];autosize=1;strokeColor=none;fillColor=none;" vertex="1" parent="1">
          <mxGeometry x="2640" y="440" width="30" height="30" as="geometry" />
        </mxCell>
        <mxCell id="tQyVGpeCjlCovoECdZ1f-360" value="&lt;p style=&quot;margin:0px;margin-top:4px;text-align:center;&quot;&gt;&lt;b&gt;&lt;font face=&quot;Verdana&quot;&gt;OrderIngredientsScreen&lt;/font&gt;&lt;/b&gt;&lt;/p&gt;&lt;hr size=&quot;1&quot; style=&quot;border-style:solid;&quot;&gt;&lt;p style=&quot;margin:0px;margin-left:4px;&quot;&gt;&lt;b&gt;&lt;font face=&quot;Verdana&quot;&gt;+ availableProduc:&lt;br&gt;List&amp;lt;Producers&amp;gt;&lt;br&gt;+ availableIngredients:&lt;br&gt;List&amp;lt;Ingredients&amp;gt;&lt;br&gt;+ producerId : int&lt;br&gt;+ selectedIngredients : Map&amp;lt;Ingredients,quantity&amp;gt;&lt;/font&gt;&lt;/b&gt;&lt;/p&gt;&lt;hr size=&quot;1&quot; style=&quot;border-style:solid;&quot;&gt;&lt;div&gt;&lt;b&gt;&lt;font face=&quot;Verdana&quot;&gt;+loadProducers()&lt;/font&gt;&lt;/b&gt;&lt;/div&gt;&lt;div&gt;&lt;b&gt;&lt;font face=&quot;Verdana&quot;&gt;+loadIngredients()&lt;/font&gt;&lt;/b&gt;&lt;/div&gt;&lt;div&gt;&lt;b&gt;&lt;font face=&quot;Verdana&quot;&gt;+selectProducer(Producer)&lt;/font&gt;&lt;/b&gt;&lt;/div&gt;&lt;div&gt;&lt;b&gt;&lt;font face=&quot;Verdana&quot;&gt;+addIngredient(Ingredient, int)&lt;/font&gt;&lt;/b&gt;&lt;/div&gt;&lt;div&gt;&lt;b&gt;&lt;font face=&quot;Verdana&quot;&gt;+removeIngredient(Ingredient)&lt;/font&gt;&lt;/b&gt;&lt;/div&gt;&lt;div&gt;&lt;b&gt;&lt;font face=&quot;Verdana&quot;&gt;+confirmOrder()&lt;/font&gt;&lt;/b&gt;&lt;/div&gt;&lt;div&gt;&lt;b&gt;&lt;font face=&quot;Verdana&quot;&gt;+cancelOrder()&lt;/font&gt;&lt;/b&gt;&lt;/div&gt;&lt;div&gt;&lt;b style=&quot;&quot;&gt;&lt;font face=&quot;Verdana&quot;&gt;+showConfirmationScreen()&lt;/font&gt;&lt;/b&gt;&lt;/div&gt;" style="verticalAlign=top;align=left;overflow=fill;html=1;whiteSpace=wrap;strokeColor=light-dark(#000000,#006666);fillColor=light-dark(#006666,#000000);" vertex="1" parent="1">
          <mxGeometry x="2680" y="220" width="220" height="280" as="geometry" />
        </mxCell>
        <mxCell id="tQyVGpeCjlCovoECdZ1f-361" value="&lt;p style=&quot;margin:0px;margin-top:4px;text-align:center;&quot;&gt;&lt;font face=&quot;Verdana&quot;&gt;&lt;b&gt;Ingredients&lt;/b&gt;&lt;/font&gt;&lt;/p&gt;&lt;hr size=&quot;1&quot; style=&quot;border-style:solid;&quot;&gt;&lt;p style=&quot;margin:0px;margin-left:4px;&quot;&gt;&lt;/p&gt;&lt;b&gt;&lt;font face=&quot;Verdana&quot;&gt;+ingredientId:int&lt;br&gt;-Name:String&lt;br&gt;&lt;/font&gt;&lt;/b&gt;&lt;p style=&quot;margin:0px;margin-left:4px;&quot;&gt;&lt;b style=&quot;background-color: transparent; color: light-dark(rgb(0, 0, 0), rgb(255, 255, 255));&quot;&gt;&lt;font face=&quot;Verdana&quot;&gt;-quantity:int&lt;/font&gt;&lt;/b&gt;&lt;/p&gt;" style="verticalAlign=top;align=left;overflow=fill;html=1;whiteSpace=wrap;strokeColor=light-dark(#000000,#006666);fillColor=light-dark(#006666,#000000);" vertex="1" parent="1">
          <mxGeometry x="3130" y="1130" width="160" height="90" as="geometry" />
        </mxCell>
        <mxCell id="tQyVGpeCjlCovoECdZ1f-362" value="" style="endArrow=classic;html=1;rounded=0;exitX=0.624;exitY=-0.032;exitDx=0;exitDy=0;exitPerimeter=0;entryX=0;entryY=0;entryDx=0;entryDy=0;" edge="1" parent="1" source="tQyVGpeCjlCovoECdZ1f-29" target="tQyVGpeCjlCovoECdZ1f-208">
          <mxGeometry width="50" height="50" relative="1" as="geometry">
            <mxPoint x="400" y="-1050" as="sourcePoint" />
            <mxPoint x="1885" y="-1230" as="targetPoint" />
            <Array as="points">
              <mxPoint x="400" y="-1420" />
              <mxPoint x="1770" y="-1420" />
            </Array>
          </mxGeometry>
        </mxCell>
        <mxCell id="tQyVGpeCjlCovoECdZ1f-363" value="Use" style="endArrow=open;endSize=12;dashed=1;html=1;rounded=0;exitX=0;exitY=0.5;exitDx=0;exitDy=0;strokeWidth=2;" edge="1" parent="1" source="tQyVGpeCjlCovoECdZ1f-29">
          <mxGeometry width="160" relative="1" as="geometry">
            <mxPoint x="33.5" y="-766" as="sourcePoint" />
            <mxPoint x="-60" y="-920" as="targetPoint" />
            <Array as="points">
              <mxPoint x="170" y="-973" />
              <mxPoint x="170" y="-920" />
            </Array>
          </mxGeometry>
        </mxCell>
        <mxCell id="tQyVGpeCjlCovoECdZ1f-364" value="&lt;b&gt;&lt;font style=&quot;font-size: 16px;&quot;&gt;Extends&lt;/font&gt;&lt;/b&gt;" style="text;html=1;align=center;verticalAlign=middle;resizable=0;points=[];autosize=1;strokeColor=none;fillColor=none;" vertex="1" parent="1">
          <mxGeometry x="550" y="-1450" width="90" height="30" as="geometry" />
        </mxCell>
        <mxCell id="tQyVGpeCjlCovoECdZ1f-365" value="" style="endArrow=classic;html=1;rounded=0;exitX=1;exitY=0.5;exitDx=0;exitDy=0;entryX=0.81;entryY=0.056;entryDx=0;entryDy=0;entryPerimeter=0;" edge="1" parent="1" source="tQyVGpeCjlCovoECdZ1f-208" target="tQyVGpeCjlCovoECdZ1f-350">
          <mxGeometry width="50" height="50" relative="1" as="geometry">
            <mxPoint x="2049.5" y="-1132" as="sourcePoint" />
            <mxPoint x="3532.5" y="-1370" as="targetPoint" />
            <Array as="points">
              <mxPoint x="2140" y="-1120" />
              <mxPoint x="2200" y="-1120" />
            </Array>
          </mxGeometry>
        </mxCell>
        <mxCell id="tQyVGpeCjlCovoECdZ1f-366" value="&lt;p style=&quot;margin:0px;margin-top:4px;text-align:center;&quot;&gt;&lt;b&gt;LoginDialog&lt;/b&gt;&lt;/p&gt;&lt;hr size=&quot;1&quot; style=&quot;border-style:solid;&quot;&gt;&lt;p style=&quot;margin:0px;margin-left:4px;&quot;&gt;+ dao : UserDao&amp;nbsp;&lt;/p&gt;&lt;p style=&quot;margin:0px;margin-left:4px;&quot;&gt;+ loggedIn: User&amp;nbsp;&lt;/p&gt;&lt;p style=&quot;margin:0px;margin-left:4px;&quot;&gt;+ tfUser&amp;nbsp; : JTextField&lt;/p&gt;&lt;p style=&quot;margin:0px;margin-left:4px;&quot;&gt;+&amp;nbsp;tfPwd&amp;nbsp; &amp;nbsp;: JPasswordField&lt;/p&gt;&lt;hr size=&quot;1&quot; style=&quot;border-style:solid;&quot;&gt;&lt;p style=&quot;margin:0px;margin-left:4px;&quot;&gt;&lt;font face=&quot;Helvetica&quot;&gt;+ showLogin(): User&lt;/font&gt;&lt;/p&gt;&lt;p style=&quot;margin:0px;margin-left:4px;&quot;&gt;&lt;font face=&quot;Helvetica&quot;&gt;+&amp;nbsp;&lt;span style=&quot;background-color: transparent;&quot;&gt;doLogin()&lt;/span&gt;&lt;/font&gt;&lt;/p&gt;&lt;p style=&quot;margin:0px;margin-left:4px;&quot;&gt;&lt;span style=&quot;background-color: transparent;&quot;&gt;&lt;font face=&quot;Helvetica&quot;&gt;+&amp;nbsp;&lt;/font&gt;&lt;/span&gt;&lt;span style=&quot;background-color: transparent;&quot;&gt;&lt;font face=&quot;Helvetica&quot;&gt;openRegister()&lt;/font&gt;&lt;font face=&quot;monospace&quot;&gt;&amp;nbsp; &amp;nbsp; &amp;nbsp;&amp;nbsp;&lt;/font&gt;&lt;/span&gt;&lt;/p&gt;" style="verticalAlign=top;align=left;overflow=fill;html=1;whiteSpace=wrap;fillColor=default;strokeColor=#6c8ebf;" vertex="1" parent="1">
          <mxGeometry x="690" y="-1935" width="260" height="160" as="geometry" />
        </mxCell>
        <mxCell id="tQyVGpeCjlCovoECdZ1f-367" value="&lt;p style=&quot;margin:0px;margin-top:4px;text-align:center;&quot;&gt;&lt;b&gt;RegisterDialog&lt;/b&gt;&lt;/p&gt;&lt;hr size=&quot;1&quot; style=&quot;border-style:solid;&quot;&gt;&lt;p style=&quot;margin:0px;margin-left:4px;&quot;&gt;+ tfPhone : JTextField&lt;/p&gt;&lt;p style=&quot;margin:0px;margin-left:4px;&quot;&gt;+ tfUser&amp;nbsp; : JTextField&amp;nbsp;&lt;/p&gt;&lt;p style=&quot;margin:0px;margin-left:4px;&quot;&gt;+ tfPwd&amp;nbsp; &amp;nbsp;: JPasswordField&lt;/p&gt;&lt;p style=&quot;margin:0px;margin-left:4px;&quot;&gt;+ tfPwd2&amp;nbsp; : JPasswordField&lt;/p&gt;&lt;p style=&quot;margin:0px;margin-left:4px;&quot;&gt;+ male&amp;nbsp; &amp;nbsp; : JRadioButton&lt;/p&gt;&lt;p style=&quot;margin:0px;margin-left:4px;&quot;&gt;+ fem&amp;nbsp; &amp;nbsp; &amp;nbsp;: JRadioButton&lt;/p&gt;&lt;p style=&quot;margin:0px;margin-left:4px;&quot;&gt;+ success : boolean&amp;nbsp;&lt;/p&gt;&lt;p style=&quot;margin:0px;margin-left:4px;&quot;&gt;+ dao&amp;nbsp; &amp;nbsp; &amp;nbsp;: UserDao&amp;nbsp;&amp;nbsp;&lt;/p&gt;&lt;hr size=&quot;1&quot; style=&quot;border-style:solid;&quot;&gt;&lt;p style=&quot;margin:0px;margin-left:4px;&quot;&gt;&lt;font face=&quot;Helvetica&quot;&gt;&lt;span style=&quot;background-color: transparent;&quot;&gt;+ RegisterDialog(owner: JFrame)&amp;nbsp;&amp;nbsp;&lt;/span&gt;&lt;span style=&quot;background-color: transparent; color: light-dark(rgb(0, 0, 0), rgb(255, 255, 255));&quot;&gt;&amp;nbsp;&amp;nbsp;&lt;/span&gt;&lt;/font&gt;&lt;/p&gt;&lt;p style=&quot;margin:0px;margin-left:4px;&quot;&gt;&lt;font face=&quot;Helvetica&quot;&gt;&lt;span style=&quot;background-color: transparent;&quot;&gt;+ ok(): boolean&lt;/span&gt;&lt;span style=&quot;background-color: transparent; color: light-dark(rgb(0, 0, 0), rgb(255, 255, 255));&quot;&gt;&amp;nbsp;&lt;/span&gt;&lt;/font&gt;&lt;/p&gt;&lt;p style=&quot;margin:0px;margin-left:4px;&quot;&gt;&lt;font face=&quot;Helvetica&quot;&gt;&lt;span style=&quot;background-color: transparent;&quot;&gt;+ doRegister()&lt;/span&gt;&lt;span style=&quot;background-color: transparent; color: light-dark(rgb(0, 0, 0), rgb(255, 255, 255));&quot;&gt;&amp;nbsp;&lt;/span&gt;&lt;/font&gt;&lt;span style=&quot;background-color: transparent; color: light-dark(rgb(0, 0, 0), rgb(255, 255, 255)); font-family: monospace;&quot;&gt;&amp;nbsp;&lt;/span&gt;&lt;/p&gt;" style="verticalAlign=top;align=left;overflow=fill;html=1;whiteSpace=wrap;fillColor=default;strokeColor=#6c8ebf;" vertex="1" parent="1">
          <mxGeometry x="690" y="-1710" width="260" height="220" as="geometry" />
        </mxCell>
        <mxCell id="tQyVGpeCjlCovoECdZ1f-368" value="&lt;p style=&quot;text-align: center; margin: 4px 0px 0px;&quot;&gt;&lt;b&gt;UserDao&lt;/b&gt;&lt;/p&gt;&lt;hr size=&quot;1&quot; style=&quot;border-style:solid;&quot;&gt;&lt;p style=&quot;margin:0px;margin-left:4px;&quot;&gt;&lt;br&gt;&lt;/p&gt;&lt;div&gt;&lt;br&gt;&lt;/div&gt;&lt;hr size=&quot;1&quot; style=&quot;border-style:solid;&quot;&gt;&lt;p style=&quot;margin:0px;margin-left:4px;&quot;&gt;+ login(username:String, pwd:String): Optional&amp;lt;User&amp;gt;&lt;/p&gt;&lt;p style=&quot;margin:0px;margin-left:4px;&quot;&gt;+ register(phone:String, username:String,&amp;nbsp;gender:char, pwd:String): int&amp;nbsp;&lt;/p&gt;" style="verticalAlign=top;align=left;overflow=fill;html=1;whiteSpace=wrap;fillColor=default;strokeColor=light-dark(#000000,#00FF00);" vertex="1" parent="1">
          <mxGeometry x="1140" y="-1940" width="330" height="170" as="geometry" />
        </mxCell>
        <mxCell id="tQyVGpeCjlCovoECdZ1f-370" value="Use" style="endArrow=open;endSize=12;dashed=1;html=1;rounded=0;strokeWidth=2;" edge="1" parent="1" source="tQyVGpeCjlCovoECdZ1f-366" target="tQyVGpeCjlCovoECdZ1f-368">
          <mxGeometry width="160" relative="1" as="geometry">
            <mxPoint x="950" y="-1885" as="sourcePoint" />
            <mxPoint x="1080" y="-1885" as="targetPoint" />
            <mxPoint as="offset" />
          </mxGeometry>
        </mxCell>
        <mxCell id="tQyVGpeCjlCovoECdZ1f-371" value="Use" style="endArrow=open;endSize=12;dashed=1;html=1;rounded=0;strokeWidth=2;" edge="1" parent="1" source="tQyVGpeCjlCovoECdZ1f-367">
          <mxGeometry width="160" relative="1" as="geometry">
            <mxPoint x="990" y="-1640" as="sourcePoint" />
            <mxPoint x="1160" y="-1769" as="targetPoint" />
            <mxPoint as="offset" />
            <Array as="points">
              <mxPoint x="1160" y="-1600" />
            </Array>
          </mxGeometry>
        </mxCell>
        <mxCell id="tQyVGpeCjlCovoECdZ1f-373" value="" style="endArrow=classic;html=1;rounded=0;strokeWidth=2;exitX=1;exitY=0.5;exitDx=0;exitDy=0;entryX=0.179;entryY=-0.006;entryDx=0;entryDy=0;entryPerimeter=0;" edge="1" parent="1" source="tQyVGpeCjlCovoECdZ1f-368" target="tQyVGpeCjlCovoECdZ1f-208">
          <mxGeometry width="50" height="50" relative="1" as="geometry">
            <mxPoint x="1485" y="-1856.11" as="sourcePoint" />
            <mxPoint x="1860" y="-1750" as="targetPoint" />
            <Array as="points">
              <mxPoint x="1810" y="-1855" />
            </Array>
          </mxGeometry>
        </mxCell>
        <mxCell id="tQyVGpeCjlCovoECdZ1f-374" value="" style="endArrow=classic;html=1;rounded=0;entryX=0;entryY=0.25;entryDx=0;entryDy=0;" edge="1" parent="1" target="tQyVGpeCjlCovoECdZ1f-285">
          <mxGeometry width="50" height="50" relative="1" as="geometry">
            <mxPoint x="2000" y="-1060" as="sourcePoint" />
            <mxPoint x="2040" y="1600" as="targetPoint" />
            <Array as="points">
              <mxPoint x="2050" y="-1060" />
              <mxPoint x="2040" y="1485" />
            </Array>
          </mxGeometry>
        </mxCell>
        <mxCell id="tQyVGpeCjlCovoECdZ1f-375" value="&lt;b&gt;&lt;font style=&quot;font-size: 16px;&quot;&gt;Extends&lt;/font&gt;&lt;/b&gt;" style="text;html=1;align=center;verticalAlign=middle;resizable=0;points=[];autosize=1;strokeColor=none;fillColor=none;" vertex="1" parent="1">
          <mxGeometry x="2050" y="-915" width="90" height="30" as="geometry" />
        </mxCell>
        <mxCell id="tQyVGpeCjlCovoECdZ1f-376" value="&lt;b&gt;&lt;font style=&quot;font-size: 16px;&quot;&gt;Extends&lt;/font&gt;&lt;/b&gt;" style="text;html=1;align=center;verticalAlign=middle;resizable=0;points=[];autosize=1;strokeColor=none;fillColor=none;" vertex="1" parent="1">
          <mxGeometry x="2200" y="-1000" width="90" height="30" as="geometry" />
        </mxCell>
        <mxCell id="tQyVGpeCjlCovoECdZ1f-378" value="&lt;b&gt;&lt;font style=&quot;font-size: 16px;&quot;&gt;Extends&lt;/font&gt;&lt;/b&gt;" style="text;html=1;align=center;verticalAlign=middle;resizable=0;points=[];autosize=1;strokeColor=none;fillColor=none;" vertex="1" parent="1">
          <mxGeometry x="840" y="1570" width="90" height="30" as="geometry" />
        </mxCell>
        <mxCell id="tQyVGpeCjlCovoECdZ1f-379" value="&lt;b&gt;&lt;font style=&quot;font-size: 16px;&quot;&gt;Extends&lt;/font&gt;&lt;/b&gt;" style="text;html=1;align=center;verticalAlign=middle;resizable=0;points=[];autosize=1;strokeColor=none;fillColor=none;" vertex="1" parent="1">
          <mxGeometry x="1200" y="1570" width="90" height="30" as="geometry" />
        </mxCell>
        <mxCell id="tQyVGpeCjlCovoECdZ1f-380" value="ItemLoader" style="swimlane;fontStyle=1;align=center;verticalAlign=middle;childLayout=stackLayout;horizontal=1;startSize=29;horizontalStack=0;resizeParent=1;resizeParentMax=0;resizeLast=0;collapsible=0;marginBottom=0;html=1;whiteSpace=wrap;fillColor=light-dark(#006666,#000000);strokeColor=light-dark(#000000,#006666);" vertex="1" parent="1">
          <mxGeometry x="3580" y="940" width="140" height="85" as="geometry" />
        </mxCell>
        <mxCell id="tQyVGpeCjlCovoECdZ1f-381" value="+loadItemsFromFile( filename: String): list&amp;lt;Ingredient&amp;gt;" style="text;html=1;strokeColor=none;fillColor=none;align=left;verticalAlign=middle;spacingLeft=4;spacingRight=4;overflow=hidden;rotatable=0;points=[[0,0.5],[1,0.5]];portConstraint=eastwest;whiteSpace=wrap;" vertex="1" parent="tQyVGpeCjlCovoECdZ1f-380">
          <mxGeometry y="29" width="140" height="56" as="geometry" />
        </mxCell>
        <mxCell id="tQyVGpeCjlCovoECdZ1f-382" value="Use" style="endArrow=open;endSize=12;dashed=1;html=1;rounded=0;entryX=0.471;entryY=1.047;entryDx=0;entryDy=0;exitX=1.016;exitY=0.587;exitDx=0;exitDy=0;entryPerimeter=0;exitPerimeter=0;" edge="1" parent="1" target="tQyVGpeCjlCovoECdZ1f-381" source="tQyVGpeCjlCovoECdZ1f-361">
          <mxGeometry width="160" relative="1" as="geometry">
            <mxPoint x="3574.04" y="1100.4" as="sourcePoint" />
            <mxPoint x="3620.959999999999" y="1066.9999999999995" as="targetPoint" />
            <Array as="points">
              <mxPoint x="3646" y="1183" />
            </Array>
          </mxGeometry>
        </mxCell>
        <mxCell id="tQyVGpeCjlCovoECdZ1f-383" value="" style="endArrow=open;shadow=0;strokeWidth=1;rounded=0;endFill=1;elbow=vertical;exitX=0;exitY=0.336;exitDx=0;exitDy=0;exitPerimeter=0;" edge="1" parent="1" source="tQyVGpeCjlCovoECdZ1f-22">
          <mxGeometry x="0.5" y="41" relative="1" as="geometry">
            <mxPoint x="-1440" y="310" as="sourcePoint" />
            <mxPoint x="976" y="1480" as="targetPoint" />
            <mxPoint x="-40" y="32" as="offset" />
            <Array as="points">
              <mxPoint x="-1310" y="-960" />
              <mxPoint x="-1310" y="-170" />
              <mxPoint x="-1310" y="1480" />
            </Array>
          </mxGeometry>
        </mxCell>
        <mxCell id="tQyVGpeCjlCovoECdZ1f-384" value="1" style="resizable=0;align=left;verticalAlign=bottom;labelBackgroundColor=none;fontSize=12;" connectable="0" vertex="1" parent="tQyVGpeCjlCovoECdZ1f-383">
          <mxGeometry x="-1" relative="1" as="geometry">
            <mxPoint x="-30" as="offset" />
          </mxGeometry>
        </mxCell>
        <mxCell id="tQyVGpeCjlCovoECdZ1f-385" value="1" style="resizable=0;align=right;verticalAlign=bottom;labelBackgroundColor=none;fontSize=12;" connectable="0" vertex="1" parent="tQyVGpeCjlCovoECdZ1f-383">
          <mxGeometry x="1" relative="1" as="geometry">
            <mxPoint x="-6" y="39" as="offset" />
          </mxGeometry>
        </mxCell>
        <mxCell id="tQyVGpeCjlCovoECdZ1f-386" value="Inspects" style="text;html=1;resizable=0;points=[];;align=center;verticalAlign=middle;labelBackgroundColor=none;rounded=0;shadow=0;strokeWidth=1;fontSize=12;" vertex="1" connectable="0" parent="tQyVGpeCjlCovoECdZ1f-383">
          <mxGeometry x="0.5" y="49" relative="1" as="geometry">
            <mxPoint x="17" y="52" as="offset" />
          </mxGeometry>
        </mxCell>
        <mxCell id="tQyVGpeCjlCovoECdZ1f-391" value="1" style="endArrow=open;html=1;endSize=12;startArrow=diamondThin;startSize=14;startFill=1;align=left;verticalAlign=bottom;rounded=0;exitX=0.016;exitY=0.421;exitDx=0;exitDy=0;exitPerimeter=0;entryX=-0.006;entryY=0.096;entryDx=0;entryDy=0;entryPerimeter=0;strokeColor=light-dark(#000000,#006666);" edge="1" parent="1" source="tQyVGpeCjlCovoECdZ1f-282" target="tQyVGpeCjlCovoECdZ1f-22">
          <mxGeometry x="-1" y="3" relative="1" as="geometry">
            <mxPoint x="1860" y="1660" as="sourcePoint" />
            <mxPoint x="-1570" y="-1080" as="targetPoint" />
            <Array as="points">
              <mxPoint x="1840" y="1580" />
              <mxPoint x="1840" y="2460" />
              <mxPoint x="-1560" y="2480" />
              <mxPoint x="-1560" y="-1038" />
            </Array>
          </mxGeometry>
        </mxCell>
        <mxCell id="tQyVGpeCjlCovoECdZ1f-392" value="1" style="endArrow=open;html=1;endSize=12;startArrow=diamondThin;startSize=14;startFill=1;align=left;verticalAlign=bottom;rounded=0;entryX=0.023;entryY=0.007;entryDx=0;entryDy=0;entryPerimeter=0;strokeColor=light-dark(#000000,#FFFFFF);exitX=0.364;exitY=0;exitDx=0;exitDy=0;exitPerimeter=0;" edge="1" parent="1" source="tQyVGpeCjlCovoECdZ1f-360" target="tQyVGpeCjlCovoECdZ1f-22">
          <mxGeometry x="-0.9986" y="-10" relative="1" as="geometry">
            <mxPoint x="2550" y="126" as="sourcePoint" />
            <mxPoint x="-422" y="-2490" as="targetPoint" />
            <Array as="points">
              <mxPoint x="2760" y="140" />
              <mxPoint x="4140" y="140" />
              <mxPoint x="4140" y="590" />
              <mxPoint x="4150" y="2560" />
              <mxPoint x="470" y="2560" />
              <mxPoint x="-1600" y="2550" />
              <mxPoint x="-1600" y="1028" />
              <mxPoint x="-1600" y="-20" />
              <mxPoint x="-1600" y="-540" />
              <mxPoint x="-1600" y="-1070" />
            </Array>
            <mxPoint as="offset" />
          </mxGeometry>
        </mxCell>
        <mxCell id="tQyVGpeCjlCovoECdZ1f-393" value="Use" style="endArrow=open;endSize=12;dashed=1;html=1;rounded=0;exitX=0.963;exitY=0.024;exitDx=0;exitDy=0;exitPerimeter=0;strokeWidth=2;entryX=-0.009;entryY=0.05;entryDx=0;entryDy=0;entryPerimeter=0;" edge="1" parent="1" target="tQyVGpeCjlCovoECdZ1f-207">
          <mxGeometry width="160" relative="1" as="geometry">
            <mxPoint x="440" y="-990" as="sourcePoint" />
            <mxPoint x="560" y="-1138" as="targetPoint" />
            <Array as="points">
              <mxPoint x="440" y="-1200" />
            </Array>
          </mxGeometry>
        </mxCell>
        <mxCell id="tQyVGpeCjlCovoECdZ1f-394" value="1" style="endArrow=open;html=1;endSize=12;startArrow=diamondThin;startSize=14;startFill=1;align=left;verticalAlign=bottom;rounded=0;entryX=0.5;entryY=0;entryDx=0;entryDy=0;exitX=0.5;exitY=1;exitDx=0;exitDy=0;" edge="1" parent="1" source="tQyVGpeCjlCovoECdZ1f-207" target="tQyVGpeCjlCovoECdZ1f-258">
          <mxGeometry x="-1" y="3" relative="1" as="geometry">
            <mxPoint x="1414" y="-570" as="sourcePoint" />
            <mxPoint x="1280" y="-657" as="targetPoint" />
          </mxGeometry>
        </mxCell>
        <mxCell id="tQyVGpeCjlCovoECdZ1f-395" value="1" style="endArrow=open;html=1;endSize=12;startArrow=diamondThin;startSize=14;startFill=1;align=left;verticalAlign=bottom;rounded=0;" edge="1" parent="1">
          <mxGeometry x="-1" y="3" relative="1" as="geometry">
            <mxPoint x="1200" y="-418" as="sourcePoint" />
            <mxPoint x="1480" y="-230" as="targetPoint" />
            <Array as="points">
              <mxPoint x="1200" y="-230" />
            </Array>
          </mxGeometry>
        </mxCell>
        <mxCell id="tQyVGpeCjlCovoECdZ1f-396" value="1" style="endArrow=open;html=1;endSize=12;startArrow=diamondThin;startSize=14;startFill=1;align=left;verticalAlign=bottom;rounded=0;entryX=0.5;entryY=0;entryDx=0;entryDy=0;exitX=0.5;exitY=1;exitDx=0;exitDy=0;" edge="1" parent="1" source="tQyVGpeCjlCovoECdZ1f-256" target="tQyVGpeCjlCovoECdZ1f-255">
          <mxGeometry x="-1" y="3" relative="1" as="geometry">
            <mxPoint x="1650" y="-470" as="sourcePoint" />
            <mxPoint x="1650" y="-330" as="targetPoint" />
          </mxGeometry>
        </mxCell>
        <mxCell id="tQyVGpeCjlCovoECdZ1f-397" value="1" style="endArrow=open;html=1;endSize=12;startArrow=diamondThin;startSize=14;startFill=1;align=left;verticalAlign=bottom;rounded=0;exitX=1.004;exitY=0.816;exitDx=0;exitDy=0;strokeColor=light-dark(#000000,#00CC00);exitPerimeter=0;entryX=0.968;entryY=-0.004;entryDx=0;entryDy=0;entryPerimeter=0;" edge="1" parent="1" source="tQyVGpeCjlCovoECdZ1f-368" target="tQyVGpeCjlCovoECdZ1f-258">
          <mxGeometry x="-1" y="3" relative="1" as="geometry">
            <mxPoint x="1303.75" y="-1750" as="sourcePoint" />
            <mxPoint x="1430" y="-1000" as="targetPoint" />
            <Array as="points">
              <mxPoint x="1660" y="-1800" />
              <mxPoint x="1660" y="-1000" />
              <mxPoint x="1510" y="-1000" />
            </Array>
          </mxGeometry>
        </mxCell>
        <mxCell id="tQyVGpeCjlCovoECdZ1f-398" value="&lt;b&gt;&lt;font style=&quot;font-size: 15px;&quot;&gt;is a&amp;nbsp;&lt;/font&gt;&lt;/b&gt;" style="text;html=1;align=center;verticalAlign=middle;resizable=0;points=[];autosize=1;strokeColor=none;fillColor=none;" vertex="1" parent="1">
          <mxGeometry x="1115" y="160" width="50" height="30" as="geometry" />
        </mxCell>
        <mxCell id="tQyVGpeCjlCovoECdZ1f-399" value="RatingPanel" style="swimlane;fontStyle=1;align=center;verticalAlign=top;childLayout=stackLayout;horizontal=1;startSize=26;horizontalStack=0;resizeParent=1;resizeParentMax=0;resizeLast=0;collapsible=1;marginBottom=0;whiteSpace=wrap;html=1;" vertex="1" parent="1">
          <mxGeometry x="-480" y="-1502" width="380" height="134" as="geometry" />
        </mxCell>
        <mxCell id="tQyVGpeCjlCovoECdZ1f-403" value="&lt;font face=&quot;monospace&quot;&gt;available_foods :List[Food]&lt;br&gt;user:List[&lt;/font&gt;&lt;span style=&quot;font-family: monospace;&quot;&gt;User&lt;/span&gt;&lt;font face=&quot;monospace&quot;&gt;]&lt;/font&gt;" style="text;html=1;align=center;verticalAlign=middle;resizable=0;points=[];autosize=1;strokeColor=none;fillColor=none;" vertex="1" parent="tQyVGpeCjlCovoECdZ1f-399">
          <mxGeometry y="26" width="380" height="40" as="geometry" />
        </mxCell>
        <mxCell id="tQyVGpeCjlCovoECdZ1f-401" value="" style="line;strokeWidth=1;fillColor=none;align=left;verticalAlign=middle;spacingTop=-1;spacingLeft=3;spacingRight=3;rotatable=0;labelPosition=right;points=[];portConstraint=eastwest;strokeColor=inherit;" vertex="1" parent="tQyVGpeCjlCovoECdZ1f-399">
          <mxGeometry y="66" width="380" height="8" as="geometry" />
        </mxCell>
        <mxCell id="tQyVGpeCjlCovoECdZ1f-404" value="getRatingPanel()&lt;br&gt;displayFoods()&lt;br&gt;getfoodByid()" style="text;html=1;align=center;verticalAlign=middle;resizable=0;points=[];autosize=1;strokeColor=none;fillColor=none;" vertex="1" parent="tQyVGpeCjlCovoECdZ1f-399">
          <mxGeometry y="74" width="380" height="60" as="geometry" />
        </mxCell>
        <mxCell id="tQyVGpeCjlCovoECdZ1f-408" value="1" style="endArrow=open;html=1;endSize=12;startArrow=diamondThin;startSize=14;startFill=0;align=left;verticalAlign=bottom;rounded=0;entryX=0.635;entryY=0.001;entryDx=0;entryDy=0;entryPerimeter=0;exitX=0.464;exitY=1.033;exitDx=0;exitDy=0;exitPerimeter=0;" edge="1" parent="1" source="tQyVGpeCjlCovoECdZ1f-404" target="tQyVGpeCjlCovoECdZ1f-21">
          <mxGeometry x="-0.9211" y="14" relative="1" as="geometry">
            <mxPoint x="-300" y="-1250" as="sourcePoint" />
            <mxPoint x="16" y="-1109" as="targetPoint" />
            <Array as="points">
              <mxPoint x="-304" y="-1160" />
              <mxPoint x="-170" y="-1160" />
            </Array>
            <mxPoint as="offset" />
          </mxGeometry>
        </mxCell>
        <mxCell id="tQyVGpeCjlCovoECdZ1f-409" value="Rating" style="swimlane;fontStyle=1;align=center;verticalAlign=top;childLayout=stackLayout;horizontal=1;startSize=26;horizontalStack=0;resizeParent=1;resizeParentMax=0;resizeLast=0;collapsible=1;marginBottom=0;whiteSpace=wrap;html=1;" vertex="1" parent="1">
          <mxGeometry x="-80" y="-1730" width="380" height="134" as="geometry" />
        </mxCell>
        <mxCell id="tQyVGpeCjlCovoECdZ1f-410" value="&lt;font face=&quot;monospace&quot;&gt;available_foods :List[Food]&lt;br&gt;user:List[&lt;/font&gt;&lt;span style=&quot;font-family: monospace;&quot;&gt;User&lt;/span&gt;&lt;font face=&quot;monospace&quot;&gt;]&lt;/font&gt;" style="text;html=1;align=center;verticalAlign=middle;resizable=0;points=[];autosize=1;strokeColor=none;fillColor=none;" vertex="1" parent="tQyVGpeCjlCovoECdZ1f-409">
          <mxGeometry y="26" width="380" height="40" as="geometry" />
        </mxCell>
        <mxCell id="tQyVGpeCjlCovoECdZ1f-411" value="" style="line;strokeWidth=1;fillColor=none;align=left;verticalAlign=middle;spacingTop=-1;spacingLeft=3;spacingRight=3;rotatable=0;labelPosition=right;points=[];portConstraint=eastwest;strokeColor=inherit;" vertex="1" parent="tQyVGpeCjlCovoECdZ1f-409">
          <mxGeometry y="66" width="380" height="8" as="geometry" />
        </mxCell>
        <mxCell id="tQyVGpeCjlCovoECdZ1f-412" value="getRatingPanel()&lt;br&gt;displayFoods()&lt;br&gt;getfoodByid()" style="text;html=1;align=center;verticalAlign=middle;resizable=0;points=[];autosize=1;strokeColor=none;fillColor=none;" vertex="1" parent="tQyVGpeCjlCovoECdZ1f-409">
          <mxGeometry y="74" width="380" height="60" as="geometry" />
        </mxCell>
        <mxCell id="tQyVGpeCjlCovoECdZ1f-413" value="" style="endArrow=classic;html=1;rounded=0;entryX=-0.003;entryY=0.146;entryDx=0;entryDy=0;entryPerimeter=0;" edge="1" parent="1" target="tQyVGpeCjlCovoECdZ1f-409">
          <mxGeometry width="50" height="50" relative="1" as="geometry">
            <mxPoint x="-240" y="-1504" as="sourcePoint" />
            <mxPoint x="-320" y="-1599" as="targetPoint" />
            <Array as="points">
              <mxPoint x="-240" y="-1600" />
              <mxPoint x="-240" y="-1710" />
            </Array>
          </mxGeometry>
        </mxCell>
        <mxCell id="tQyVGpeCjlCovoECdZ1f-414" value="1" style="edgeLabel;html=1;align=center;verticalAlign=middle;resizable=0;points=[];" vertex="1" connectable="0" parent="tQyVGpeCjlCovoECdZ1f-413">
          <mxGeometry x="-0.9435" y="2" relative="1" as="geometry">
            <mxPoint x="-7" y="4" as="offset" />
          </mxGeometry>
        </mxCell>
        <mxCell id="tQyVGpeCjlCovoECdZ1f-415" value="1..*" style="edgeLabel;html=1;align=center;verticalAlign=middle;resizable=0;points=[];" vertex="1" connectable="0" parent="tQyVGpeCjlCovoECdZ1f-413">
          <mxGeometry x="0.9228" y="-3" relative="1" as="geometry">
            <mxPoint x="-11" y="-12" as="offset" />
          </mxGeometry>
        </mxCell>
        <mxCell id="tQyVGpeCjlCovoECdZ1f-416" value="1" style="endArrow=open;html=1;endSize=12;startArrow=diamondThin;startSize=14;startFill=0;align=left;verticalAlign=bottom;rounded=0;exitX=0.527;exitY=1.009;exitDx=0;exitDy=0;exitPerimeter=0;entryX=0.012;entryY=0.946;entryDx=0;entryDy=0;entryPerimeter=0;strokeColor=light-dark(#000000,#FFB570);" edge="1" parent="1" source="tQyVGpeCjlCovoECdZ1f-412" target="tQyVGpeCjlCovoECdZ1f-252">
          <mxGeometry x="-0.981" y="20" relative="1" as="geometry">
            <mxPoint x="70" y="-1330" as="sourcePoint" />
            <mxPoint x="690" y="-990" as="targetPoint" />
            <Array as="points">
              <mxPoint x="120" y="-1090" />
              <mxPoint x="680" y="-1090" />
              <mxPoint x="690" y="280" />
            </Array>
            <mxPoint as="offset" />
          </mxGeometry>
        </mxCell>
        <mxCell id="tQyVGpeCjlCovoECdZ1f-417" value="Use" style="endArrow=open;endSize=12;dashed=1;html=1;rounded=0;exitX=0;exitY=0;exitDx=0;exitDy=0;strokeWidth=2;exitPerimeter=0;entryX=0.993;entryY=0.124;entryDx=0;entryDy=0;entryPerimeter=0;" edge="1" parent="1" source="tQyVGpeCjlCovoECdZ1f-29" target="tQyVGpeCjlCovoECdZ1f-399">
          <mxGeometry width="160" relative="1" as="geometry">
            <mxPoint x="310" y="-963" as="sourcePoint" />
            <mxPoint x="10" y="-1592" as="targetPoint" />
            <Array as="points">
              <mxPoint x="170" y="-990" />
              <mxPoint y="-990" />
              <mxPoint y="-1485" />
            </Array>
          </mxGeometry>
        </mxCell>
        <mxCell id="tQyVGpeCjlCovoECdZ1f-419" value="ProfileEditor" style="swimlane;fontStyle=1;align=center;verticalAlign=top;childLayout=stackLayout;horizontal=1;startSize=26;horizontalStack=0;resizeParent=1;resizeParentMax=0;resizeLast=0;collapsible=1;marginBottom=0;whiteSpace=wrap;html=1;" vertex="1" parent="1">
          <mxGeometry x="360" y="-375" width="160" height="158" as="geometry" />
        </mxCell>
        <mxCell id="tQyVGpeCjlCovoECdZ1f-420" value="user_profile:List[User]" style="text;strokeColor=none;fillColor=none;align=left;verticalAlign=top;spacingLeft=4;spacingRight=4;overflow=hidden;rotatable=0;points=[[0,0.5],[1,0.5]];portConstraint=eastwest;whiteSpace=wrap;html=1;" vertex="1" parent="tQyVGpeCjlCovoECdZ1f-419">
          <mxGeometry y="26" width="160" height="44" as="geometry" />
        </mxCell>
        <mxCell id="tQyVGpeCjlCovoECdZ1f-421" value="" style="line;strokeWidth=1;fillColor=none;align=left;verticalAlign=middle;spacingTop=-1;spacingLeft=3;spacingRight=3;rotatable=0;labelPosition=right;points=[];portConstraint=eastwest;strokeColor=inherit;" vertex="1" parent="tQyVGpeCjlCovoECdZ1f-419">
          <mxGeometry y="70" width="160" height="8" as="geometry" />
        </mxCell>
        <mxCell id="tQyVGpeCjlCovoECdZ1f-422" value="+edit_username():string&lt;br&gt;+edit_phoneNum():int&lt;br&gt;+edit_Image():void&lt;br&gt;+SaveChanges():void" style="text;strokeColor=none;fillColor=none;align=left;verticalAlign=top;spacingLeft=4;spacingRight=4;overflow=hidden;rotatable=0;points=[[0,0.5],[1,0.5]];portConstraint=eastwest;whiteSpace=wrap;html=1;" vertex="1" parent="tQyVGpeCjlCovoECdZ1f-419">
          <mxGeometry y="78" width="160" height="80" as="geometry" />
        </mxCell>
        <mxCell id="tQyVGpeCjlCovoECdZ1f-423" value="1" style="endArrow=open;html=1;endSize=12;startArrow=diamondThin;startSize=14;startFill=1;align=left;verticalAlign=bottom;rounded=0;exitX=0.287;exitY=1.018;exitDx=0;exitDy=0;exitPerimeter=0;entryX=0.908;entryY=1.003;entryDx=0;entryDy=0;entryPerimeter=0;" edge="1" parent="1" source="tQyVGpeCjlCovoECdZ1f-258" target="tQyVGpeCjlCovoECdZ1f-208">
          <mxGeometry x="-1" y="3" relative="1" as="geometry">
            <mxPoint x="1285" y="-855" as="sourcePoint" />
            <mxPoint x="2125" y="-603.5" as="targetPoint" />
            <Array as="points">
              <mxPoint x="1285" y="-703.5" />
              <mxPoint x="1285" y="-573.5" />
              <mxPoint x="1980" y="-570" />
            </Array>
          </mxGeometry>
        </mxCell>
        <mxCell id="tQyVGpeCjlCovoECdZ1f-424" value="Use" style="endArrow=open;endSize=12;dashed=1;html=1;rounded=0;exitX=0.5;exitY=1;exitDx=0;exitDy=0;" edge="1" parent="1" source="tQyVGpeCjlCovoECdZ1f-29">
          <mxGeometry x="0.0208" y="11" width="160" relative="1" as="geometry">
            <mxPoint x="390" y="-840" as="sourcePoint" />
            <mxPoint x="380" y="-370" as="targetPoint" />
            <Array as="points">
              <mxPoint x="380" y="-680" />
            </Array>
            <mxPoint as="offset" />
          </mxGeometry>
        </mxCell>
        <mxCell id="tQyVGpeCjlCovoECdZ1f-426" value="" style="endArrow=none;html=1;edgeStyle=orthogonalEdgeStyle;rounded=0;entryX=0.348;entryY=1.003;entryDx=0;entryDy=0;entryPerimeter=0;exitX=0.43;exitY=-0.001;exitDx=0;exitDy=0;exitPerimeter=0;" edge="1" parent="1" source="tQyVGpeCjlCovoECdZ1f-209" target="tQyVGpeCjlCovoECdZ1f-208">
          <mxGeometry relative="1" as="geometry">
            <mxPoint x="1430" y="-664" as="sourcePoint" />
            <mxPoint x="2029" y="-890" as="targetPoint" />
            <Array as="points">
              <mxPoint x="1859" y="-930" />
              <mxPoint x="1850" y="-930" />
            </Array>
          </mxGeometry>
        </mxCell>
        <mxCell id="tQyVGpeCjlCovoECdZ1f-427" value="Has" style="text;html=1;align=center;verticalAlign=middle;resizable=0;points=[];autosize=1;strokeColor=none;fillColor=none;" vertex="1" parent="1">
          <mxGeometry x="1860" y="-952" width="40" height="30" as="geometry" />
        </mxCell>
      </root>
    </mxGraphModel>
  </diagram>
</mxfile>
